<svg width="206" height="200" viewBox="0 0 206 200" fill="none" xmlns="http://www.w3.org/2000/svg">
<g clip-path="url(#clip0_419_6623)">
<path d="M36.953 0.178711H169.349C189.422 0.178711 205.651 16.3368 205.651 36.3219V163.036C205.651 183.021 189.422 199.179 169.349 199.179H36.953C16.88 199.179 0.650879 183.021 0.650879 163.036V36.3219C0.650879 16.3368 16.88 0.178711 36.953 0.178711Z" fill="#470137"/>
<path d="M108.447 52.48L82.8217 94.5761L110.155 139.224C110.326 139.564 110.411 139.904 110.326 140.244C110.24 140.584 109.899 140.329 109.386 140.414H89.8259C88.4592 140.414 87.5196 140.329 86.9217 139.479C85.1279 135.907 83.2488 132.42 81.455 128.848C79.6613 125.362 77.6967 121.79 75.6467 118.133C73.5967 114.476 71.5467 110.819 69.4967 107.077H69.3259C67.5321 110.734 65.5675 114.391 63.6029 118.048C61.6384 121.705 59.6738 125.362 57.7946 128.933C55.83 132.505 53.8654 136.162 51.9009 139.649C51.5592 140.499 50.8759 140.584 49.9363 140.584H31.1446C30.8029 140.584 30.5467 140.754 30.5467 140.329C30.4613 139.989 30.5467 139.649 30.7175 139.394L57.2821 96.0219L31.4009 52.3949C31.1446 52.0548 31.0592 51.7146 31.23 51.5445C31.4009 51.2894 31.7425 51.2043 32.0842 51.2043H51.4738C51.9009 51.2043 52.3279 51.2894 52.6696 51.3744C53.0113 51.5445 53.2675 51.7996 53.5238 52.1398C55.1467 55.7967 57.0259 59.4535 58.9904 63.1103C61.0404 66.7672 63.005 70.339 65.1404 73.9108C67.1904 77.4825 69.0696 81.0543 70.8634 84.7112H71.0342C72.8279 80.9693 74.7071 77.3125 76.5863 73.7407C78.4654 70.1689 80.43 66.5971 82.3946 63.0253C84.3592 59.4535 86.2384 55.7967 88.1175 52.3099C88.2029 51.9697 88.3738 51.6296 88.63 51.4595C88.9717 51.2894 89.3134 51.2043 89.7404 51.2894H107.763C108.19 51.2043 108.618 51.4595 108.703 51.8847C108.788 51.9697 108.618 52.3099 108.447 52.48Z" fill="#FF61F6"/>
<path d="M147.909 142.2C141.589 142.285 135.268 141.009 129.545 138.373C124.164 135.907 119.722 131.825 116.647 126.807C113.487 121.62 111.949 115.156 111.949 107.418C111.864 101.124 113.487 94.9163 116.647 89.4735C119.893 83.9457 124.591 79.3534 130.228 76.2919C136.207 72.9752 143.382 71.3594 151.839 71.3594C152.266 71.3594 152.864 71.3594 153.632 71.4445C154.401 71.5295 155.255 71.5295 156.28 71.6146V44.741C156.28 44.1457 156.537 43.8056 157.134 43.8056H174.474C174.901 43.7205 175.243 44.0607 175.328 44.4009C175.328 44.4859 175.328 44.571 175.328 44.571V125.532C175.328 127.062 175.414 128.763 175.499 130.634C175.67 132.42 175.755 134.121 175.841 135.567C175.841 136.162 175.584 136.672 174.987 136.927C170.545 138.798 165.847 140.159 161.064 141.009C156.707 141.775 152.351 142.2 147.909 142.2ZM156.28 125.191V87.7727C155.512 87.6026 154.743 87.4325 153.974 87.3475C153.034 87.2624 152.095 87.1774 151.155 87.1774C147.824 87.1774 144.493 87.8577 141.503 89.3885C138.599 90.8342 136.122 92.9603 134.243 95.6816C132.364 98.403 131.424 102.06 131.424 106.482C131.339 109.459 131.851 112.435 132.876 115.241C133.73 117.538 135.012 119.579 136.72 121.28C138.343 122.81 140.307 124.001 142.528 124.681C144.834 125.447 147.226 125.787 149.618 125.787C150.899 125.787 152.095 125.702 153.205 125.617C154.316 125.702 155.255 125.532 156.28 125.191Z" fill="#FF61F6"/>
</g>
<defs>
<clipPath id="clip0_419_6623">
<rect width="205" height="199" fill="white" transform="translate(0.650879 0.178711)"/>
</clipPath>
</defs>
</svg>
