<svg width="193" height="194" viewBox="0 0 193 194" fill="none" xmlns="http://www.w3.org/2000/svg">
<path d="M167.437 63.74C167.491 61.2607 166.895 58.8105 165.707 56.6344C164.476 54.531 162.702 52.799 160.57 51.6207C141.677 40.6954 122.777 29.7854 103.87 18.8907C98.779 15.9426 93.8445 16.0471 88.7861 19.041C81.2669 23.4665 43.6125 45.0969 32.3925 51.6141C27.7714 54.2942 25.5261 58.3994 25.5261 63.7335V129.625C25.4784 132.052 26.0513 134.451 27.1905 136.593C28.4219 138.761 30.2295 140.544 32.4121 141.744C43.6321 148.281 81.293 169.885 88.8122 174.33C93.8706 177.324 98.8051 177.429 103.903 174.481C122.792 163.551 141.692 152.637 160.603 141.738C162.786 140.537 164.593 138.754 165.825 136.587C166.964 134.444 167.537 132.045 167.489 129.618V63.74H167.437Z" fill="#004482"/>
<path d="M167.45 129.625C167.499 132.052 166.926 134.451 165.785 136.593C165.505 137.103 165.189 137.593 164.839 138.057L96.4814 96.6791L160.57 51.6206C162.7 52.7993 164.472 54.5314 165.701 56.6344C166.893 58.8087 167.492 61.2597 167.437 63.7399C167.45 85.7037 167.45 129.625 167.45 129.625V129.625Z" fill="#00599C"/>
<path d="M165.701 56.6346L27.1709 136.593C26.0368 134.452 25.4684 132.055 25.5195 129.632V63.7336C25.5195 58.3995 27.7714 54.2944 32.386 51.6143C43.6125 45.097 81.2669 23.4666 88.7926 19.0281C93.838 16.0342 98.7789 15.9296 103.87 18.8777C122.759 29.8073 141.659 40.7217 160.57 51.6208C162.7 52.7995 164.472 54.5316 165.701 56.6346V56.6346Z" fill="#659AD2"/>
<path d="M99.2228 123.297C94.5582 123.304 89.9774 122.056 85.9589 119.684C81.9404 117.311 78.6316 113.902 76.3782 109.812C76.1475 109.402 75.93 108.984 75.7255 108.557C72.9451 102.806 72.367 96.2337 74.1006 90.0846C75.8341 83.9356 79.759 78.6366 85.1319 75.1913C90.5048 71.7461 96.9528 70.3936 103.255 71.3901C109.556 72.3867 115.274 75.663 119.326 80.5986C119.672 81.017 119.979 81.4549 120.325 81.906C120.481 82.1217 120.638 82.3374 120.782 82.5597L143.672 69.3552C143.115 68.4575 142.532 67.5859 141.923 66.7405C141.603 66.2894 141.27 65.858 140.957 65.4331C133.001 55.0819 121.46 48.0922 108.612 45.8427C95.7635 43.5932 82.5399 46.2472 71.5491 53.2812C60.5583 60.3152 52.5984 71.2186 49.2393 83.8408C45.8802 96.463 47.3658 109.888 53.403 121.467C53.6249 121.885 53.8534 122.297 54.0557 122.709C58.4897 130.544 64.8708 137.097 72.5797 141.734C80.2887 146.37 89.0636 148.932 98.0526 149.17C107.042 149.408 115.939 147.315 123.882 143.093C131.825 138.871 138.543 132.664 143.385 125.075L121.003 111.524C118.634 115.143 115.402 118.114 111.6 120.169C107.797 122.225 103.544 123.3 99.2228 123.297V123.297Z" fill="white"/>
</svg>
