<svg width="660" height="663" viewBox="0 0 660 663" fill="none" xmlns="http://www.w3.org/2000/svg">
<g clip-path="url(#clip0_419_6402)">
<path d="M329.998 51.1792C176.991 51.1792 52.5 176.792 52.5 331.181C52.5 485.584 176.991 611.19 329.998 611.19C483.009 611.19 607.5 485.584 607.5 331.181C607.5 176.792 483.009 51.1792 329.998 51.1792Z" fill="white"/>
<path d="M319.85 336.217C317.356 341.668 314.605 347.793 311.756 354.312C301.686 377.333 290.534 405.346 286.461 423.293C284.997 429.685 284.091 437.606 284.108 446.388C284.108 449.862 284.293 453.513 284.585 457.232C298.822 462.51 314.2 465.413 330.258 465.441C344.877 465.413 358.921 462.976 372.065 458.566C368.976 455.716 366.027 452.677 363.343 449.254C345.523 426.325 335.58 392.72 319.85 336.217" fill="#91DC47"/>
<path d="M254.056 222.296C220.021 246.499 197.75 286.416 197.665 331.654C197.75 376.215 219.351 415.617 252.53 439.92C260.668 405.714 281.069 374.393 311.661 311.612C309.844 306.576 307.774 301.064 305.456 295.274C296.982 273.823 284.75 248.912 273.834 237.631C268.269 231.738 261.516 226.645 254.056 222.296" fill="#91DC47"/>
<path d="M445.757 485.107C428.196 482.887 413.703 480.207 401.025 475.694C379.701 486.378 355.686 492.413 330.258 492.413C242.273 492.413 170.949 420.458 170.938 331.654C170.938 283.47 191.976 240.276 225.259 210.816C216.357 208.646 207.074 207.38 197.591 207.397C150.846 207.841 101.5 233.945 80.9568 304.441C79.036 314.703 79.4934 322.462 79.4934 331.658C79.4934 471.407 191.775 584.7 330.265 584.7C415.08 584.7 490.005 542.177 535.378 477.142C510.837 483.313 487.236 486.264 467.027 486.328C459.452 486.328 452.341 485.919 445.757 485.107" fill="#63B132"/>
<path d="M398.634 436.076C400.181 436.851 403.691 438.115 408.576 439.513C441.436 415.173 462.79 375.966 462.875 331.654H462.862C462.738 257.78 403.49 198.006 330.258 197.86C315.702 197.888 301.719 200.312 288.626 204.689C315.55 235.655 328.498 279.909 341.022 328.316C341.028 328.338 341.039 328.355 341.044 328.373C341.067 328.412 345.05 341.815 351.888 359.597C358.678 377.355 368.351 399.34 378.901 415.361C385.827 426.097 393.446 433.812 398.634 436.076" fill="#90B4FE"/>
<path d="M330.264 78.6127C246.269 78.6127 171.968 120.335 126.458 184.308C150.143 169.341 174.327 163.943 195.432 164.135C224.582 164.22 247.5 173.34 258.496 179.579C261.152 181.123 263.673 182.786 266.142 184.494C285.763 175.775 307.442 170.899 330.258 170.899C418.254 170.91 489.588 242.865 489.601 331.654H489.588C489.588 376.419 471.443 416.894 442.19 446.04C449.37 446.852 457.028 447.357 464.848 447.318C492.621 447.331 522.641 441.147 545.147 422.048C559.822 409.575 572.117 391.311 578.935 363.928C580.268 353.352 581.036 342.6 581.036 331.658C581.036 191.916 468.765 78.6127 330.264 78.6127" fill="#5881D8"/>
</g>
<defs>
<clipPath id="clip0_419_6402">
<rect width="555" height="560" fill="white" transform="translate(52.5 51.1792)"/>
</clipPath>
</defs>
</svg>
