<svg width="428" height="427" viewBox="0 0 428 427" fill="none" xmlns="http://www.w3.org/2000/svg">
<g clip-path="url(#clip0_419_6424)">
<path d="M149.575 147.815L131.026 129.265L131.104 263.348L131.326 269.615C131.418 272.564 131.965 275.891 132.878 279.34L279.858 331.168L316.598 314.889L316.612 314.845L149.575 147.815Z" fill="#00D2B8"/>
<path d="M132.878 279.339L132.887 279.348C132.878 279.288 132.846 279.22 132.846 279.158C132.846 279.22 132.855 279.279 132.878 279.339V279.339ZM316.598 314.889L279.857 331.167L132.887 279.348C135.694 290.12 141.909 302.228 148.598 308.849L196.562 356.54L303.212 356.679L316.611 314.844L316.598 314.889V314.889Z" fill="#55DDCA"/>
<path d="M73.9013 215.551C69.1524 220.621 71.5112 231.079 79.157 238.783L112.137 272.037L132.878 279.34C131.965 275.891 131.418 272.564 131.326 269.615L131.104 263.348L131.026 129.265L73.9013 215.551V215.551Z" fill="#0081C6"/>
<path d="M281.064 130.987C277.615 130.106 274.308 129.561 271.31 129.467L264.687 129.239L131.026 129.256L316.629 314.845H316.645L332.946 278.068L281.064 130.987Z" fill="#0079B3"/>
<path d="M280.896 130.951C280.967 130.967 281.023 130.987 281.071 130.994L281.064 130.987C281.023 130.967 280.967 130.967 280.896 130.951ZM310.546 146.734C303.811 139.943 291.862 133.77 281.071 130.994L332.946 278.068L316.645 314.844H316.629L356.464 302.122L356.549 192.91L310.546 146.734V146.734Z" fill="#00A4E4"/>
<path d="M273.797 110.373L240.552 77.3721C232.864 69.7554 222.401 67.3854 217.345 72.1209L131.026 129.256L264.687 129.238L271.31 129.467C274.308 129.561 277.615 130.106 281.064 130.987L273.797 110.373V110.373Z" fill="#00D2B8"/>
</g>
<defs>
<clipPath id="clip0_419_6424">
<rect width="287" height="287" fill="white" transform="translate(70.5 69.6792)"/>
</clipPath>
</defs>
</svg>
