<svg width="528" height="284" viewBox="0 0 528 284" fill="none" xmlns="http://www.w3.org/2000/svg">
<g clip-path="url(#clip0_419_6570)">
<path fill-rule="evenodd" clip-rule="evenodd" d="M261.72 11.7362C261.912 11.0132 262.015 10.2535 262.015 9.46994C262.015 4.61494 258.076 0.679199 253.216 0.679199C248.357 0.679199 244.417 4.61494 244.417 9.46994C244.417 10.541 244.609 11.5673 244.96 12.5165L179.514 85.4459C178.706 85.2018 177.849 85.0704 176.961 85.0704C175.426 85.0704 173.983 85.463 172.727 86.1534L138.721 60.6729C138.793 60.2208 138.83 59.7568 138.83 59.2842C138.83 54.4291 134.891 50.4935 130.031 50.4935C125.172 50.4935 121.232 54.4291 121.232 59.2842C121.232 60.3103 121.409 61.2952 121.732 62.211L64.6478 123.995C63.9831 123.835 63.2894 123.75 62.5757 123.75C57.7161 123.75 53.7767 127.685 53.7767 132.54C53.7767 137.396 57.7161 141.331 62.5757 141.331C67.4349 141.331 71.3743 137.396 71.3743 132.54C71.3743 131.444 71.1733 130.394 70.8061 129.426L127.763 67.7798C128.487 67.9723 129.247 68.075 130.031 68.075C131.376 68.075 132.651 67.7736 133.791 67.2345L168.202 93.0191C168.176 93.2962 168.162 93.5772 168.162 93.8612C168.162 98.716 172.102 102.652 176.961 102.652C181.821 102.652 185.76 98.716 185.76 93.8612C185.76 92.9428 185.619 92.0573 185.358 91.225L251.071 17.9976C251.757 18.1694 252.476 18.2607 253.216 18.2607C254.243 18.2607 255.229 18.0849 256.146 17.7616L282.84 42.3792C282.65 43.0986 282.548 43.8538 282.548 44.633C282.548 49.4878 286.487 53.4238 291.347 53.4238C296.206 53.4238 300.146 49.4878 300.146 44.633C300.146 43.7255 300.008 42.8501 299.753 42.0268L308.209 33.578C309.327 34.091 310.57 34.3769 311.88 34.3769C313.351 34.3769 314.738 34.0163 315.956 33.3788L367.878 80.5355C367.697 81.2358 367.602 81.97 367.602 82.7262C367.602 87.5813 371.541 91.5169 376.399 91.5169C381.261 91.5169 385.2 87.5813 385.2 82.7262C385.2 82.5087 385.19 82.2931 385.177 82.0795L418.902 61.021C420.203 61.7796 421.715 62.2143 423.332 62.2143C424.916 62.2143 426.402 61.7957 427.686 61.0625L473.308 90.0667C473.229 90.5386 473.189 91.023 473.189 91.5169C473.189 96.372 477.129 100.308 481.987 100.308C486.849 100.308 490.788 96.372 490.788 91.5169C490.788 86.6618 486.849 82.7262 481.987 82.7262C480.676 82.7262 479.434 83.0125 478.314 83.5258L432.1 54.1428C432.12 53.9056 432.129 53.6657 432.129 53.4238C432.129 48.5687 428.19 44.633 423.332 44.633C418.47 44.633 414.531 48.5687 414.531 53.4238C414.531 53.6377 414.538 53.85 414.554 54.0599L380.819 75.1237C379.522 74.3681 378.013 73.9354 376.399 73.9354C375.345 73.9354 374.334 74.121 373.399 74.4609L320.628 26.5337C320.662 26.2225 320.679 25.9064 320.679 25.5864C320.679 20.7314 316.74 16.7956 311.88 16.7956C307.02 16.7956 303.081 20.7314 303.081 25.5864C303.081 26.0631 303.119 26.5311 303.192 26.9873L293.941 36.2303C293.121 35.9779 292.25 35.8423 291.347 35.8423C290.315 35.8423 289.325 36.0196 288.405 36.3458L261.72 11.7362ZM383.787 178.192C383.787 183.002 379.884 186.9 375.072 186.9C370.256 186.9 366.357 183.002 366.357 178.192C366.357 173.383 370.256 169.484 375.072 169.484C379.884 169.484 383.787 173.383 383.787 178.192ZM31.6372 281.983C42.4989 281.983 49.3058 277.353 53.0712 271.71H53.6506L55.5333 280.681H70.1605V173.61H53.6506V214.992H53.0712C49.3058 209.349 42.4989 204.719 31.6372 204.719C11.5066 204.719 0.644824 221.069 0.5 243.206C0.644824 266.646 12.3756 281.983 31.6372 281.983ZM35.6924 267.37C22.2236 267.37 17.2996 256.373 17.2996 243.206C17.2996 230.329 22.0788 219.332 35.6924 219.332C49.0159 219.332 54.2296 230.329 54.2296 243.206C54.2296 256.228 48.8714 267.37 35.6924 267.37ZM105.933 281.983C115.926 281.983 123.602 278.221 127.946 271.855H128.526L129.684 280.681H144.166V230.908C144.166 216.149 133.015 204.719 113.319 204.719C94.4921 204.719 83.3405 215.281 83.3405 229.461H98.9815C99.1264 223.384 103.906 218.32 113.029 218.32C123.457 218.32 127.801 224.107 127.801 231.052V237.997C123.891 236.84 117.229 235.538 110.423 235.538C88.9886 235.538 79.8646 245.666 79.8646 258.688C79.8646 271.855 89.423 281.983 105.933 281.983ZM109.698 268.816C100.719 268.816 96.3748 264.186 96.3748 258.109C96.3748 251.453 101.588 247.402 111.581 247.402C117.085 247.402 122.298 248.126 127.801 250.006V252.466C127.801 261.293 120.705 268.816 109.698 268.816ZM199.909 280.391C197.592 281.115 192.813 281.983 187.165 281.983C171.234 281.983 165.007 273.157 165.007 260.28V220.056H152.697V206.021H165.731V190.25L180.068 186.199H181.517V206.021H199.619V220.056H181.517V257.386C181.517 264.476 184.558 267.514 191.22 267.514C194.261 267.514 196.578 267.08 198.461 266.501H199.909V280.391ZM233.124 281.983C243.117 281.983 250.792 278.221 255.137 271.855H255.716L256.875 280.681H271.357V230.908C271.357 216.149 260.206 204.719 240.51 204.719C221.683 204.719 210.531 215.281 210.531 229.461H226.172C226.317 223.384 231.096 218.32 240.22 218.32C250.647 218.32 254.992 224.107 254.992 231.052V237.997C251.082 236.84 244.42 235.538 237.613 235.538C216.179 235.538 207.055 245.666 207.055 258.688C207.055 271.855 216.614 281.983 233.124 281.983ZM236.889 268.816C227.91 268.816 223.565 264.186 223.565 258.109C223.565 251.453 228.779 247.402 238.772 247.402C244.275 247.402 249.489 248.126 254.992 250.006V252.466C254.992 261.293 247.896 268.816 236.889 268.816ZM300.597 280.681H288.432V173.61H300.597V218.32H301.176C305.087 210.796 312.328 205.442 323.769 205.442C340.135 205.442 349.983 215.715 349.983 232.644V280.681H337.816V234.525C337.816 222.95 332.167 216.294 320.438 216.294C308.418 216.294 300.597 225.265 300.597 240.168V280.681ZM369.492 280.681H381.659V206.744H369.492V280.681ZM401.198 280.681V173.61H413.362V239.155V280.681H401.198ZM413.362 239.155L444.642 206.744H458.98V208.191L429.004 239.155L459.85 279.234V280.681H445.802L413.362 239.155ZM495.64 281.983C511.423 281.983 524.46 272.868 526.486 259.267H514.322C512.293 267.08 505.343 271.131 495.64 271.131C481.882 271.131 474.784 261.437 474.784 247.402H527.5V241.47C527.5 220.924 516.347 205.442 495.495 205.442C472.613 205.442 462.04 222.371 462.04 243.785C462.04 265.489 473.769 281.983 495.64 281.983ZM474.928 237.274C475.363 225.699 481.592 216.294 495.495 216.294C508.673 216.294 514.901 225.554 514.901 237.274H474.928Z" fill="#2E3D51"/>
</g>
<defs>
<clipPath id="clip0_419_6570">
<rect width="527" height="283" fill="white" transform="translate(0.5 0.679199)"/>
</clipPath>
</defs>
</svg>
