<svg width="341" height="342" viewBox="0 0 341 342" fill="none" xmlns="http://www.w3.org/2000/svg">
<g clip-path="url(#clip0_419_6548)">
<path d="M340.447 179.695C340.447 151.028 322.686 126.258 296.323 116.517C297.439 110.458 297.996 104.308 297.987 98.1466C297.987 44.9866 254.974 1.84741 201.97 1.84741C171.167 1.84741 142.307 16.5983 124.268 41.9256C115.388 34.967 104.565 31.3492 93.1872 31.3492C65.1584 31.3492 42.1261 54.1709 42.1261 82.5605C42.1261 88.6839 43.2364 94.8072 45.1781 100.374C18.5386 109.558 0.5 135.164 0.5 163.552C0.5 192.22 18.261 217.269 44.9005 227.01C43.7916 232.855 43.2364 238.978 43.2364 245.379C43.2364 298.26 86.2491 341.401 138.976 341.401C170.056 341.401 198.64 326.372 216.678 301.323C225.557 308.28 236.658 312.177 248.036 312.177C276.065 312.177 299.097 289.354 299.097 260.966C299.097 254.843 297.987 248.719 296.045 243.153C322.129 233.69 340.446 208.085 340.446 179.695H340.447Z" fill="white"/>
<path d="M133.425 147.687L209.186 182.479L285.777 115.125C286.894 109.535 287.451 103.847 287.441 98.1466C287.441 50.8328 249.146 12.4237 201.97 12.4237C173.664 12.4237 147.302 26.3394 131.484 49.7179L118.718 115.96L133.425 147.689V147.687Z" fill="#F4BD19"/>
<path d="M54.8907 228.124C53.7817 233.69 53.2266 239.535 53.2266 245.38C53.2266 292.694 91.7993 331.381 138.976 331.381C167.56 331.381 193.923 317.187 210.017 293.807L222.505 227.567L205.577 195.281L129.541 160.491L54.8907 228.124Z" fill="#3CBEB1"/>
<path d="M54.3371 96.4762L106.231 108.723L117.885 49.4395C110.671 43.8729 102.067 41.0903 92.9098 41.0903C70.4313 41.0903 51.8389 59.459 51.8389 82.2821C51.8389 87.0134 52.6716 92.0232 54.3357 96.4762H54.3371Z" fill="#E9478C"/>
<path d="M49.8957 109C26.5858 116.515 10.4902 139.06 10.4902 163.552C10.4902 187.489 25.1979 208.92 47.3988 217.269L120.383 151.027L107.062 122.362L49.8957 109.001V109Z" fill="#2C458F"/>
<path d="M223.338 293.529C230.552 299.097 239.156 302.158 248.036 302.158C270.514 302.158 289.107 283.789 289.107 260.966C289.107 255.956 288.274 251.224 286.61 246.771L234.716 234.525L223.338 293.529Z" fill="#95C63D"/>
<path d="M233.883 220.887L291.05 234.247C314.36 226.455 330.455 204.188 330.455 179.695C330.455 155.758 315.748 134.607 293.547 125.979L218.621 191.663L233.883 220.888V220.887Z" fill="#176655"/>
</g>
<defs>
<clipPath id="clip0_419_6548">
<rect width="340" height="341" fill="white" transform="translate(0.5 0.679199)"/>
</clipPath>
</defs>
</svg>
