<svg width="117" height="152" viewBox="0 0 117 152" fill="none" xmlns="http://www.w3.org/2000/svg">
<g clip-path="url(#clip0_419_6494)">
<path d="M34.9633 93.4674C30.5072 89.9477 25.7527 86.5748 22.5046 81.8219C15.667 73.4406 10.4038 63.739 6.80558 53.5423C4.63011 46.9112 3.88515 39.8024 1.07897 33.4288C-1.85242 28.7981 1.58399 23.7396 6.6351 22.2684C8.88233 21.8334 12.8361 19.7031 8.06333 21.2276C3.78369 24.3784 3.37144 18.3641 7.75894 17.9832C10.7534 17.5844 11.8558 15.1243 10.8307 12.9096C7.61498 10.8033 18.6253 8.49226 13.0847 5.35018C7.31699 -0.900019 21.1559 -2.10325 17.741 4.99637C16.9247 10.455 27.4145 3.99367 24.9785 10.2985C27.4533 13.3268 34.2434 10.9891 34.073 15.2349C37.6771 15.4836 38.9143 18.5265 42.2941 18.7606C45.8027 20.3511 52.1568 21.6021 53.3487 25.5692C49.8707 28.3332 41.8192 19.8592 41.4303 27.5113C42.4823 38.8176 42.2141 50.464 46.3324 61.2303C48.2802 67.7484 53.005 72.8794 57.2696 77.9571C61.3523 82.9288 66.881 86.4311 72.5175 89.3777C77.4603 91.7181 82.7893 93.2692 88.1777 94.2448C90.3623 92.567 94.2201 86.3288 97.6268 88.9574C97.7914 91.9168 90.8646 95.1392 97.3019 94.812C101.085 93.6657 103.706 97.7462 106.82 94.0644C109.689 97.4768 118.744 91.886 116.703 98.8599C113.942 100.649 109.916 99.568 107.152 102.029C102.595 99.7424 98.9659 104.073 93.9185 103.526C88.3153 104.534 82.6124 104.94 76.932 104.948C67.6104 104.21 58.0923 103.898 49.2249 100.639C44.2282 99.1816 39.354 96.3245 34.9633 93.4674ZM42.8352 96.8945C47.7126 99.01 52.4826 101.243 57.829 101.918C66.3106 103.1 75.0696 104.924 83.5809 103.262C79.729 101.516 75.7451 103.94 71.9079 102.014C67.3055 103.007 62.366 101.759 57.685 101.143C52.3652 98.7645 46.6221 97.129 41.64 94.0374C35.4116 91.7543 44.8589 96.9665 46.5412 97.3901C50.4324 99.6066 42.2611 96.252 41.1071 95.331C37.8476 93.4945 37.4326 93.8786 40.7854 95.7422C41.4604 96.1387 42.1272 96.5558 42.8352 96.8945ZM33.5529 90.3079C38.2809 92.0664 33.5318 86.9708 31.3683 87.2654C30.4085 85.5936 27.7015 84.5372 29.611 83.6401C26.1773 84.8378 26.0128 79.0878 24.3995 79.9106C20.7651 78.7583 22.9854 74.6769 18.655 72.169C18.2602 69.5276 14.3544 67.2382 13.1112 63.2558C12.5614 61.2156 8.69723 55.3614 11.0701 60.8099C13.0902 66.0551 16.6436 70.5509 19.6024 75.0371C21.8977 79.3095 24.6115 83.7782 28.7924 86.4431C30.2033 87.8023 31.5625 89.8816 33.5524 90.3079H33.5529ZM19.9375 75.295C20.1011 74.5778 20.8012 76.8461 19.9375 75.295V75.295ZM39.2164 92.4142C40.2621 91.9434 37.71 91.8204 39.2164 92.4142V92.4142ZM41.7803 93.3541C41.5148 92.0572 40.609 94.08 41.7803 93.3541V93.3541ZM44.9933 94.6986C46.5202 93.2361 42.635 93.7762 44.9933 94.6986V94.6986ZM50.4982 97.7792C51.4274 96.4021 47.5243 97.2607 50.4982 97.7792V97.7792ZM39.928 90.3804C42.3 88.8376 36.8586 90.3588 39.928 90.3804V90.3804ZM42.3366 91.5864C42.2675 90.7728 41.4787 91.9521 42.3366 91.5864V91.5864ZM54.377 99.133C56.3135 100.361 65.6831 101.822 59.8166 99.6368C58.8326 99.8443 48.9379 96.8252 54.377 99.133ZM35.2626 84.1834C35.0743 83.368 32.2554 83.2803 35.2626 84.1834V84.1834ZM40.8658 87.4669C42.327 86.4435 37.8385 86.6775 40.8658 87.4669V87.4669ZM45.5815 90.3685C47.6765 89.5764 42.1871 89.5732 45.5815 90.3685V90.3685ZM32.9793 81.6898C35.2507 83.4386 42.1428 81.9146 36.4578 80.6458C33.8728 79.2622 28.0452 78.3146 32.0177 81.4801L32.9793 81.6898ZM48.777 91.3702C49.724 89.7526 44.8077 90.4456 48.777 91.3702V91.3702ZM43.9768 87.5407C49.5298 89.1166 39.306 84.0118 42.6057 86.9589L43.3384 87.292L43.9768 87.5407ZM53.601 93.1255C58.8605 93.176 48.8488 92.3968 53.601 93.1255V93.1255ZM30.9565 78.6344C30.7499 77.6506 29.6594 78.7161 30.9565 78.6344V78.6344ZM62.4976 98.1367C62.6379 96.3608 60.7819 99.4602 62.4976 98.1367V98.1367ZM39.9339 84.1531C39.614 83.217 38.2905 84.1141 39.9339 84.1531V84.1531ZM31.4551 78.0168C34.4742 77.8341 27.319 76.6814 31.4551 78.0168V78.0168ZM21.4105 71.4986C21.0343 70.0439 18.1262 68.8856 21.4105 71.4986V71.4986ZM47.7789 88.3007C47.2259 87.6669 47.5184 88.4383 47.7789 88.3007V88.3007ZM64.1886 98.4134C64.1383 97.4438 63.2951 98.7787 64.1886 98.4134V98.4134ZM46.3264 86.7941C46.6226 85.5459 43.7506 86.4155 46.3264 86.7941V86.7941ZM34.0999 79.013C36.3476 78.7726 30.4985 77.4886 34.0999 79.013V79.013ZM54.7815 91.9168C58.2837 90.524 51.3684 91.2381 54.7815 91.9168V91.9168ZM44.0253 84.5859C48.0595 85.1072 39.2228 81.8279 43.1377 84.2913L44.0253 84.5859ZM58.047 93.2425C61.8161 90.9834 60.573 98.5392 64.4404 93.8818C68.2534 91.0853 61.1466 97.3387 65.8449 94.3802C69.2456 92.0962 74.2661 95.4632 77.4375 96.5586C79.7171 96.4475 81.9351 98.5392 84.2747 97.2662C88.7755 96.0478 75.4709 95.4604 78.958 93.3022C74.8402 94.5064 71.7982 91.8681 69.7717 89.2185C65.1511 88.1469 59.8107 85.7767 57.5036 81.6687C56.5621 80.1295 58.861 81.888 56.691 79.3673C53.9086 76.8824 52.5192 74.0583 50.6509 71.0369C48.4183 69.8424 48.1555 66.3226 47.9311 70.9203C47.9494 68.0183 45.2355 66.0647 44.5719 66.8752C44.56 64.0809 47.4772 65.4824 45.4357 63.4151C44.9969 60.519 43.55 57.5008 43.1162 54.2298C42.4417 52.6544 43.0203 49.2787 40.8096 52.8462C40.0052 56.6183 40.5436 48.2131 41.7959 50.983C43.4394 48.1562 41.2036 48.4889 41.114 48.8795C42.1844 46.4941 41.7927 43.1088 40.8334 44.3992C41.4042 41.8693 41.736 35.0909 39.9819 36.2942C41.0454 33.6477 41.9993 24.1884 37.3782 27.7963C35.5076 27.8229 32.2654 28.4777 30.7353 29.2427C35.5378 31.9016 30.2508 30.2027 28.2934 29.7796C28.0392 32.2403 26.1028 31.1779 23.6819 31.2018C27.5493 31.6818 21.7989 35.1712 19.5851 33.8157C16.704 35.196 22.0686 38.6469 19.6418 39.7148C19.9411 41.3205 15.2305 39.1334 15.5984 42.8481C12.8037 41.6651 15.2159 47.2531 16.6144 45.3629C21.3693 46.6561 19.9617 49.5999 20.081 52.3992C19.3068 54.0283 16.2556 48.5674 19.4023 48.8198C16.9188 44.7709 16.6564 47.355 14.5938 49.2365C14.1158 49.3719 19.8538 51.9128 16.2529 53.1674C19.4206 53.6598 19.5133 56.4444 20.1591 58.2061C22.0627 60.1977 21.6705 56.0057 23.9516 58.4011C22.5073 56.2673 16.3123 52.3896 21.3008 53.6332C21.2734 51.4874 20.3977 49.7555 21.9278 49.7973C23.4433 47.0457 20.341 56.5853 23.7541 53.0866C24.6979 52.6727 24.9346 50.3319 26.632 53.3087C29.0973 55.7455 27.5228 57.509 24.0439 55.277C24.6654 57.3984 28.6969 58.1543 27.9378 61.4707C28.7412 64.3875 29.8655 63.3127 30.8454 63.1448C31.6132 65.9776 32.0506 63.8951 32.0863 62.5445C35.6036 63.3017 34.7786 65.3897 35.881 66.8481C38.3046 67.9458 32.4117 59.4029 36.572 64.2792C40.9495 68.2491 38.2155 69.9053 34.2859 69.2697C36.7722 69.0678 37.5725 72.6458 40.6844 72.5196C43.5203 73.8757 45.4421 79.0791 40.5528 76.9122C38.8581 75.3758 32.8536 73.4824 37.7585 76.4024C42.2831 78.5087 45.8813 79.7661 50.2473 82.4102C53.3707 84.6488 54.7207 87.2135 55.9044 87.7215C53.2779 88.9812 47.9914 86.7161 51.9178 86.0232C49.4672 85.5757 46.7122 84.3307 49.0577 87.3943C51.054 89.0689 56.1256 88.8913 57.0374 89.0803C56.2664 90.7851 54.9428 90.9205 57.0671 91.0522C54.697 92.3215 57.8295 92.5198 58.0475 93.2425H58.047ZM53.1997 79.4962C51.7564 77.981 51.383 75.1454 52.9429 77.6111C53.7441 77.9355 55.5045 82.2483 53.1997 79.4962ZM68.9888 89.5668C69.8882 89.5071 69.0153 90.2533 68.9888 89.5668V89.5668ZM50.9233 75.7815C50.8657 73.4916 51.4424 77.5482 50.9233 75.7815V75.7815ZM49.3538 73.6627C47.5371 70.143 51.6399 74.659 49.3538 73.6627V73.6627ZM30.3345 60.4836C31.4016 60.1977 30.8605 62.3133 30.3345 60.4836V60.4836ZM45.4718 68.7204C46.1263 66.2506 46.2401 70.7914 45.4718 68.7204V68.7204ZM34.7786 61.2541C34.0259 59.8921 36.354 62.5331 34.7786 61.2541V61.2541ZM43.9535 64.2071C42.2351 60.3423 45.1729 62.0944 44.3361 64.8404L43.9535 64.2071ZM28.1293 53.6112C27.3615 52.3423 26.0909 48.6211 26.5004 47.4844C26.8679 49.3356 30.4186 55.4481 28.2394 50.0171C25.8341 45.4648 31.1178 51.4929 31.6617 52.6305C31.9158 53.7589 30.1763 52.3216 31.3536 54.9709C29.2051 51.955 30.0863 56.6367 28.1293 53.6112ZM23.24 50.2268C23.4401 47.277 24.3579 52.2491 23.24 50.2268V50.2268ZM25.4397 50.9885C26.4885 48.7629 27.2175 54.0916 25.4397 50.9885V50.9885ZM20.1468 46.8782C18.3264 45.0591 17.0083 43.3851 20.2332 45.7493C21.4735 45.7975 17.4722 41.9418 20.5325 44.525C23.7477 45.1137 22.1189 49.822 20.1468 46.8782ZM22.926 46.8061C23.9845 45.753 23.4881 47.8414 22.926 46.8061V46.8061ZM24.6385 47.355C23.0334 44.3391 26.5841 48.6216 24.6385 47.355V47.355ZM21.2377 44.0936C15.9453 39.3605 27.8871 46.5657 22.1015 44.9692L21.2377 44.0936ZM36.4043 52.9393C34.1123 51.5617 35.7946 43.2322 36.578 48.9276C38.8046 48.204 36.4546 51.8715 38.1136 51.8352C37.854 54.1481 37.1099 54.9805 36.4043 52.9393ZM42.0139 56.27C42.2378 53.7589 42.486 57.9872 42.0139 56.27V56.27ZM41.04 55.3008C41.2909 54.2297 41.0637 56.5642 41.04 55.3008V55.3008ZM22.2743 42.5389C18.8739 37.8273 32.1576 47.3036 24.4534 43.7334C23.649 43.5204 22.6783 43.4452 22.2743 42.5389ZM33.078 48.2888C32.7558 44.3217 33.7956 48.9451 33.078 48.2888V48.2888ZM41.2785 53.5721C41.912 51.313 41.327 55.0672 41.2785 53.5721V53.5721ZM22.7976 40.7413C24.8181 40.3063 31.1713 44.3033 25.3377 41.8817C24.6897 41.1612 23.3058 41.4884 22.7976 40.7409V40.7413ZM40.1515 49.4255C40.3677 45.3689 41.3599 47.0039 40.1606 50.0079L40.1515 49.4251V49.4255ZM24.3007 39.3284C25.1252 38.1155 22.1125 33.8459 24.7335 37.7975C25.867 38.7006 28.0118 39.31 26.1174 39.6909C29.0968 42.3291 25.3917 40.4054 24.3007 39.3284ZM39.2936 48.1594C39.8622 43.5383 39.7964 50.866 39.2936 48.1594V48.1594ZM22.5791 35.0611C23.2098 34.7903 22.9136 35.9036 22.5791 35.0611V35.0611ZM26.4913 37.3987C27.4977 35.2768 28.3468 39.763 26.4913 37.3987V37.3987ZM37.5217 43.559C37.5126 42.7458 37.7306 44.7443 37.5217 43.559V43.559ZM36.8819 42.1401C35.3517 38.3468 38.3078 44.1473 36.8819 42.1401V42.1401ZM35.9431 39.6519C35.6872 38.0852 36.8161 41.6206 35.9431 39.6519V39.6519ZM37.4733 37.1555C36.4217 35.2974 38.801 28.9633 39.067 32.8914C37.9577 35.9523 38.747 37.6631 39.5176 33.5578C40.9467 30.3289 39.21 39.9346 37.4733 37.1555ZM39.0455 27.7362C39.5034 27.1717 39.1474 28.4167 39.0455 27.7362V27.7362ZM36.4194 79.6881C35.7974 79.142 36.4994 80.0336 36.4194 79.6881V79.6881ZM41.8283 82.4341C44.8374 83.2115 44.8228 81.9656 42.1026 81.5934C40.6414 80.2286 36.024 78.779 40.1574 81.4255C40.4298 82.1221 41.2936 82.1037 41.8283 82.4341ZM31.1475 75.3097C32.8029 76.5529 37.3901 78.8267 33.5081 75.7847C34.817 74.2565 31.0035 73.4438 32.2682 72.421C29.0493 70.4426 29.7271 70.6198 31.9843 70.6831C28.1169 68.9453 32.5428 69.0774 32.334 68.1867C30.8427 67.8921 24.925 65.5453 28.4067 68.3785C24.8684 66.5686 27.5635 69.0536 26.494 68.7924C22.8743 67.8021 29.7161 71.5596 25.92 70.6262C27.9945 72.2764 31.5058 74.8572 26.7957 72.3723C26.1773 73.2695 30.1672 74.6292 31.1471 75.3097H31.1475ZM36.8042 78.5748C43.6811 80.7986 33.4299 75.8531 36.8042 78.5748V78.5748ZM65.7635 96.1891C65.8531 94.8179 64.8248 97.3593 65.7635 96.1891V96.1891ZM68.7402 97.4465C70.327 95.9046 68.806 99.9071 71.3699 97.0688C71.3964 95.0368 71.2922 93.8373 68.4234 96.3062C67.631 96.7476 67.279 98.6167 68.7402 97.447V97.4465ZM21.4914 67.653C21.0037 65.7293 18.0751 65.7376 21.4914 67.653V67.653ZM24.6677 69.7437C23.4872 67.7787 20.4566 67.9646 24.6677 69.7437V69.7437ZM42.7515 80.6935C44.5184 82.2694 50.8597 81.849 44.895 80.889C44.0129 79.5775 39.2882 79.8927 42.7515 80.6935ZM67.6072 96.1093C70.3238 93.8194 64.9747 97.1294 67.6072 96.1093V96.1093ZM73.2588 100.007C73.2762 99.2716 72.0875 100.328 73.2588 100.007V100.007ZM73.268 98.9774C76.2771 95.7789 70.3539 99.1665 73.268 98.9774V98.9774ZM13.6729 61.0807C11.109 57.4076 12.0802 55.757 9.60581 52.7562C9.13598 50.4608 5.36227 45.2574 7.65428 50.7697C9.75206 53.9957 10.3736 58.9885 13.6734 61.0807H13.6729ZM72.3233 97.96C77.8616 94.3678 70.0523 96.3966 72.3233 97.96V97.96ZM76.5495 99.6222C79.3227 97.2331 74.7949 99.1238 76.5495 99.6222V99.6222ZM20.5494 63.5917C21.3419 62.4064 18.4996 63.4389 20.5494 63.5917V63.5917ZM75.6674 98.4878C78.3511 96.7508 75.049 97.0174 75.1806 98.6465L75.6674 98.4878ZM39.2429 75.4359C39.1506 74.2598 37.8238 75.535 39.2429 75.4359V75.4359ZM41.4933 76.7355C40.7763 75.2831 40.3937 76.9636 41.4933 76.7355V76.7355ZM79.974 99.6616C83.4136 97.1703 77.8913 99.1839 79.2537 100.136L79.974 99.6616ZM78.6564 99.0224C81.4593 96.6664 75.7003 100.066 78.6564 99.0224V99.0224ZM85.3857 103.52C87.2664 102.257 83.1001 103.112 85.3857 103.52V103.52ZM22.2743 62.7368C24.7934 63.3036 32.3481 68.9691 27.8925 63.1301C25.6097 62.4518 26.9785 56.8491 24.6504 57.8394C26.2134 60.462 25.9346 61.5749 22.6531 59.9251C18.5325 57.9023 20.3374 60.9246 21.1449 61.7589C20.0444 62.0108 22.5969 62.7162 22.2738 62.7364L22.2743 62.7368ZM10.7891 53.63C11.2402 51.754 6.6319 43.319 8.61359 49.4017C9.32747 50.677 9.25344 53.0921 10.7891 53.63ZM31.8701 66.6797C30.5703 65.5907 31.8075 66.5236 31.8701 66.6797V66.6797ZM35.0647 67.4277C35.0647 65.4406 31.5328 66.62 35.0647 67.4277V67.4277ZM62.7691 84.9608C62.2403 83.6038 60.6804 84.9305 62.7691 84.9608V84.9608ZM64.099 85.9355C63.9011 85.1765 63.3303 86.0828 64.099 85.9355V85.9355ZM75.0787 92.8823C76.134 92.0994 73.7607 92.7809 75.0787 92.8823V92.8823ZM16.5243 55.1003C19.5453 53.9264 13.2872 54.2628 16.5243 55.1003V55.1003ZM60.3299 82.8086C60.2947 80.8463 58.4026 83.2982 60.3299 82.8086V82.8086ZM15.3315 52.306C17.2711 51.6498 13.5354 51.8747 15.3315 52.306V52.306ZM20.9621 55.0457C20.9288 54.4009 20.3675 55.2921 20.9621 55.0457V55.0457ZM89.6539 97.3414C92.1493 96.8344 97.8366 98.6172 98.7539 96.6788C95.7237 96.6035 88.2732 94.5298 87.9204 97.1703L88.584 97.2758L89.6544 97.3414H89.6539ZM22.7519 55.4991C22.7976 53.5093 21.2071 55.4243 22.7519 55.4991V55.4991ZM7.9477 45.1853C7.2754 41.3948 5.38924 44.6117 7.9477 45.1853V45.1853ZM11.4769 46.0765C11.5221 44.8581 8.24568 44.9811 11.4769 46.0765V46.0765ZM13.4942 47.0728C12.9115 46.5983 13.0399 47.6693 13.4942 47.0728V47.0728ZM26.1924 55.2499C26.7906 54.6974 24.776 54.8419 26.1924 55.2499V55.2499ZM12.1524 44.8283C11.8092 41.9657 8.06104 44.3992 12.1524 44.8283V44.8283ZM4.91072 40.1108C4.80881 38.7906 4.20507 40.6087 4.91072 40.1108V40.1108ZM5.98932 39.2954C5.81336 37.7282 5.06292 39.4927 5.98932 39.2954V39.2954ZM11.9376 42.8596C14.454 41.8693 7.35539 40.807 11.4234 42.6738L11.9376 42.8596ZM91.5643 92.2463C93.1749 90.764 89.52 91.7874 91.5643 92.2463V92.2463ZM101.184 97.2515C101.83 95.3374 99.5582 97.5039 101.184 97.2515V97.2515ZM12.5454 39.7299C12.8119 37.876 10.5496 40.0989 12.5454 39.7299V39.7299ZM4.07984 34.035C3.62555 31.4184 3.68817 26.8239 8.03682 28.3754C2.23252 29.5337 12.0564 35.6214 10.816 30.8145C13.2575 30.9351 15.592 29.3657 14.3096 31.7446C19.1212 31.2137 22.4539 27.0249 27.1005 27.6132C30.7193 27.1304 34.6763 26.767 38.5766 25.3026C41.7831 25.0713 44.8699 21.6053 43.1135 19.5499C38.7411 19.1782 34.1621 19.727 29.3299 20.6934C23.9749 21.8095 19.1098 23.9337 13.7058 24.8465C8.43672 25.5578 14.7639 26.8028 13.2543 27.0818C10.5075 28.039 16.533 28.6842 12.8987 29.6952C10.6547 29.2666 8.31744 28.4924 9.27674 26.1158C4.23203 26.7757 -0.202998 28.8761 3.78414 34.0313L4.0803 34.0341L4.07984 34.035ZM16.2405 27.8169C17.421 23.4423 22.5759 31.4184 18.177 28.3993C17.6537 28.0028 16.7867 27.6816 16.2405 27.8169ZM16.47 25.695C18.177 24.4202 17.3758 26.4127 16.47 25.695V25.695ZM18.6367 25.7317C18.793 23.718 23.6015 26.7968 19.4292 26.4549L18.6367 25.7312V25.7317ZM21.6015 24.5344C22.6865 23.2614 21.9159 25.6624 21.6015 24.5344V24.5344ZM22.3611 24.0246C24.1659 21.849 32.5725 22.6346 26.4191 23.8107C24.7692 22.5625 23.5055 24.5459 22.3611 24.0246ZM33.3344 22.3258C33.0629 16.3807 38.7886 24.4353 33.3344 22.3258V22.3258ZM36.4491 22.3074C37.5871 19.3131 40.8686 21.1046 36.9779 21.7044C37.061 22.0256 36.8613 23.2532 36.4491 22.3074ZM11.3183 38.1935C14.7186 36.1019 7.70776 36.3786 11.3183 38.1935V38.1935ZM13.8343 38.8929C15.0271 37.6208 11.2402 38.3766 13.8343 38.8929V38.8929ZM6.42304 33.6147C8.36542 32.1141 4.12189 33.0447 6.42304 33.6147V33.6147ZM106.862 96.7054C106.919 94.9648 105.377 97.4883 106.862 96.7054V96.7054ZM96.6561 89.7104C96.9458 87.7096 95.3444 89.8848 96.6561 89.7104V89.7104ZM109.668 97.3809C112.385 97.3901 117.901 96.531 111.99 96.5342C111.061 96.6788 106.584 96.6489 109.668 97.3809ZM16.0463 37.6649C18.246 37.5148 19.4859 35.2309 15.6185 35.3603C9.62683 34.7394 20.905 37.4221 14.8507 36.6539C14.0381 37.1941 15.9978 37.8149 16.0463 37.6649ZM17.9827 38.6497C17.7524 37.2331 17.3008 39.4023 17.9827 38.6497V38.6497ZM20.2807 32.4977C21.2341 31.3091 18.9599 32.1797 20.2807 32.4977V32.4977ZM12.9645 20.2222C16.8918 18.884 22.2592 17.3774 24.1124 20.883C22.2263 18.6055 23.3506 16.3605 25.1316 19.6944C27.6508 23.0646 28.9113 18.1612 27.2737 17.0296C29.1421 19.3581 31.2636 20.4599 28.5228 17.1774C31.5026 13.5791 22.5608 17.6482 20.5289 17.606C19.5517 18.0465 10.4335 19.9404 12.965 20.2222H12.9645ZM15.2657 15.7998C17.5047 14.1046 23.0092 16.8107 19.4768 14.1128C19.1303 13.8072 11.7429 16.1595 15.2657 15.7998ZM23.4278 16.1384C26.0457 16.2045 22.2985 12.6035 25.4182 14.2358C24.9072 12.5558 21.7843 12.2405 20.2574 11.5687C19.3936 13.1051 22.0137 16.1595 23.4278 16.1384ZM16.6971 8.69922C17.6029 7.46616 15.1075 9.32653 16.6971 8.69922V8.69922ZM20.0334 9.5C24.2555 8.93922 18.9567 7.67588 19.1806 9.45548L20.033 9.5H20.0334ZM13.8041 4.60906C10.8302 0.711173 19.3959 5.26345 16.374 1.182C13.8311 -0.849081 11.3896 3.47191 13.8041 4.60906ZM51.9525 25.2398C53.3163 22.8145 46.3255 21.9687 51.0352 24.3807C51.4685 24.5252 51.3707 25.4073 51.9525 25.2398ZM24.2719 115.561C23.9703 116.757 23.7834 118.763 23.7134 121.58C23.7134 122.133 23.4653 122.411 22.9676 122.411C22.4699 122.411 22.1234 122.169 21.9274 121.687C21.3945 120.385 20.8899 119.477 20.4082 118.958C19.8406 118.353 19.0855 117.986 18.1436 117.862C17.1313 117.701 14.6094 117.621 10.5775 117.621C9.65425 117.621 9.0496 117.719 8.76624 117.916C8.58846 118.04 8.49979 118.308 8.49979 118.719V130.838C8.49979 131.248 8.7571 131.444 9.27126 131.427C10.853 131.408 13.1441 131.3 16.145 131.105C16.7318 131.033 17.1276 130.841 17.3315 130.529C17.5371 130.217 17.7368 129.411 17.9311 128.108C18.0545 127.395 18.4731 127.118 19.1834 127.28C19.7866 127.404 20.0462 127.681 19.9571 128.108C19.4589 130.535 19.2981 133.692 19.4759 137.58C19.4946 138.043 19.2016 138.293 18.597 138.329C18.0988 138.383 17.788 138.115 17.6646 137.526C17.204 135.297 16.3452 134.106 15.0943 133.953C13.842 133.803 11.8023 133.727 8.97922 133.727C8.6593 133.727 8.49979 133.842 8.49979 134.074V146.113C8.49979 147.005 8.82748 147.612 9.48424 147.932C10.0007 148.2 11.1104 148.441 12.8146 148.655C13.6862 148.744 14.0669 149.129 13.9618 149.805C13.8544 150.394 13.0738 150.626 11.6158 150.501C7.40657 150.162 3.93313 150.18 1.19872 150.556C0.434104 150.661 0.0533967 150.349 0.0533967 149.619C0.0533967 149.154 0.434104 148.887 1.19872 148.816C2.93955 148.619 3.80928 147.085 3.80928 144.215V121.312C3.80928 120.136 3.59996 119.231 3.1836 118.598C2.76542 117.964 1.98801 117.388 0.852744 116.872C0.141604 116.55 -0.124388 116.114 0.0529397 115.561C0.141604 115.222 0.284198 115.034 0.478436 114.999C0.656221 114.945 1.12788 114.981 1.89021 115.107C3.00993 115.285 5.64837 115.374 9.80416 115.374C14.7076 115.374 18.943 115.266 22.5142 115.053C23.7038 114.981 24.2998 115.079 24.2998 115.347C24.2998 115.419 24.2907 115.489 24.2719 115.561ZM41.5509 149.522C41.5509 150.236 41.151 150.548 40.3521 150.458C37.9024 150.226 34.8641 150.261 31.2408 150.564C30.5118 150.637 30.0644 150.618 29.8943 150.513C29.7252 150.405 29.6421 150.111 29.6421 149.628C29.6421 149.201 30.1251 148.84 31.0931 148.545C32.0625 148.252 32.5451 147.373 32.5451 145.911V121.698C32.5451 120.253 32.3363 119.192 31.9199 118.514C31.5017 117.836 30.7691 117.31 29.7216 116.936C29.1704 116.739 28.8944 116.463 28.8944 116.106C28.8944 115.571 29.2943 115.17 30.0936 114.902C31.302 114.51 32.5547 113.904 33.8518 113.083C34.9176 112.441 35.5931 112.121 35.876 112.121C36.5327 112.121 36.8627 112.574 36.8627 113.484C36.8627 113.414 36.827 114.306 36.7548 116.159C36.7032 117.925 36.6849 119.664 36.7032 121.377L36.8083 145.267C36.8083 146.356 37.0752 147.146 37.6081 147.636C38.141 148.126 39.0569 148.452 40.3521 148.612C41.151 148.7 41.5509 149.004 41.5509 149.522V149.522ZM65.6497 147.945C65.6497 148.32 64.9706 148.885 63.6123 149.643C62.2526 150.401 61.1644 150.78 60.3482 150.78C59.6544 150.78 59.0424 150.442 58.5095 149.764C57.9766 149.086 57.6023 148.748 57.3898 148.748C57.2303 148.748 56.3866 149.113 54.8578 149.844C53.3318 150.575 51.7944 150.942 50.2491 150.942C48.793 150.942 47.5755 150.513 46.5988 149.658C45.533 148.712 45.0001 147.428 45.0001 145.804C45.0001 142.719 48.5174 140.508 55.5521 139.17C56.7586 138.938 57.3729 138.447 57.3893 137.698L57.4437 135.986C57.5507 133.061 56.2628 131.599 53.58 131.599C52.8158 131.599 52.0923 132.285 51.4073 133.658C50.7249 135.033 49.7423 135.772 48.4635 135.88C47.0074 136.021 46.2785 135.406 46.2785 134.033C46.2785 133.176 47.3625 132.179 49.5293 131.036C51.8035 129.842 53.989 129.244 56.085 129.244C59.69 129.244 61.4752 130.966 61.44 134.408L61.3326 145.429C61.3162 146.589 61.8047 147.168 62.7983 147.168C62.9944 147.168 63.3678 147.124 63.9176 147.035C64.4692 146.946 64.7891 146.901 64.8783 146.901C65.3924 146.901 65.6497 147.25 65.6497 147.945ZM57.4437 141.846C57.462 141.399 57.3583 141.104 57.1361 140.963C56.914 140.82 56.5649 140.792 56.085 140.881C51.8035 141.649 49.6628 143.049 49.6628 145.082C49.6628 147.133 50.7729 148.158 52.9932 148.158C53.8816 148.158 54.7975 147.99 55.7372 147.651C56.84 147.258 57.3898 146.786 57.3898 146.232L57.4437 141.845V141.846ZM85.4593 144.867C85.4593 146.757 84.7335 148.261 83.287 149.375C81.8396 150.491 79.8638 151.048 77.3584 151.048C75.6893 151.048 74.0184 150.87 72.3493 150.513C70.9097 150.191 70.0752 149.898 69.8444 149.63C69.7018 149.379 69.6314 148.159 69.6314 145.964C69.6314 145.019 69.8444 144.528 70.2712 144.493C70.6972 144.439 71.0619 144.672 71.3635 145.188C72.6953 147.525 74.8452 148.694 77.8118 148.694C80.3149 148.694 81.5677 147.819 81.5677 146.07C81.5677 145.305 81.2843 144.662 80.7148 144.145C80.0928 143.557 78.8867 142.87 77.0919 142.085C74.4978 140.926 72.7657 139.91 71.896 139.035C70.954 138.108 70.4837 136.859 70.4837 135.289C70.4837 133.362 71.2209 131.865 72.6953 130.795C74.0628 129.76 75.8927 129.244 78.1833 129.244C79.623 129.244 80.937 129.358 82.1284 129.591C83.4072 129.823 84.0731 130.108 84.1266 130.447C84.2673 131.445 84.5617 132.89 85.0059 134.782C85.0594 135.012 84.8094 135.2 84.26 135.343C83.6732 135.468 83.2829 135.369 83.0868 135.049C81.6842 132.747 79.9082 131.597 77.7578 131.597C75.3246 131.597 74.1075 132.382 74.1075 133.951C74.1075 134.826 74.4366 135.521 75.0934 136.038C75.6802 136.484 77.0563 137.18 79.2235 138.126C81.4973 139.107 83.0425 139.99 83.8606 140.774C84.9264 141.79 85.4593 143.156 85.4593 144.867ZM116.806 149.549C116.806 150.173 116.388 150.503 115.553 150.539C114.309 150.557 112.683 150.646 110.677 150.806C109.682 151.003 108.971 150.879 108.546 150.433C105.739 147.401 103.358 144.226 101.403 140.907C101.244 140.623 101.04 140.48 100.791 140.48C100.489 140.48 99.9659 140.748 99.22 141.283C98.3837 141.746 97.9673 142.407 97.9673 143.261C97.9673 143.869 97.9838 144.742 98.0208 145.885C98.0564 147.025 98.3393 147.774 98.8722 148.131C99.2456 148.382 100.109 148.577 101.457 148.72C102.292 148.828 102.71 149.14 102.71 149.656C102.71 150.067 102.643 150.322 102.51 150.418C102.377 150.516 102.025 150.539 101.457 150.485C99.6807 150.325 96.6794 150.414 92.4519 150.753C91.3861 150.842 90.8084 150.708 90.7197 150.351C90.6845 150.227 90.6658 150.048 90.6658 149.816C90.6658 149.264 91.2083 148.844 92.2928 148.56C93.2695 148.309 93.7576 147.159 93.7576 145.108V121.725C93.7576 120.263 93.6159 119.246 93.3303 118.676C92.94 117.944 92.1219 117.373 90.8788 116.963C90.2938 116.768 89.9999 116.491 89.9999 116.134C89.9999 115.616 90.4181 115.215 91.2522 114.931C92.5949 114.48 93.8751 113.859 95.062 113.084C96.0396 112.443 96.6442 112.121 96.8736 112.121C97.6031 112.121 97.9673 112.584 97.9673 113.513C97.9673 113.387 97.9582 114.271 97.9394 116.161C97.9203 117.909 97.9117 119.657 97.9138 121.405L97.9673 138.152C97.9673 138.617 98.0912 138.847 98.3393 138.847C98.6058 138.847 99.0148 138.617 99.566 138.152C101.04 136.993 102.852 135.477 105.001 133.604C105.428 133.158 105.64 132.801 105.64 132.534C105.64 132.053 104.921 131.712 103.483 131.518C102.862 131.445 102.567 131.098 102.602 130.473C102.656 129.849 102.967 129.582 103.535 129.671C104.815 129.85 106.681 129.948 109.13 129.966C110.836 129.983 112.533 129.993 114.221 129.993C114.77 130.011 115.046 130.34 115.046 130.983C115.046 131.589 114.611 131.919 113.741 131.973C112.372 132.025 111.084 132.337 109.878 132.909C108.19 133.675 106.386 135.022 104.468 136.948C104.327 137.056 104.255 137.189 104.255 137.35C104.255 137.599 104.556 138.197 105.161 139.142C107.382 142.531 109.478 145.09 111.449 146.821C112.711 147.908 113.891 148.452 114.992 148.452C115.81 148.452 116.317 148.51 116.511 148.627C116.707 148.743 116.806 149.051 116.806 149.549Z" fill="black"/>
</g>
<defs>
<clipPath id="clip0_419_6494">
<rect width="117" height="151" fill="white" transform="translate(0 0.149902)"/>
</clipPath>
</defs>
</svg>
