<svg width="285" height="85" viewBox="0 0 285 85" fill="none" xmlns="http://www.w3.org/2000/svg">
<g clip-path="url(#clip0_419_6573)">
<path d="M82.2475 28.9296C84.6683 21.4884 83.2121 6.64314 78.5221 1.16255C77.9073 0.443631 76.7632 0.546334 76.2526 1.33995L70.4749 10.2937C69.0471 12.0864 66.4752 12.4972 64.5365 11.2461C58.2673 7.19399 50.7781 4.84118 42.7312 4.84118C34.684 4.84118 27.1949 7.19399 20.9256 11.2461C18.9966 12.4972 16.4245 12.077 14.9872 10.2937L9.20961 1.33995C8.699 0.546334 7.55482 0.452968 6.94017 1.16255C2.25002 6.65247 0.793794 21.4977 3.21453 28.9296C4.01827 31.4038 4.23577 34.0182 3.76299 36.5578C3.29017 39.0784 2.81737 42.1223 2.81737 44.2416C2.81737 66.0054 20.6892 83.6423 42.7215 83.6423C64.7634 83.6423 82.6257 65.996 82.6257 44.2416C82.6257 42.1223 82.1529 39.0784 81.6801 36.5578C81.217 34.0182 81.4438 31.4038 82.2475 28.9296ZM42.7215 74.8472C25.6819 74.8472 11.8289 61.1595 11.8289 44.3349C11.8289 43.7843 11.8478 43.2426 11.8762 42.701C12.4908 31.2358 19.545 21.4417 29.5211 16.7733C33.5209 14.8874 38.0031 13.8417 42.7312 13.8417C47.459 13.8417 51.9319 14.8874 55.941 16.7827C65.9172 21.451 72.9713 31.2545 73.5858 42.7103C73.6142 43.252 73.6332 43.8029 73.6332 44.3443C73.6239 61.1595 59.7612 74.8472 42.7215 74.8472Z" fill="#1EB4D4"/>
<path d="M56.1112 56.0804L48.2154 42.561L41.445 31.2917C41.2843 31.0209 40.9912 30.8622 40.6791 30.8622H34.2111C33.8896 30.8622 33.5966 31.0302 33.4359 31.3103C33.2751 31.5811 33.2845 31.9173 33.4452 32.188L39.9226 42.9344L31.2325 56.0243C31.0529 56.295 31.0434 56.6407 31.1947 56.9207C31.346 57.2007 31.6486 57.378 31.9797 57.378H38.4948C38.7972 57.378 39.0809 57.2287 39.2416 56.9767L43.9414 49.7315L48.1586 56.9487C48.3193 57.2193 48.6127 57.3873 48.9248 57.3873H55.3454C55.6668 57.3873 55.9599 57.2193 56.1112 56.9487C56.272 56.6873 56.272 56.351 56.1112 56.0804Z" fill="#1EB4D4"/>
<path d="M119.429 21.6837H127.665V66.2754H119.429V47.2752H110.124V66.2847H101.888V21.6837H110.124V41.0477H119.429V21.6837Z" fill="#1B2738"/>
<path d="M153.072 66.2845L151.352 57.0227H141.47L139.891 66.2845H131.655L140.742 21.6929H151.834L161.356 66.2845H153.072ZM142.548 50.8698H150.207L146.274 29.5263L142.548 50.8698Z" fill="#1B2738"/>
<path d="M179.701 58.1523V48.6102C179.701 47.8539 179.56 47.3499 179.276 47.0886C178.992 46.8269 178.463 46.6963 177.697 46.6963H171.9C166.983 46.6963 164.524 44.3433 164.524 39.6285V28.686C164.524 24.0177 167.097 21.6929 172.25 21.6929H180.127C185.28 21.6929 187.852 24.027 187.852 28.686V34.9042H179.55V29.8157C179.55 29.0595 179.408 28.5553 179.125 28.2939C178.841 28.0324 178.311 27.9017 177.545 27.9017H174.822C174.009 27.9017 173.46 28.0324 173.177 28.2939C172.893 28.5553 172.751 29.0595 172.751 29.8157V38.7881C172.751 39.5445 172.893 40.0488 173.177 40.3101C173.46 40.5714 174.009 40.7021 174.822 40.7021H180.477C185.488 40.7021 187.994 43.0084 187.994 47.6299V59.2913C187.994 63.9598 185.394 66.2845 180.193 66.2845H172.458C167.257 66.2845 164.657 63.9505 164.657 59.2913V53.1385H172.884V58.1523C172.884 58.9086 173.025 59.4126 173.309 59.6743C173.593 59.9356 174.141 60.0663 174.954 60.0663H177.678C178.444 60.0663 178.964 59.9356 179.257 59.6743C179.55 59.4126 179.701 58.9086 179.701 58.1523Z" fill="#1B2738"/>
<path d="M209.969 21.6837H218.196V59.2822C218.196 63.9505 215.595 66.2754 210.394 66.2754H201.666C196.466 66.2754 193.865 63.9411 193.865 59.2822V21.6837H202.101V58.1526C202.101 58.9089 202.243 59.4129 202.527 59.6742C202.811 59.9359 203.34 60.0666 204.106 60.0666H207.898C208.711 60.0666 209.26 59.9359 209.543 59.6742C209.827 59.4129 209.969 58.9089 209.969 58.1526V21.6837Z" fill="#1B2738"/>
<path d="M233.231 48.8998V66.2847H225.004V21.6837H241.609C246.809 21.6837 249.41 24.0179 249.41 28.6768V41.8974C249.41 45.7629 247.67 48.0222 244.181 48.6852L251.698 66.2847H242.819L235.944 48.8998H233.231ZM233.231 27.9019V42.8873H239.169C239.935 42.8873 240.455 42.7563 240.748 42.495C241.032 42.2337 241.174 41.7294 241.174 40.973V29.8159C241.174 29.0597 241.032 28.5555 240.748 28.294C240.464 28.0326 239.935 27.9019 239.169 27.9019H233.231Z" fill="#1B2738"/>
<path d="M274.317 66.2845L272.596 57.0227H262.715L261.136 66.2845H252.909L261.996 21.6929H273.088L282.61 66.2845H274.317ZM263.802 50.8698H271.461L267.528 29.5263L263.802 50.8698Z" fill="#1B2738"/>
</g>
<defs>
<clipPath id="clip0_419_6573">
<rect width="284" height="84" fill="white" transform="translate(0.5 0.679199)"/>
</clipPath>
</defs>
</svg>
