<svg width="193" height="194" viewBox="0 0 193 194" fill="none" xmlns="http://www.w3.org/2000/svg">
<g clip-path="url(#clip0_419_6432)">
<path d="M41.9691 155.714L31 23.4646L162 23.7304L150.401 155.714L96.9944 170.97L41.9691 155.714Z" fill="#E9CA32"/>
<path d="M96.9944 158.198V36.0596L150.941 36.2367L141.321 145.513L96.9944 158.198Z" fill="#FFDE25"/>
<path d="M91.2177 50.5618H76.9556V131.854L65.8629 129.769V118.826L52.6572 116.742V141.234L91.2177 151.135V50.5618ZM101.916 50.5618H141.399L138.758 66.1428H116.989V91.7112H138.758L136.117 143.318L101.916 151.135V134.98L125.024 127.164L126.358 105.799L101.916 109.29V50.5618Z" fill="white"/>
</g>
<defs>
<clipPath id="clip0_419_6432">
<rect width="131" height="148" fill="white" transform="translate(31 23.2173)"/>
</clipPath>
</defs>
</svg>
