<svg width="378" height="102" viewBox="0 0 378 102" fill="none" xmlns="http://www.w3.org/2000/svg">
<path d="M45.9827 41.3322C40.795 18.5938 29.9825 12.5405 27.2243 8.26146C26.087 6.37644 25.0794 4.41705 24.2086 2.39673C24.0629 4.41673 23.7952 5.68933 22.0671 7.22116C18.5974 10.2949 3.86111 22.2264 2.62095 48.0622C1.46549 72.1507 20.4441 87.0044 22.9515 88.5396C24.8795 89.4823 27.2277 88.5598 28.373 87.6946C37.5218 81.4562 50.0217 64.8248 45.9928 41.3322" fill="#10AA50"/>
<path d="M24.995 75.7126C24.5172 81.675 24.175 85.1393 22.9619 88.5464C22.9619 88.5464 23.7582 94.2226 24.3173 100.235H26.2961C26.7681 96.0013 27.4889 91.7981 28.4546 87.6475C25.8929 86.3951 25.0932 80.9444 24.995 75.7126Z" fill="#B8C4C2"/>
<path d="M28.4509 87.6511C25.8621 86.4626 25.1133 80.8975 24.9981 75.7129C25.6383 67.1604 25.8249 58.5803 25.5572 50.0084C25.4216 45.5105 25.6216 8.34922 24.4424 2.90869C25.249 4.75134 26.1784 6.53852 27.2243 8.25833C29.9825 12.5407 40.7983 18.594 45.9826 41.3325C50.0216 64.7847 37.5895 81.3722 28.4509 87.6511Z" fill="#12924F"/>
<path d="M369.666 79.4296C368.557 79.4295 367.474 79.1038 366.551 78.4934C365.628 77.8831 364.908 77.0153 364.48 75.9992C364.053 74.9832 363.937 73.8641 364.147 72.7829C364.358 71.7016 364.886 70.7063 365.664 69.9222C366.443 69.1381 367.437 68.6001 368.522 68.376C369.607 68.1518 370.735 68.2514 371.764 68.6623C372.792 69.0732 373.675 69.777 374.302 70.6853C374.929 71.5935 375.272 72.6657 375.287 73.7669C375.307 74.5094 375.176 75.2484 374.902 75.9394C374.628 76.6304 374.215 77.2591 373.69 77.788C373.165 78.3168 372.538 78.7349 371.847 79.017C371.155 79.2991 370.413 79.4394 369.666 79.4296ZM369.666 68.764C368.653 68.7574 367.661 69.0495 366.815 69.6035C365.97 70.1574 365.309 70.9482 364.916 71.8757C364.523 72.8033 364.416 73.8258 364.609 74.8137C364.801 75.8017 365.284 76.7107 365.997 77.4255C366.71 78.1404 367.62 78.629 368.613 78.8294C369.605 79.0298 370.635 78.9331 371.573 78.5514C372.51 78.1697 373.312 77.5202 373.877 76.6853C374.443 75.8503 374.746 74.8675 374.748 73.8612C374.762 73.1922 374.64 72.5274 374.389 71.9061C374.139 71.2849 373.766 70.7199 373.292 70.2445C372.818 69.7692 372.253 69.3933 371.63 69.1389C371.007 68.8846 370.339 68.7571 369.666 68.764ZM371.021 77.376L369.571 74.2685H368.402V77.376H367.551V70.306H369.649C371.211 70.306 371.862 70.9793 371.862 72.2822C371.862 73.3191 371.37 73.9655 370.455 74.1642L371.953 77.3659L371.021 77.376ZM368.436 73.538H369.666C370.662 73.538 371.041 73.2013 371.041 72.299C371.041 71.3968 370.679 71.0904 369.557 71.0904H368.436V73.538Z" fill="#21313C"/>
<path d="M286.002 74.3391C287.524 75.5477 290.563 76.046 293.243 76.046C296.716 76.046 300.122 75.4063 303.449 72.4201C306.838 69.3598 309.169 64.6768 309.169 57.1994C309.169 50.0149 306.417 44.1839 300.772 40.7701C297.587 38.7804 293.46 37.9959 288.754 37.9959C287.398 37.9959 286.002 38.0666 285.209 38.4235C284.884 38.6785 284.654 39.0339 284.555 39.4335C284.413 40.7128 284.413 50.456 284.413 56.2163C284.413 62.1215 284.413 70.3563 284.555 71.3663C284.63 72.2215 285.064 73.723 286.002 74.3526M271.554 34.7976C272.784 34.7976 277.46 35.0097 279.635 35.0097C283.701 35.0097 286.51 34.7976 294.111 34.7976C300.481 34.7976 305.841 36.5045 309.674 39.7735C314.309 43.7597 316.789 49.3046 316.789 56.0615C316.789 65.6632 312.384 71.2115 307.956 74.3391C303.551 77.6115 297.821 79.4598 289.658 79.4598C285.314 79.4598 277.856 79.3184 271.632 79.2477H271.503C271.212 78.6787 272.035 76.4601 272.543 76.4029C274.237 76.2143 274.685 76.147 275.464 75.8272C276.779 75.2919 277.087 74.6253 277.233 72.2787C277.45 67.8684 277.379 62.6063 277.379 56.6304C277.379 52.3649 277.45 44.0425 277.307 41.4097C277.087 39.2079 276.152 38.639 274.258 38.2114C272.915 37.9279 271.557 37.7144 270.192 37.5717C270.049 37.1442 271.161 35.2151 271.523 34.7976" fill="#21313C"/>
<path d="M334.731 38.4066C334.443 38.4773 334.08 39.1911 334.08 39.5446C334.006 42.1066 333.935 48.7894 333.935 53.4118C333.953 53.5002 333.997 53.5812 334.062 53.6447C334.126 53.7082 334.208 53.7513 334.297 53.7687C335.236 53.8394 337.553 53.9135 339.509 53.9135C342.26 53.9135 343.853 53.5566 344.72 53.1291C347.038 51.9911 348.108 49.4998 348.108 46.7997C348.108 40.6118 343.764 38.2652 337.323 38.2652C336.452 38.2543 335.582 38.3015 334.717 38.4066M351.151 66.8549C351.151 60.5963 346.516 57.0411 338.045 57.0411C337.686 57.0411 334.995 56.9704 334.355 57.1118C334.138 57.1825 333.921 57.3239 333.921 57.4687C333.921 61.9497 333.847 69.1308 334.067 71.9757C334.212 73.1843 335.083 74.8912 336.164 75.3895C337.323 76.0291 339.929 76.1705 341.738 76.1705C346.733 76.1705 351.151 73.3997 351.151 66.8549ZM321.652 34.9221C322.306 34.9221 324.23 35.1342 329.154 35.1342C333.786 35.1342 337.55 34.9928 342.03 34.9928C347.604 34.9928 355.275 36.9859 355.275 45.2342C355.275 49.2742 352.381 52.5601 348.617 54.1256C348.4 54.1963 348.4 54.3377 348.617 54.4084C353.974 55.755 358.677 59.0308 358.677 65.2894C358.677 71.4067 354.841 75.248 349.267 77.6653C345.879 79.1601 341.667 79.655 337.408 79.655C334.152 79.655 325.423 79.3183 320.571 79.3722C320.062 79.1601 321.035 76.8809 321.469 76.5274C322.58 76.4934 323.683 76.3215 324.752 76.0156C326.487 75.5914 326.694 75.0359 326.91 72.4739C327.056 70.2687 327.056 62.3739 327.056 56.7549C327.056 49.0722 327.131 43.8842 327.056 41.3222C326.985 39.3325 326.26 38.6894 324.884 38.3359C323.8 38.1205 321.99 37.9084 320.544 37.6963C320.181 37.3394 321.296 35.2049 321.655 34.9221" fill="#21313C"/>
<path d="M62.0133 79.4295C61.8268 78.9743 61.7514 78.4817 61.793 77.992C61.7768 77.6581 61.8529 77.3263 62.0133 77.0325C62.9495 76.8983 63.8773 76.7106 64.7918 76.4702C66.0726 76.1538 66.5538 75.4602 66.6283 73.8375C66.8384 70.0029 66.8519 62.8083 66.7774 57.7516V57.6034C66.7774 57.058 66.7774 56.3174 66.0997 55.7955C64.9086 55.0531 63.6155 54.486 62.2606 54.1122C61.6541 53.9338 61.3186 53.6173 61.3356 53.247C61.3525 52.8766 61.7354 52.439 62.5249 52.2841C64.6223 52.072 70.1184 50.7691 72.2768 49.7793C72.4991 50.0671 72.6021 50.4284 72.5648 50.7893C72.5648 51.0115 72.5309 51.2472 72.5072 51.4896C72.4462 52.2033 72.3785 53.0147 72.3785 53.8227C72.3917 53.9208 72.4323 54.0133 72.4957 54.0898C72.559 54.1663 72.6425 54.2237 72.7369 54.2555C72.8313 54.2874 72.9328 54.2924 73.0299 54.27C73.127 54.2477 73.2159 54.1989 73.2866 54.129C77.3967 50.9273 81.0799 49.786 82.9673 49.786C86.0745 49.786 88.4938 51.2606 90.3676 54.2974C90.4106 54.3707 90.4718 54.4318 90.5454 54.4748C90.619 54.5179 90.7024 54.5414 90.7878 54.5431C90.8654 54.5424 90.9417 54.5231 91.0101 54.4867C91.0786 54.4504 91.1371 54.3981 91.1809 54.3344C94.959 51.4862 98.7032 49.786 101.211 49.786C107.134 49.786 110.674 54.193 110.674 61.5694C110.674 63.6904 110.654 66.3803 110.634 68.8885C110.617 71.0903 110.6 73.1541 110.6 74.5815C110.6 74.9182 111.068 75.8878 111.769 76.0797C112.636 76.5005 113.887 76.716 115.469 76.9853H115.53C115.649 77.4095 115.398 79.0558 115.157 79.3925C114.764 79.3925 114.222 79.3588 113.544 79.3252C112.314 79.2646 110.627 79.1804 108.665 79.1804C104.728 79.1804 102.671 79.2545 100.706 79.3824C100.557 78.8942 100.506 77.3186 100.685 76.9887C101.499 76.8622 102.305 76.688 103.098 76.4669C104.352 76.0561 104.714 75.4905 104.792 73.8375C104.823 72.6625 105.05 62.31 104.646 59.8524C104.274 57.3038 102.342 54.3209 98.117 54.3209C96.5481 54.3209 94.017 54.9707 91.6044 56.7887C91.4548 56.9572 91.3706 57.1733 91.3672 57.3981V57.4486C91.6518 58.775 91.6518 60.3237 91.6518 62.6635C91.6518 64.0102 91.6519 65.4141 91.6349 66.818C91.618 69.6729 91.6044 72.3663 91.6518 74.4031C91.6518 75.7902 92.4956 76.1235 93.1766 76.3894C93.546 76.4702 93.8374 76.5409 94.1322 76.6083C94.698 76.7463 95.2876 76.8877 96.1652 77.0257C96.2951 77.6172 96.2835 78.2306 96.1314 78.8168C96.0954 79.0368 96.0084 79.2454 95.8772 79.4262C93.6883 79.3521 91.4418 79.2881 88.199 79.2881C87.2164 79.2881 85.6137 79.3285 84.1973 79.3656C83.0486 79.3959 81.9643 79.4262 81.3476 79.4295C81.1808 79.0385 81.1067 78.6146 81.1308 78.1906C81.0962 77.7911 81.1748 77.3899 81.3578 77.0325L82.2286 76.8742C82.9876 76.7396 83.645 76.6251 84.2617 76.4702C85.3324 76.1336 85.7357 75.5545 85.8136 74.1977C86.0237 71.0331 86.1863 61.9128 85.7356 59.6302C84.9699 55.9672 82.8724 54.1088 79.4976 54.1088C77.5221 54.1088 75.0248 55.0549 72.985 56.5732C72.7888 56.7631 72.6342 56.9911 72.531 57.2432C72.4278 57.4952 72.3782 57.7657 72.3852 58.0377C72.3852 59.1252 72.3852 60.418 72.3852 61.805C72.3852 66.3837 72.3547 72.0835 72.4666 74.5479C72.5343 75.3087 72.8054 76.211 74.2387 76.5409C74.5538 76.6318 75.096 76.7194 75.7262 76.8237C76.0888 76.8843 76.4852 76.9483 76.8952 77.0224C77.0256 77.8286 76.9593 78.654 76.7021 79.4295C76.0719 79.4295 75.2959 79.3891 74.4081 79.3521C73.0528 79.2915 71.3585 79.2174 69.4441 79.2174C67.1806 79.2174 65.605 79.2915 64.3411 79.3521C63.4906 79.3925 62.7553 79.4262 62.02 79.4295" fill="#21313C"/>
<path d="M134.678 52.8294C133.455 52.8042 132.252 53.1405 131.222 53.7957C128.708 55.314 127.427 58.3474 127.427 62.8049C127.427 71.1475 131.632 76.9752 137.653 76.9752C139.268 77.026 140.843 76.472 142.065 75.4231C143.915 73.925 144.898 70.8613 144.898 66.5722C144.898 58.3541 140.788 52.8294 134.672 52.8294M135.83 80.0691C124.954 80.0691 121.081 72.1406 121.081 64.7239C121.081 59.5426 123.212 55.4925 127.417 52.6813C130.362 50.8697 133.743 49.8767 137.206 49.8062C145.504 49.8062 151.302 55.7349 151.302 64.229C151.302 69.9994 148.988 74.5579 144.606 77.4061C142.502 78.6854 138.846 80.0691 135.83 80.0691Z" fill="#21313C"/>
<path d="M245.412 52.8294C244.187 52.8018 242.981 53.1383 241.949 53.7957C239.435 55.314 238.154 58.3474 238.154 62.8049C238.154 71.1475 242.359 76.9752 248.381 76.9752C250 77.0294 251.58 76.4752 252.806 75.4231C254.656 73.925 255.635 70.8613 255.635 66.5722C255.635 58.3541 251.528 52.8294 245.412 52.8294ZM246.571 80.0691C235.694 80.0691 231.821 72.1406 231.821 64.7272C231.821 59.5392 233.953 55.4925 238.161 52.6813C241.105 50.8686 244.484 49.8755 247.947 49.8062C256.245 49.8062 262.043 55.7382 262.043 64.2256C262.043 70.0028 259.728 74.5579 255.347 77.4027C253.243 78.6854 249.587 80.0691 246.571 80.0691Z" fill="#21313C"/>
<path d="M208.79 52.5467C205.439 52.5467 203.27 55.1761 203.27 59.2464C203.27 63.3167 205.137 68.1546 210.386 68.1546C211.287 68.1546 212.921 67.7573 213.73 66.8719C214.95 65.7575 215.764 63.4547 215.764 61.024C215.764 55.7147 213.161 52.5467 208.807 52.5467M208.373 80.6382C207.427 80.6279 206.493 80.8598 205.663 81.3115C203.009 82.9948 201.779 84.6782 201.779 86.6342C201.779 88.4657 202.494 89.9234 204.033 91.2162C205.896 92.7851 208.411 93.5493 211.714 93.5493C218.217 93.5493 221.131 90.0749 221.131 86.6342C221.131 84.2371 219.921 82.6312 217.431 81.7222C215.513 81.0253 212.307 80.6415 208.384 80.6415M208.817 97.1382C204.914 97.1382 202.101 96.3201 199.699 94.4819C197.361 92.6908 196.311 90.0312 196.311 88.193C196.336 87.0084 196.791 85.8727 197.591 84.9946C198.269 84.227 199.845 82.7895 203.487 80.3015C203.544 80.2776 203.592 80.2378 203.626 80.1869C203.659 80.136 203.677 80.0763 203.677 80.0153C203.678 79.9473 203.656 79.8809 203.614 79.827C203.572 79.7732 203.513 79.7351 203.447 79.7191C200.448 78.5778 199.543 76.6891 199.269 75.6791C199.269 75.642 199.269 75.5848 199.238 75.5208C199.153 75.1236 199.072 74.7465 199.618 74.3593C200.038 74.0631 200.709 73.6658 201.427 73.245C202.441 72.6872 203.414 72.0583 204.338 71.363C204.387 71.31 204.424 71.2463 204.445 71.177C204.466 71.1077 204.471 71.0344 204.459 70.963C204.448 70.8915 204.42 70.8236 204.377 70.7646C204.335 70.7055 204.28 70.6569 204.216 70.6223C199.777 69.141 197.541 65.8652 197.541 60.859C197.527 59.2979 197.892 57.7566 198.606 56.3658C199.32 54.975 200.361 53.7758 201.641 52.8699C203.426 51.466 207.909 49.7793 210.813 49.7793H210.982C213.968 49.85 215.652 50.4728 217.983 51.328C219.309 51.8044 220.714 52.026 222.124 51.9811C224.594 51.9811 225.675 51.2034 226.603 50.2978C226.754 50.7057 226.834 51.1359 226.84 51.5704C226.897 52.6055 226.614 53.631 226.034 54.4926C225.529 55.1895 224.34 55.6945 223.252 55.6945C223.14 55.6945 223.032 55.6945 222.913 55.6777C222.341 55.6377 221.774 55.5441 221.219 55.3983L220.941 55.4959C220.853 55.6238 220.911 55.7652 220.982 55.947C220.999 55.9826 221.013 56.0198 221.022 56.0581C221.221 56.9567 221.355 57.8679 221.426 58.7851C221.426 64.0203 219.348 66.2995 217.102 67.9896C214.93 69.6088 212.35 70.6014 209.647 70.858C209.59 70.858 209.309 70.8816 208.78 70.9287C208.441 70.959 208.001 70.9994 207.936 70.9994H207.872C207.384 71.1341 206.11 71.7367 206.11 72.8578C206.11 73.787 206.686 74.9418 209.441 75.1505L211.223 75.2751C214.855 75.5276 219.393 75.8407 221.527 76.5578C222.943 77.0525 224.166 77.9783 225.022 79.2035C225.878 80.4287 226.323 81.8909 226.295 83.382C226.295 88.0785 222.933 92.4956 217.305 95.1956C214.651 96.4552 211.745 97.1031 208.804 97.0911" fill="#21313C"/>
<path d="M192.166 76.9247C190.574 76.7126 189.412 76.4971 188.039 75.8574C187.77 75.5803 187.593 75.2278 187.531 74.8474C187.385 72.6423 187.385 66.2422 187.385 62.0541C187.385 58.6369 186.809 55.6574 185.352 53.5196C183.614 51.099 181.154 49.6782 177.969 49.6782C175.146 49.6782 171.382 51.5972 168.271 54.23C168.197 54.3007 167.719 54.7518 167.729 54.0515C167.739 53.3513 167.848 51.9305 167.916 51.0215C167.946 50.78 167.918 50.5349 167.836 50.3057C167.754 50.0765 167.618 49.8697 167.441 49.7018C165.408 50.7118 159.705 52.0585 157.594 52.2638C156.056 52.5601 155.666 54.0313 157.31 54.5397H157.333C158.649 54.9001 159.905 55.449 161.061 56.1692C161.711 56.6674 161.64 57.3778 161.64 57.9468C161.711 62.7106 161.711 70.0365 161.494 74.0192C161.423 75.5847 160.986 76.1537 159.827 76.4399L159.936 76.4028C159.053 76.6225 158.158 76.7889 157.255 76.9011C156.893 77.2546 156.893 79.3184 157.255 79.7459C157.981 79.7459 161.66 79.5338 164.71 79.5338C168.905 79.5338 171.077 79.7459 172.165 79.7459C172.602 79.2477 172.744 77.3287 172.456 76.9011C171.454 76.8561 170.458 76.7128 169.484 76.4735C168.329 76.1907 168.037 75.6184 167.966 74.3424C167.824 70.996 167.824 63.8856 167.824 59.0477C167.824 57.701 168.183 57.058 168.617 56.691C170.064 55.4117 172.456 54.5599 174.553 54.5599C176.586 54.5599 177.942 55.1996 178.958 56.0513C180.142 57.0778 180.885 58.5167 181.032 60.0711C181.32 62.7645 181.246 68.1814 181.246 72.8645C181.246 75.4265 181.032 76.0695 180.09 76.3523C179.656 76.5644 178.498 76.7799 177.122 76.9213C176.688 77.3489 176.83 79.3386 177.122 79.7661C179.002 79.7661 181.188 79.554 184.36 79.554C188.341 79.554 190.875 79.7661 191.889 79.7661C192.322 79.2679 192.468 77.4095 192.18 76.9213" fill="#21313C"/>
</svg>
