<svg width="273" height="283" viewBox="0 0 273 283" fill="none" xmlns="http://www.w3.org/2000/svg">
<g clip-path="url(#clip0_419_6520)">
<path d="M271.942 169.027C270.305 164.061 266.017 160.603 260.472 159.773C257.857 159.382 254.862 159.549 251.319 160.28C245.142 161.557 240.56 162.043 237.216 162.137C249.839 140.791 260.103 116.45 266.012 93.5364C275.567 56.486 270.461 39.6072 264.494 31.9726C248.704 11.7646 225.666 0.908695 197.874 0.576524C183.047 0.394951 170.032 3.32682 163.242 5.4352C156.921 4.31799 150.123 3.69423 142.991 3.57888C129.622 3.36527 117.809 6.28432 107.715 12.2837C102.128 10.3911 93.159 7.72301 82.8021 6.0205C58.4432 2.01522 38.8107 5.13614 24.4505 15.2967C7.06165 27.5988 -0.999319 48.9731 0.491517 78.8258C0.965002 88.3039 6.25864 117.142 14.5937 144.491C19.384 160.211 24.4921 173.265 29.7761 183.294C37.2697 197.516 45.288 205.89 54.2896 208.898C59.3347 210.581 68.5016 211.761 78.143 203.718C79.3651 205.2 80.9956 206.673 83.1593 208.042C85.9075 209.777 89.2677 211.196 92.6237 212.036C104.718 215.064 116.046 214.307 125.711 210.062C125.771 211.784 125.817 213.429 125.855 214.849C125.919 217.153 125.983 219.412 126.067 221.525C126.64 235.809 127.61 246.916 130.485 254.688C130.643 255.115 130.855 255.766 131.079 256.457C132.514 260.856 134.912 268.219 141.014 273.986C147.332 279.959 154.975 281.791 161.975 281.791C165.486 281.791 168.835 281.33 171.773 280.699C182.246 278.451 194.139 275.027 202.743 262.757C210.877 251.158 214.832 233.687 215.547 206.16C215.64 205.381 215.725 204.638 215.807 203.929L215.978 202.475L217.894 202.643L218.388 202.677C229.054 203.164 242.097 200.898 250.106 197.172C256.435 194.23 276.717 183.506 271.942 169.027Z" fill="black"/>
<path d="M253.705 171.842C221.99 178.395 219.809 167.641 219.809 167.641C253.294 117.876 267.293 54.7065 255.213 39.2462C222.257 -2.92679 165.21 17.0184 164.258 17.5354L163.952 17.5909C157.685 16.2879 150.674 15.5125 142.792 15.3832C128.442 15.1482 117.556 19.1514 109.296 25.4253C109.296 25.4253 7.52893 -16.565 12.2627 78.2352C13.2694 98.4026 41.1239 230.834 74.3467 190.834C86.4899 176.206 98.2236 163.839 98.2236 163.839C104.05 167.716 111.027 169.694 118.34 168.984L118.909 168.501C118.732 170.317 118.813 172.093 119.136 174.196C110.577 183.774 113.092 185.455 95.9831 188.983C78.67 192.557 88.8403 198.918 95.4808 200.582C103.531 202.598 122.155 205.454 134.738 187.81L134.237 189.823C137.59 192.514 139.945 207.322 139.55 220.746C139.155 234.17 138.892 243.386 141.534 250.585C144.177 257.784 146.81 273.981 169.303 269.155C188.096 265.121 197.836 254.667 199.191 237.23C200.152 224.834 202.328 226.667 202.465 215.583L204.21 210.337C206.223 193.533 204.53 188.111 216.108 190.633L218.924 190.881C227.444 191.268 238.599 189.507 245.146 186.46C259.241 179.908 267.602 168.968 253.702 171.842H253.705Z" fill="#336791"/>
<path d="M115.253 87.254C112.395 86.8556 109.807 87.2241 108.497 88.2174C107.762 88.776 107.533 89.4233 107.471 89.8686C107.307 91.0489 108.133 92.3541 108.64 93.0269C110.076 94.9324 112.172 96.2419 114.247 96.5302C114.548 96.573 114.848 96.5922 115.145 96.5922C118.606 96.5922 121.753 93.8932 122.03 91.9012C122.377 89.4062 118.76 87.7432 115.253 87.2551M209.933 87.333C209.66 85.3774 206.185 84.8199 202.888 85.2791C199.595 85.7384 196.402 87.2273 196.669 89.1872C196.882 90.7114 199.63 93.3132 202.883 93.3132C203.158 93.3132 203.435 93.295 203.715 93.2555C205.886 92.9543 207.479 91.5733 208.236 90.7776C209.388 89.5642 210.055 88.2121 209.933 87.333Z" fill="white"/>
<path d="M264.258 171.098C263.048 167.435 259.156 166.257 252.689 167.595C233.489 171.564 226.612 168.814 224.355 167.149C239.279 144.378 251.557 116.851 258.18 91.1696C261.318 79.0042 263.051 67.7061 263.192 58.4972C263.349 48.39 261.63 40.9626 258.085 36.4254C243.793 18.1346 222.817 8.32328 197.426 8.05413C179.97 7.8576 165.222 12.3318 162.363 13.59C156.342 12.0904 149.778 11.1697 142.632 11.0522C129.528 10.8397 118.201 13.9819 108.823 20.3872C104.749 18.8684 94.2214 15.2487 81.3466 13.1713C59.0886 9.58254 41.4012 12.3019 28.7792 21.2577C13.7184 31.9448 6.7654 51.0484 8.11227 78.0365C8.56549 87.1162 13.7312 115.049 21.8828 141.798C32.613 177.007 44.2773 196.938 56.5495 201.038C57.986 201.518 59.6421 201.853 61.4688 201.853C65.9456 201.853 71.4344 199.832 77.145 192.956C84.1103 184.587 91.3155 176.422 98.7515 168.469C103.576 171.063 108.876 172.511 114.296 172.656C114.307 172.798 114.321 172.94 114.334 173.081C113.401 174.196 112.487 175.326 111.593 176.472C107.837 181.248 107.056 182.242 94.9657 184.735C91.5266 185.446 82.3928 187.332 82.2584 193.744C82.1134 200.751 93.0558 203.693 94.3024 204.005C98.6469 205.095 102.833 205.632 106.824 205.632C116.532 205.632 125.075 202.436 131.902 196.253C131.692 221.231 132.731 245.844 135.726 253.343C138.179 259.482 144.17 274.485 163.094 274.484C165.871 274.484 168.927 274.161 172.29 273.439C192.041 269.198 200.618 260.455 203.935 241.18C205.711 230.878 208.758 206.279 210.191 193.084C213.215 194.029 217.109 194.462 221.318 194.461C230.096 194.461 240.226 192.593 246.579 189.64C253.715 186.32 266.593 178.175 264.258 171.098ZM217.223 81.935C217.158 85.8303 216.622 89.3667 216.055 93.0579C215.444 97.028 214.813 101.133 214.654 106.115C214.497 110.964 215.102 116.006 215.686 120.881C216.868 130.729 218.08 140.867 213.387 150.871C212.607 149.487 211.913 148.057 211.307 146.589C210.724 145.173 209.457 142.898 207.703 139.749C200.879 127.492 184.899 98.7882 193.079 87.0757C195.516 83.5895 201.7 80.005 217.223 81.935ZM198.407 15.9419C221.158 16.4449 239.154 24.9692 251.896 41.2766C261.668 53.7848 250.907 110.699 219.754 159.8C219.441 159.401 219.126 159.003 218.81 158.607L218.415 158.113C226.465 144.798 224.891 131.623 223.49 119.942C222.914 115.149 222.37 110.621 222.509 106.368C222.652 101.861 223.247 97.9946 223.823 94.2563C224.53 89.6497 225.25 84.8829 225.051 79.2637C225.2 78.6742 225.259 77.9778 225.181 77.1511C224.675 71.7627 218.532 55.6358 206.013 41.0395C199.164 33.0556 189.177 24.1212 175.541 18.0951C181.406 16.8775 189.427 15.7421 198.407 15.9419ZM71.1017 187.923C64.8099 195.5 60.4653 194.048 59.0364 193.571C49.7266 190.461 38.9239 170.753 29.3999 139.501C21.1587 112.46 16.3428 85.2674 15.961 77.6424C14.7581 53.5274 20.5946 36.7213 33.3093 27.6896C54.0019 12.9929 88.0223 21.7896 101.693 26.2509C101.496 26.4453 101.292 26.6269 101.098 26.8245C78.6646 49.5147 79.1968 88.2815 79.2522 90.6516C79.2501 91.5658 79.3269 92.8603 79.4314 94.6408C79.8174 101.161 80.5362 113.297 78.6166 127.04C76.8336 139.811 80.7644 152.31 89.3991 161.335C90.2852 162.259 91.2166 163.139 92.1899 163.971C88.3465 168.093 79.9934 177.21 71.1017 187.923ZM95.0734 155.889C88.1141 148.615 84.9532 138.498 86.4003 128.129C88.4265 113.612 87.679 100.968 87.2769 94.1751C87.2204 93.2246 87.1703 92.3915 87.1415 91.7346C90.4186 88.8241 105.605 80.6747 116.436 83.1601C121.377 84.2933 124.389 87.6642 125.641 93.4617C132.12 123.478 126.498 135.988 121.981 146.042C121.05 148.113 120.17 150.071 119.419 152.096L118.837 153.662C117.363 157.62 115.992 161.3 115.142 164.795C107.743 164.774 100.546 161.608 95.0734 155.887V155.889ZM96.2092 196.369C94.0486 195.828 92.1056 194.889 90.9656 194.111C91.9179 193.662 93.6124 193.051 96.5515 192.444C110.774 189.513 112.971 187.443 117.768 181.343C118.867 179.944 120.114 178.359 121.84 176.428L121.842 176.425C124.413 173.542 125.59 174.031 127.723 174.917C129.451 175.633 131.135 177.803 131.818 180.191C132.141 181.319 132.503 183.46 131.316 185.126C121.296 199.178 106.695 198.997 96.2092 196.369ZM170.643 265.742C153.244 269.476 147.083 260.584 143.023 250.42C140.403 243.857 139.115 214.265 140.029 181.585C140.041 181.151 139.979 180.731 139.859 180.336C139.752 179.555 139.59 178.784 139.373 178.026C138.014 173.271 134.703 169.294 130.731 167.645C129.153 166.99 126.256 165.789 122.775 166.68C123.518 163.617 124.805 160.158 126.201 156.412L126.786 154.836C127.445 153.06 128.273 151.22 129.147 149.272C133.875 138.753 140.349 124.346 133.322 91.7987C130.69 79.6077 121.901 73.6542 108.577 75.0374C100.59 75.8651 93.2819 79.0929 89.6369 80.9438C88.8531 81.3411 88.1365 81.7257 87.4667 82.0995C88.4841 69.8166 92.3274 46.8616 106.705 32.3379C115.757 23.1952 127.813 18.6793 142.502 18.9229C171.444 19.3971 190.004 34.2732 200.478 46.6704C209.504 57.3522 214.391 68.1131 216.342 73.917C201.674 72.4227 191.697 75.3226 186.64 82.5641C175.638 98.3161 192.659 128.889 200.84 143.582C202.34 146.275 203.635 148.602 204.042 149.591C206.706 156.057 210.155 160.374 212.672 163.525C213.445 164.491 214.193 165.427 214.763 166.246C210.32 167.528 202.34 170.492 203.067 185.308C202.481 192.741 198.31 227.546 196.191 239.842C193.394 256.088 187.425 262.138 170.643 265.743V265.742ZM243.27 182.501C238.727 184.612 231.124 186.196 223.903 186.537C215.926 186.911 211.865 185.642 210.91 184.861C210.462 175.629 213.892 174.664 217.523 173.643C218.094 173.483 218.651 173.326 219.188 173.138C219.522 173.41 219.888 173.68 220.289 173.945C226.7 178.184 238.135 178.641 254.279 175.303L254.456 175.268C252.279 177.307 248.553 180.043 243.27 182.501Z" fill="white"/>
</g>
<defs>
<clipPath id="clip0_419_6520">
<rect width="273" height="282" fill="white" transform="translate(0 0.179199)"/>
</clipPath>
</defs>
</svg>
