<svg width="337" height="386" viewBox="0 0 337 386" fill="none" xmlns="http://www.w3.org/2000/svg">
<path d="M337 193.214C337 170.831 309.043 149.619 266.179 136.465C276.071 92.6634 271.674 57.8152 252.304 46.6583C247.839 44.0412 242.618 42.8015 236.917 42.8015V58.1595C240.076 58.1595 242.618 58.7794 244.747 59.9502C254.089 65.322 258.142 85.7764 254.982 112.085C254.227 118.558 252.99 125.377 251.479 132.332C238.016 129.027 223.316 126.479 207.86 124.826C198.587 112.085 188.97 100.515 179.285 90.3907C201.678 69.5231 222.698 58.0907 236.985 58.0907V42.7327C218.095 42.7327 193.366 56.2312 168.363 79.647C143.359 56.3689 118.63 43.0081 99.7399 43.0081V58.3661C113.959 58.3661 135.047 69.7297 157.441 90.4595C147.824 100.583 138.207 112.085 129.071 124.826C113.547 126.479 98.8469 129.027 85.3834 132.401C83.8035 125.514 82.6357 118.834 81.8115 112.429C78.583 86.1207 82.5671 65.6664 91.8404 60.2256C93.9011 58.986 96.5801 58.435 99.7399 58.435V43.077C93.9698 43.077 88.7493 44.3167 84.2157 46.9337C64.9134 58.0907 60.5858 92.87 70.5461 136.534C27.82 149.757 0 170.9 0 193.214C0 215.596 27.9574 236.808 70.8208 249.962C60.9293 293.764 65.3255 328.612 84.6965 339.769C89.1614 342.386 94.382 343.625 100.152 343.625C119.042 343.625 143.771 330.127 168.775 306.711C193.778 329.989 218.507 343.35 237.397 343.35C243.168 343.35 248.388 342.11 252.922 339.493C272.224 328.336 276.552 293.557 266.591 249.893C309.18 236.739 337 215.527 337 193.214ZM247.564 147.277C245.022 156.161 241.862 165.321 238.29 174.481C235.474 168.971 232.52 163.462 229.292 157.952C226.132 152.442 222.766 147.071 219.4 141.837C229.155 143.283 238.565 145.073 247.564 147.277ZM216.103 220.624C210.745 229.921 205.25 238.737 199.549 246.932C189.314 247.827 178.941 248.309 168.5 248.309C158.128 248.309 147.755 247.827 137.589 247.001C131.887 238.805 126.323 230.059 120.966 220.83C115.745 211.808 111.005 202.649 106.678 193.42C110.937 184.192 115.745 174.963 120.897 165.941C126.255 156.644 131.75 147.828 137.451 139.633C147.687 138.737 158.059 138.255 168.5 138.255C178.872 138.255 189.245 138.737 199.411 139.564C205.113 147.759 210.677 156.506 216.034 165.734C221.255 174.756 225.995 183.916 230.322 193.145C225.995 202.373 221.255 211.602 216.103 220.624ZM238.29 211.671C242 220.899 245.16 230.128 247.77 239.081C238.771 241.285 229.292 243.144 219.469 244.59C222.835 239.288 226.201 233.847 229.361 228.268C232.52 222.759 235.474 217.18 238.29 211.671ZM168.637 285.155C162.249 278.543 155.861 271.174 149.541 263.117C155.723 263.392 162.043 263.599 168.431 263.599C174.888 263.599 181.277 263.461 187.528 263.117C181.345 271.174 174.957 278.543 168.637 285.155ZM117.531 244.59C107.777 243.144 98.3661 241.354 89.3675 239.15C91.9091 230.266 95.0689 221.106 98.6408 211.946C101.457 217.456 104.411 222.965 107.639 228.475C110.868 233.985 114.165 239.356 117.531 244.59ZM168.294 101.272C174.682 107.884 181.071 115.253 187.39 123.311C181.208 123.035 174.888 122.828 168.5 122.828C162.043 122.828 155.655 122.966 149.404 123.311C155.586 115.253 161.974 107.884 168.294 101.272ZM117.462 141.837C114.096 147.14 110.731 152.58 107.571 158.159C104.411 163.668 101.457 169.178 98.6408 174.687C94.9315 165.459 91.7717 156.23 89.1614 147.277C98.16 145.142 107.639 143.283 117.462 141.837ZM55.2966 228.062C30.9798 217.662 15.2495 204.026 15.2495 193.214C15.2495 182.401 30.9798 168.696 55.2966 158.365C61.2041 155.817 67.661 153.544 74.3241 151.409C78.2395 164.908 83.3914 178.957 89.7797 193.351C83.4601 207.676 78.3769 221.657 74.5302 235.086C67.7297 232.951 61.2727 230.61 55.2966 228.062ZM92.2526 326.477C82.9105 321.105 78.8577 300.651 82.0175 274.342C82.7731 267.869 84.0096 261.05 85.5208 254.095C98.9843 257.4 113.684 259.948 129.14 261.601C138.413 274.342 148.03 285.912 157.715 296.036C135.322 316.904 114.302 328.336 100.015 328.336C96.9236 328.267 94.3133 327.648 92.2526 326.477ZM255.189 273.998C258.417 300.306 254.433 320.761 245.16 326.201C243.099 327.441 240.42 327.992 237.26 327.992C223.041 327.992 201.953 316.628 179.559 295.899C189.176 285.775 198.793 274.273 207.929 261.533C223.453 259.88 238.153 257.331 251.617 253.957C253.197 260.913 254.433 267.593 255.189 273.998ZM281.635 228.062C275.727 230.61 269.27 232.883 262.607 235.018C258.692 221.519 253.54 207.47 247.152 193.076C253.471 178.751 258.554 164.77 262.401 151.341C269.202 153.476 275.659 155.817 281.703 158.365C306.02 168.765 321.751 182.401 321.751 193.214C321.682 204.026 305.952 217.731 281.635 228.062Z" fill="#61DAFB"/>
<path d="M168.431 224.687C185.769 224.687 199.823 210.596 199.823 193.214C199.823 175.831 185.769 161.74 168.431 161.74C151.094 161.74 137.039 175.831 137.039 193.214C137.039 210.596 151.094 224.687 168.431 224.687Z" fill="#61DAFB"/>
</svg>
