<svg width="476" height="430" viewBox="0 0 476 430" fill="none" xmlns="http://www.w3.org/2000/svg">
<g clip-path="url(#clip0_419_6585)">
<path d="M103.927 14.7966L237.521 0.679199L371.115 14.7966L474.542 153.578L237.521 429.466L0.5 153.578L103.927 14.7966Z" fill="#FDB300"/>
<path d="M96.5055 153.578L237.521 429.466L0.5 153.578H96.5055Z" fill="#EA6C00"/>
<path d="M378.537 153.578L237.521 429.466L474.542 153.578H378.537Z" fill="#EA6C00"/>
<path d="M96.5054 153.578H378.537L237.521 429.466L96.5054 153.578Z" fill="#FDAD00"/>
<path d="M237.521 0.679199L103.927 14.7964L96.5054 153.578L237.521 0.679199Z" fill="#FDD231"/>
<path d="M237.521 0.679199L371.115 14.7964L378.537 153.578L237.521 0.679199Z" fill="#FDD231"/>
<path d="M474.543 153.578L371.115 14.7964L378.538 153.578H474.543Z" fill="#FDAD00"/>
<path d="M0.5 153.578L103.927 14.7964L96.5055 153.578H0.5Z" fill="#FDAD00"/>
<path d="M237.521 0.679199L96.5054 153.578H378.537L237.521 0.679199Z" fill="#FEEEB7"/>
</g>
<defs>
<clipPath id="clip0_419_6585">
<rect width="475" height="429" fill="white" transform="translate(0.5 0.679199)"/>
</clipPath>
</defs>
</svg>
