<svg width="149" height="149" viewBox="0 0 149 149" fill="none" xmlns="http://www.w3.org/2000/svg">
<g clip-path="url(#clip0_419_6472)">
<path d="M11.0191 74.947C11.0191 100.076 25.6218 121.79 46.7969 132.081L16.5152 49.1117C12.8851 57.2406 11.0122 66.0444 11.0191 74.947ZM117.356 71.7436C117.356 63.898 114.538 58.4647 112.121 54.2357C108.903 49.0066 105.888 44.5783 105.888 39.3491C105.888 33.5136 110.313 28.0815 116.547 28.0815C116.828 28.0815 117.095 28.1165 117.371 28.1322C106.075 17.785 91.0279 11.4675 74.501 11.4675C52.3232 11.4675 32.8114 22.8463 21.4605 40.0811C22.9498 40.1258 24.3547 40.156 25.5457 40.156C32.1857 40.156 42.4641 39.3503 42.4641 39.3503C45.8862 39.1486 46.2896 44.1748 42.8723 44.5795C42.8723 44.5795 39.4321 44.9841 35.6054 45.1847L58.7229 113.946L72.6166 72.2811L62.7248 45.1835C59.3063 44.9829 56.0678 44.5783 56.0678 44.5783C52.647 44.3778 53.048 39.1474 56.4689 39.3491C56.4689 39.3491 66.9526 40.1548 73.1903 40.1548C79.8292 40.1548 90.1087 39.3491 90.1087 39.3491C93.5332 39.1474 93.9354 44.1736 90.5158 44.5783C90.5158 44.5783 87.0695 44.9829 83.25 45.1835L106.191 113.425L112.522 92.2652C115.268 83.4847 117.356 77.1781 117.356 71.7436Z" fill="#00749A"/>
<path d="M75.6146 80.4998L56.5679 135.845C62.3909 137.561 68.4302 138.432 74.5009 138.432C81.8935 138.432 88.9828 137.153 95.5818 134.834C95.4048 134.557 95.2536 134.264 95.13 133.959L75.6146 80.4998ZM130.204 44.49C130.477 46.5121 130.631 48.6839 130.631 51.0177C130.631 57.4596 129.428 64.7012 125.804 73.7559L106.413 129.82C125.286 118.814 137.98 98.3676 137.98 74.9469C137.997 64.3013 135.322 53.8243 130.204 44.49Z" fill="#00749A"/>
<path d="M74.5011 0.94873C33.6982 0.94873 0.500488 34.144 0.500488 74.9469C0.500488 115.755 33.697 148.95 74.5011 148.95C115.303 148.95 148.505 115.756 148.505 74.9469C148.504 34.144 115.303 0.94873 74.5011 0.94873ZM74.5011 145.557C35.5693 145.557 3.89358 113.881 3.89358 74.9469C3.89358 36.0163 35.5681 4.34303 74.5011 4.34303C113.432 4.34303 145.105 36.0163 145.105 74.9469C145.105 113.881 113.43 145.557 74.5011 145.557Z" fill="#00749A"/>
</g>
<defs>
<clipPath id="clip0_419_6472">
<rect width="148" height="148" fill="white" transform="translate(0.5 0.94873)"/>
</clipPath>
</defs>
</svg>
