<svg width="199" height="200" viewBox="0 0 199 200" fill="none" xmlns="http://www.w3.org/2000/svg">
<g clip-path="url(#clip0_419_6641)">
<path fill-rule="evenodd" clip-rule="evenodd" d="M199 6.25709C199 2.9622 196.325 0.287109 193.03 0.287109H5.96999C2.67509 0.287109 0 2.9622 0 6.25709V193.316C0 196.611 2.67509 199.286 5.96999 199.286H193.03C196.325 199.286 199 196.611 199 193.316V6.25709Z" fill="#1B72BE"/>
<path fill-rule="evenodd" clip-rule="evenodd" d="M84.6602 78.0813L110.818 123.107H76.6976C70.9774 123.107 66.333 118.463 66.333 112.742C66.333 111.042 66.7434 109.436 67.4705 108.02L84.6602 78.0813Z" fill="#55D2FB"/>
<path fill-rule="evenodd" clip-rule="evenodd" d="M114.42 125.18L84.6499 73.9365L65.6486 107.031C64.7536 108.773 64.2603 110.701 64.2603 112.742C64.2603 119.607 69.8333 125.18 76.6977 125.18H114.42ZM84.6603 78.0813L110.818 123.107H76.6977C70.9775 123.107 66.3332 118.463 66.3332 112.742C66.3332 111.042 66.7436 109.436 67.4707 108.02L84.6603 78.0813Z" fill="black" fill-opacity="0.3"/>
<path fill-rule="evenodd" clip-rule="evenodd" d="M84.6602 78.0813L110.818 123.107H76.6976C70.9774 123.107 66.333 118.463 66.333 112.742C66.333 111.042 66.7434 109.436 67.4705 108.02L84.6602 78.0813ZM84.6705 82.2261L107.217 121.034H76.6976C72.1211 121.034 68.4059 117.319 68.4059 112.742C68.4059 111.402 68.7241 110.135 69.2905 109.014C69.2936 109.008 84.6705 82.2261 84.6705 82.2261Z" fill="white" fill-opacity="0.3"/>
<path fill-rule="evenodd" clip-rule="evenodd" d="M89.1289 70.2985L131.112 -2.82227H208.328V123.107H119.808L89.1289 70.2985Z" fill="#55D2FB"/>
<path fill-rule="evenodd" clip-rule="evenodd" d="M129.912 -4.89526L86.7354 70.3041L118.615 125.18H210.401V-4.89526H129.912ZM89.129 70.2985L131.112 -2.82236H208.328V123.107H119.808L89.129 70.2985Z" fill="black" fill-opacity="0.3"/>
<path fill-rule="evenodd" clip-rule="evenodd" d="M89.1289 70.2985L131.112 -2.82227H208.328V123.107H119.808L89.1289 70.2985ZM91.5226 70.2923L132.312 -0.749357H206.255V121.034H121.001L91.5226 70.2923Z" fill="white" fill-opacity="0.3"/>
<path fill-rule="evenodd" clip-rule="evenodd" d="M208.328 131.398H59.0781L101.573 206.023H208.328V131.398Z" fill="#55D2FB"/>
<path fill-rule="evenodd" clip-rule="evenodd" d="M210.401 208.096V129.325H55.5122L100.368 208.096H210.401ZM208.328 131.398H59.0781L101.573 206.023H208.328V131.398Z" fill="black" fill-opacity="0.3"/>
<path fill-rule="evenodd" clip-rule="evenodd" d="M208.328 131.398H59.0781L101.573 206.023H208.328V131.398ZM206.255 133.471V203.95H102.778L62.6441 133.471H206.255Z" fill="white" fill-opacity="0.3"/>
<path fill-rule="evenodd" clip-rule="evenodd" d="M92.7628 206.023H-6.21875V166.638L91.2082 -2.82227H122.302L47.1588 126.735L92.7628 206.023Z" fill="#55D2FB"/>
<path fill-rule="evenodd" clip-rule="evenodd" d="M-8.2915 208.096H96.3465L49.5526 126.739C56.642 114.516 124.095 -1.78227 124.095 -1.78227L125.901 -4.89526H90.0091L-8.2915 166.084V208.096ZM92.763 206.023H-6.21859V166.638L91.2083 -2.82236H122.302L47.1589 126.734L92.763 206.023Z" fill="black" fill-opacity="0.3"/>
<path fill-rule="evenodd" clip-rule="evenodd" d="M92.7628 206.023H-6.21875V166.638L91.2082 -2.82227H122.302L47.1588 126.735L92.7628 206.023ZM89.1793 203.95H-4.14584V167.191L92.4073 -0.749357H118.703L45.3657 125.694C44.9941 126.335 44.9926 127.126 45.3621 127.768L89.1793 203.95Z" fill="white" fill-opacity="0.3"/>
</g>
<defs>
<clipPath id="clip0_419_6641">
<rect width="199" height="199" fill="white" transform="translate(0 0.287109)"/>
</clipPath>
</defs>
</svg>
