<svg width="201" height="194" viewBox="0 0 201 194" fill="none" xmlns="http://www.w3.org/2000/svg">
<g clip-path="url(#clip0_419_6600)">
<path d="M165.083 0.179199H35.9167C16.3566 0.179199 0.5 15.8731 0.5 35.2326V158.126C0.5 177.485 16.3566 193.179 35.9167 193.179H165.083C184.643 193.179 200.5 177.485 200.5 158.126V35.2326C200.5 15.8731 184.643 0.179199 165.083 0.179199Z" fill="#330000"/>
<path d="M97.417 116.002H66.4245L60.1188 135.39C60.0328 135.743 59.825 136.056 59.5311 136.274C59.2372 136.493 58.8756 136.602 58.5087 136.585H42.8113C41.9161 136.585 41.603 136.098 41.8721 135.124L68.7052 58.6369C68.9738 57.8403 69.2422 56.9329 69.5105 55.9146C69.8614 54.1429 70.0411 52.3422 70.0471 50.5368C70.0289 50.4105 70.0407 50.2818 70.0814 50.1608C70.1222 50.0398 70.1909 49.9298 70.282 49.8396C70.3731 49.7494 70.4842 49.6815 70.6064 49.6411C70.7287 49.6007 70.8587 49.5891 70.9863 49.6071H92.3185C92.9435 49.6071 93.3013 49.8285 93.3919 50.2712L123.848 135.257C124.116 136.143 123.848 136.586 123.043 136.585H105.601C105.301 136.618 105 136.542 104.753 136.371C104.506 136.2 104.331 135.945 104.259 135.656L97.417 116.002ZM71.2545 99.2709H92.4528C91.9161 97.5011 91.29 95.5092 90.5746 93.2952C89.8576 91.0834 89.0974 88.7153 88.2939 86.1909C87.4886 83.668 86.6835 81.145 85.8785 78.6218C85.0737 76.0989 84.3358 73.6644 83.665 71.3183C82.994 68.9739 82.3903 66.8271 81.8538 64.8781H81.7196C80.9643 68.4644 80.0239 72.0101 78.9022 75.5013C77.6485 79.485 76.3738 83.5573 75.0781 87.718C73.7805 91.8802 72.506 95.7312 71.2545 99.2709H71.2545Z" fill="#FF9A00"/>
<path d="M141.959 63.6831C140.59 63.7374 139.226 63.5054 137.954 63.0019C136.683 62.4985 135.533 61.7351 134.58 60.7617C133.629 59.746 132.891 58.5545 132.407 57.2555C131.924 55.9565 131.704 54.5758 131.762 53.1926C131.713 51.8231 131.957 50.4589 132.477 49.1889C132.997 47.919 133.782 46.7719 134.781 45.8227C135.77 44.8833 136.937 44.1472 138.215 43.6572C139.493 43.1672 140.857 42.9328 142.227 42.9678C145.447 42.9678 147.974 43.9194 149.808 45.8227C150.733 46.8118 151.452 47.9719 151.924 49.2365C152.396 50.5012 152.611 51.8455 152.558 53.1926C152.614 54.5812 152.387 55.9667 151.892 57.267C151.396 58.5672 150.642 59.7557 149.673 60.7617C148.661 61.7494 147.453 62.5189 146.125 63.0217C144.797 63.5245 143.379 63.7497 141.959 63.6831ZM132.701 135.257V71.7831C132.701 70.9865 133.057 70.588 133.774 70.588H150.277C150.992 70.588 151.35 70.9864 151.351 71.7831V135.257C151.351 136.143 150.993 136.586 150.277 136.585H133.909C133.104 136.585 132.701 136.142 132.701 135.257Z" fill="#FF9A00"/>
</g>
<defs>
<clipPath id="clip0_419_6600">
<rect width="200" height="193" fill="white" transform="translate(0.5 0.179199)"/>
</clipPath>
</defs>
</svg>
