<svg width="337" height="81" viewBox="0 0 337 81" fill="none" xmlns="http://www.w3.org/2000/svg">
<path fill-rule="evenodd" clip-rule="evenodd" d="M305.63 0.759277C291.921 0.759277 284.175 3.40609 279.728 9.60903C275.082 16.088 274.149 26.3156 274.149 40.72C274.149 68.995 278.523 80.8153 305.63 80.8153C308.886 80.8153 320.015 80.7534 326.513 79.9604C329.041 79.5413 330.173 77.6055 330.173 75.873V72.7502C330.173 70.3193 328.336 68.4864 325.9 68.4864H305.63C290.335 68.4864 287.577 64.8809 287.185 44.3848V37.7502C287.315 16.7757 290.073 13.0882 305.63 13.0882C319.975 13.0882 322.726 16.3607 323.203 34.8265H300.41V47.2918H330.389C336.294 47.2918 336.294 43.1627 336.294 41.8058V37.8264C335.867 9.07281 328.988 0.759277 305.63 0.759277Z" fill="#272727"/>
<path fill-rule="evenodd" clip-rule="evenodd" d="M266.154 1.85849L265.829 1.77233C263.037 1.18508 255.406 0.759277 251.624 0.759277C238.237 0.759277 231.161 6.36409 231.161 16.9681V76.0077C231.161 78.4387 232.862 80.1361 235.299 80.1361H240.061C242.497 80.1361 244.198 78.4387 244.198 76.0077V18.0522C244.198 15.4355 244.861 13.0882 252.849 13.0882L264.677 13.0773C265.835 13.2162 266.94 12.8958 267.79 12.1755C268.719 11.3917 269.23 10.249 269.23 8.95988V5.97343C269.23 4.01258 268.109 2.51267 266.154 1.85849Z" fill="#272727"/>
<path fill-rule="evenodd" clip-rule="evenodd" d="M208.983 1.71021H204.221C201.784 1.71021 200.083 3.40754 200.083 5.83769V68.487H180.279C168.028 68.487 163.058 67.7082 163.058 48.1842V5.83769C163.058 3.40754 161.356 1.71021 158.92 1.71021H154.294C151.857 1.71021 150.021 3.48451 150.021 5.83769V48.1842C150.021 75.9322 160.085 80.8151 181.23 80.8151C188.838 80.8151 199.256 80.8151 209.191 79.4164L209.42 79.3704C211.874 78.7572 213.12 77.3518 213.12 75.1944V5.83769C213.12 3.40754 211.417 1.71021 208.983 1.71021Z" fill="#272727"/>
<path fill-rule="evenodd" clip-rule="evenodd" d="M135.333 3.64919V3.64835C134.721 2.3492 133.411 1.57373 131.826 1.57373H125.705C123.928 1.57373 122.598 2.28981 121.898 3.57892L112.827 16.8339L120.769 27.6955L134.634 7.80512C136.156 5.95636 135.63 4.28245 135.333 3.64919Z" fill="#74BB11"/>
<path fill-rule="evenodd" clip-rule="evenodd" d="M87.5062 3.42893L87.4978 3.41638C86.1152 1.57349 84.2747 1.57349 83.6694 1.57349H77.6827C76.1492 1.57349 74.8932 2.27785 74.2366 3.50506C73.5617 4.76154 73.7042 6.27233 74.6383 7.67103L96.8173 38.4172L71.3138 73.9894C70.4225 75.327 70.2975 76.8144 70.9708 78.0701C71.6307 79.2973 72.8876 80 74.4186 80H80.5394C82.1132 80 83.4966 79.1835 84.1892 77.8961L112.736 38.5586L87.5062 3.42893Z" fill="#009CD9"/>
<path fill-rule="evenodd" clip-rule="evenodd" d="M138.377 74.3002L120.583 49.8799L112.756 60.6704L126.829 79.4516L127.195 79.6114C127.802 79.8732 128.382 79.9995 128.97 79.9995H134.955C136.4 79.9995 137.628 79.357 138.323 78.2352C139.035 77.0858 139.055 75.652 138.377 74.3002Z" fill="#EB2084"/>
<path fill-rule="evenodd" clip-rule="evenodd" d="M47.7744 46.7475V67.4861C41.714 68.4155 32.4775 68.6222 29.3299 68.6222C15.403 68.6222 13.8778 64.8167 13.8778 56.7358C13.8778 49.1743 16.7076 46.7475 25.5207 46.7475H47.7744ZM28.6499 0.759521C24.3469 0.759521 18.4785 0.870781 11.178 1.74998L10.8476 1.82193C8.72044 2.42758 7.64301 3.8246 7.64301 5.97368V8.96012C7.64301 11.5057 9.22854 13.0884 11.7808 13.0884H28.6499C42.2338 13.0884 47.7744 16.7676 47.7744 25.7896V34.5557H25.5207C8.12764 34.5557 0.705566 41.1887 0.705566 56.7358C0.705566 74.0639 8.38757 80.8156 28.1057 80.8156C36.0921 80.8156 50.7945 80.1949 56.2286 78.5377C60.8108 77.2661 60.8108 73.7661 60.8108 72.6158V24.9765C60.8108 8.68072 50.2906 0.759521 28.6499 0.759521Z" fill="#272727"/>
</svg>
