<svg width="193" height="194" viewBox="0 0 193 194" fill="none" xmlns="http://www.w3.org/2000/svg">
<g clip-path="url(#clip0_419_6416)">
<path d="M168.851 63.1672C168.85 60.4318 168.265 58.0147 167.082 55.9408C165.92 53.9003 164.18 52.1906 161.846 50.8388C142.58 39.7279 123.296 28.6511 104.036 17.529C98.8441 14.5308 93.8098 14.6407 88.656 17.6819C80.9877 22.2046 42.5948 44.2048 31.1542 50.8325C26.4426 53.5611 24.15 57.7361 24.1488 63.1621C24.1415 85.5066 24.1488 107.851 24.1415 130.196C24.1415 132.871 24.7026 135.242 25.8334 137.284C26.9958 139.386 28.7602 141.143 31.1479 142.525C42.5891 149.153 80.9871 171.151 88.6538 175.676C93.8098 178.719 98.8441 178.827 104.038 175.829C123.298 164.706 142.584 153.629 161.853 142.518C164.24 141.137 166.005 139.379 167.167 137.279C168.296 135.235 168.858 132.865 168.858 130.189C168.858 130.189 168.858 85.5123 168.851 63.1672Z" fill="#A179DC"/>
<path d="M96.7214 96.4609L25.8334 137.284C26.9958 139.386 28.7602 141.143 31.148 142.525C42.5891 149.153 80.9871 171.151 88.6538 175.676C93.8098 178.719 98.8441 178.827 104.038 175.829C123.298 164.706 142.584 153.629 161.853 142.518C164.24 141.136 166.005 139.379 167.167 137.279L96.7214 96.4609Z" fill="#280068"/>
<path d="M168.851 63.167C168.85 60.4317 168.265 58.0146 167.082 55.9407L96.7214 96.4615L167.167 137.279C168.296 135.235 168.857 132.865 168.859 130.189C168.859 130.189 168.859 85.5121 168.851 63.167" fill="#390091"/>
<path d="M138.458 81.2002V88.8309H146.087V81.2002H149.902V88.8309H157.531V92.6463H149.902V100.276H157.531V104.092H149.902V111.723H146.087V104.092H138.458V111.723H134.643V104.092H127.015V100.276H134.643V92.6463H127.015V88.8309H134.643V81.2002H138.458ZM146.087 92.6457H138.458V100.276H146.087V92.6457Z" fill="white"/>
<path d="M96.8772 42.8778C116.777 42.8778 134.15 53.6867 143.456 69.7535L143.365 69.5989L119.952 83.082C115.339 75.2707 106.883 69.9987 97.1823 69.89L96.8766 69.8883C82.084 69.8883 70.0913 81.8831 70.0913 96.6785C70.0865 101.342 71.3045 105.925 73.624 109.97C78.241 118.032 86.9206 123.469 96.8772 123.469C106.895 123.469 115.624 117.963 120.218 109.815L120.106 110.01L143.484 123.556C134.28 139.487 117.144 150.262 97.4762 150.477L96.8772 150.48C76.9149 150.48 59.4921 139.605 50.2094 123.453C45.6779 115.568 43.0852 106.427 43.0852 96.6785C43.0852 66.9654 67.1679 42.8772 96.8766 42.8772L96.8772 42.8778Z" fill="white"/>
</g>
<defs>
<clipPath id="clip0_419_6416">
<rect width="146" height="164.297" fill="white" transform="translate(23.5 14.5308)"/>
</clipPath>
</defs>
</svg>
