<svg width="125" height="161" viewBox="0 0 125 161" fill="none" xmlns="http://www.w3.org/2000/svg">
<g clip-path="url(#clip0_419_6453)">
<path d="M56.0469 0.96875H82.0615V120.805C68.7363 123.339 58.9268 124.335 48.313 124.335C16.5396 124.302 0 110.035 0 82.6354C0 56.2355 17.5439 39.102 44.7305 39.102C48.9492 39.102 52.1631 39.4357 56.0469 40.4354V0.96875ZM56.9585 62.0313C53.9116 61.0312 51.4009 60.6979 48.1865 60.6979C35.0288 60.6979 27.4287 68.7644 27.4287 82.9009C27.4287 96.6645 34.6943 104.264 48.0195 104.264C50.8984 104.264 53.2422 104.101 56.9585 103.601V62.0313Z" fill="#2BA977"/>
<path d="M124.603 42.3193V102.32C124.603 122.983 123.063 132.92 118.543 141.487C114.324 149.723 108.767 154.917 97.2827 160.653L73.1431 149.22C84.627 143.856 90.1846 139.116 93.7339 131.883C97.4497 124.487 98.6216 115.92 98.6216 93.3863V42.3198H124.603V42.3193ZM96 0.96875H122.015V27.5355H96V0.96875Z" fill="#2BA977"/>
</g>
<defs>
<clipPath id="clip0_419_6453">
<rect width="125" height="160" fill="white" transform="translate(0 0.96875)"/>
</clipPath>
</defs>
</svg>
