<svg width="303" height="89" viewBox="0 0 303 89" fill="none" xmlns="http://www.w3.org/2000/svg">
<g clip-path="url(#clip0_419_6497)">
<path d="M2.46536 69.1354V35.5035H44.4292V33.5363H2.46536V2.85434H47.0823V0.887695H0.5V71.1021H47.4752V69.1354H2.46595H2.46536ZM85.3119 20.5553L67.9174 43.4687L50.9151 20.5559H48.3599L66.7377 44.9442L46.5904 71.1015H48.9492L67.9162 46.418L86.9817 71.1015H89.4384L69.1938 44.9431L87.6695 20.5548H85.3113L85.3119 20.5553ZM95.3357 88.41V56.9418H95.5321C96.7118 61.5309 99.0375 65.2186 102.51 68.0051C105.982 70.791 110.404 72.1845 115.777 72.1845C119.249 72.1845 122.329 71.4798 125.015 70.0703C127.701 68.6609 129.945 66.7432 131.747 64.3174C133.548 61.8915 134.924 59.0726 135.874 55.86C136.824 52.6479 137.3 49.2712 137.3 45.7316C137.3 41.9288 136.808 38.421 135.825 35.209C134.842 31.9964 133.417 29.2099 131.55 26.8501C129.683 24.4898 127.423 22.6536 124.769 21.3433C122.116 20.0318 119.118 19.3761 115.777 19.3761C113.222 19.3761 110.847 19.7532 108.652 20.5069C106.457 21.2613 104.508 22.326 102.805 23.703C101.091 25.0906 99.6 26.7321 98.3822 28.5707C97.1376 30.4393 96.1874 32.488 95.5321 34.7173H95.3357V20.5553H93.3703V88.41H95.3357ZM115.777 70.3153C109.619 70.3153 104.672 68.2011 100.937 63.9727C97.2031 59.7443 95.3357 53.6631 95.3357 45.7304C95.3357 42.4523 95.7946 39.3382 96.7118 36.3883C97.629 33.4383 98.9555 30.8484 100.691 28.6197C102.428 26.3904 104.574 24.6203 107.128 23.3094C109.684 21.9979 112.567 21.3421 115.777 21.3421C119.053 21.3421 121.919 21.9979 124.376 23.3094C126.833 24.6203 128.864 26.4069 130.469 28.6686C132.074 30.9304 133.286 33.5203 134.105 36.4373C134.924 39.3548 135.334 42.4523 135.334 45.7304C135.334 48.681 134.957 51.615 134.203 54.5319C133.45 57.4494 132.287 60.0718 130.714 62.3997C129.143 64.7264 127.128 66.6275 124.671 68.1031C122.214 69.5781 119.249 70.3153 115.777 70.3153ZM148.11 71.1021V42.4853C148.11 39.7319 148.502 37.0434 149.289 34.4216C150.075 31.7992 151.287 29.4879 152.925 27.4888C154.563 25.4891 156.643 23.9155 159.166 22.7681C161.688 21.6207 164.685 21.1456 168.158 21.3421V19.3755C165.144 19.3105 162.507 19.6375 160.247 20.3588C157.986 21.0801 156.037 22.0634 154.399 23.3094C152.761 24.5547 151.451 26.0132 150.468 27.6853C149.486 29.3548 148.758 31.1609 148.306 33.0446H148.11V20.5553H146.144V71.1026H148.11V71.1021ZM170.614 46.2221H212.873C213.004 42.7474 212.66 39.4043 211.841 36.1917C211.022 32.9791 209.712 30.1271 207.91 27.6363C206.108 25.145 203.783 23.1453 200.932 21.6372C198.082 20.1292 194.692 19.3755 190.761 19.3755C187.943 19.3755 185.192 19.9657 182.506 21.1462C179.82 22.326 177.461 24.0466 175.43 26.3083C173.399 28.5701 171.761 31.34 170.517 34.6188C169.272 37.8963 168.649 41.633 168.649 45.829C168.649 49.5657 169.075 53.057 169.927 56.302C170.778 59.5471 172.088 62.3666 173.857 64.7594C175.627 67.1522 177.904 69.0044 180.688 70.3153C183.472 71.6268 186.83 72.2495 190.761 72.184C196.526 72.184 201.375 70.5608 205.306 67.3163C209.237 64.0706 211.563 59.4981 212.283 53.5976H210.318C209.466 59.1706 207.287 63.35 203.783 66.1359C200.277 68.9223 195.872 70.3153 190.564 70.3153C186.961 70.3153 183.914 69.6926 181.425 68.4472C178.935 67.2018 176.904 65.4966 175.331 63.3335C173.76 61.1697 172.596 58.6293 171.843 55.7118C171.089 52.7949 170.68 49.6313 170.614 46.2221ZM210.907 44.2554H170.615C170.811 40.7152 171.466 37.5357 172.58 34.7167C173.694 31.8972 175.152 29.4879 176.954 27.4888C178.755 25.4891 180.852 23.9651 183.243 22.9157C185.634 21.8668 188.206 21.3421 190.958 21.3421C194.234 21.3421 197.116 21.9489 199.606 23.1618C202.095 24.3747 204.175 26.0303 205.846 28.128C207.517 30.2257 208.778 32.668 209.63 35.4539C210.481 38.2404 210.907 41.1744 210.907 44.2554ZM253.657 35.5035H255.623C255.623 29.865 253.985 25.7677 250.709 23.2108C247.433 20.6539 242.978 19.3755 237.344 19.3755C234.198 19.3755 231.545 19.7692 229.383 20.5559C227.221 21.3421 225.452 22.3585 224.076 23.6039C222.701 24.8493 221.718 26.2263 221.128 27.7343C220.538 29.2423 220.243 30.6849 220.243 32.0613C220.243 34.8147 220.735 37.011 221.718 38.65C222.701 40.2891 224.24 41.5675 226.336 42.4853C227.778 43.1405 229.415 43.7307 231.25 44.256C233.085 44.7802 235.214 45.3373 237.638 45.927C239.8 46.4523 241.93 46.9764 244.026 47.5005C246.123 48.0252 247.974 48.73 249.579 49.6147C251.184 50.5001 252.494 51.631 253.51 53.008C254.525 54.3844 255.033 56.1875 255.033 58.4162C255.033 60.58 254.526 62.4156 253.51 63.9231C252.503 65.4233 251.177 66.6826 249.628 67.6114C248.056 68.5617 246.303 69.2499 244.37 69.6761C242.437 70.1022 240.554 70.3153 238.72 70.3153C232.757 70.3153 228.187 68.9879 225.01 66.333C221.832 63.6776 220.244 59.4981 220.244 53.7942H218.278C218.278 60.1539 219.998 64.8084 223.437 67.759C226.877 70.709 231.971 72.184 238.72 72.184C240.881 72.184 243.06 71.9378 245.255 71.4462C247.449 70.9545 249.415 70.1518 251.151 69.0368C252.872 67.9377 254.318 66.4575 255.377 64.7105C256.458 62.9398 256.999 60.7766 256.999 58.2197C256.999 55.7939 256.523 53.8272 255.574 52.3192C254.624 50.8117 253.379 49.5657 251.839 48.5824C250.299 47.5991 248.564 46.8288 246.631 46.2717C244.687 45.7112 242.737 45.1701 240.783 44.6485C238.377 44.017 235.97 43.3943 233.56 42.7805C231.496 42.2557 229.58 41.633 227.811 40.9118C226.108 40.1905 224.748 39.1582 223.732 37.8143C222.717 36.4703 222.209 34.5527 222.209 32.0613C222.209 31.6027 222.34 30.7829 222.602 29.603C222.864 28.4225 223.487 27.2261 224.47 26.0132C225.452 24.8009 226.959 23.719 228.99 22.7681C231.021 21.8178 233.806 21.3421 237.344 21.3421C239.768 21.3421 241.979 21.6048 243.977 22.1289C245.975 22.6536 247.695 23.4894 249.136 24.6368C250.578 25.7842 251.691 27.2427 252.478 29.0128C253.264 30.7834 253.657 32.9466 253.657 35.5035ZM299.159 35.5035H301.124C301.124 29.865 299.486 25.7677 296.211 23.2108C292.935 20.6539 288.479 19.3755 282.845 19.3755C279.7 19.3755 277.046 19.7692 274.885 20.5559C272.722 21.3421 270.953 22.3585 269.578 23.6039C268.202 24.8493 267.219 26.2263 266.629 27.7343C266.039 29.2423 265.745 30.6849 265.745 32.0613C265.745 34.8147 266.236 37.011 267.22 38.65C268.202 40.2891 269.742 41.5675 271.838 42.4853C273.28 43.1405 274.917 43.7307 276.752 44.256C278.586 44.7802 280.715 45.3373 283.14 45.927C285.302 46.4523 287.431 46.9764 289.528 47.5005C291.624 48.0252 293.475 48.73 295.08 49.6147C296.685 50.5001 297.996 51.631 299.011 53.008C300.027 54.3844 300.535 56.1875 300.535 58.4162C300.535 60.58 300.027 62.4156 299.011 63.9231C298.004 65.4232 296.679 66.6826 295.13 67.6114C293.557 68.5617 291.804 69.2499 289.871 69.6761C287.939 70.1022 286.055 70.3153 284.221 70.3153C278.259 70.3153 273.689 68.9879 270.512 66.333C267.334 63.6776 265.745 59.4981 265.745 53.7942H263.78C263.78 60.1539 265.499 64.8084 268.939 67.759C272.378 70.709 277.472 72.184 284.221 72.184C286.383 72.184 288.561 71.9378 290.756 71.4462C292.95 70.9545 294.916 70.1518 296.653 69.0368C298.374 67.9377 299.82 66.4575 300.879 64.7105C301.96 62.9398 302.5 60.7766 302.5 58.2197C302.5 55.7939 302.025 53.8272 301.075 52.3192C300.125 50.8117 298.881 49.5657 297.341 48.5824C295.801 47.5991 294.065 46.8288 292.132 46.2717C290.189 45.7112 288.239 45.1701 286.285 44.6485C283.879 44.017 281.471 43.3943 279.061 42.7805C276.998 42.2557 275.081 41.633 273.312 40.9118C271.609 40.1905 270.249 39.1582 269.234 37.8143C268.218 36.4703 267.71 34.5527 267.71 32.0613C267.71 31.6027 267.841 30.7829 268.104 29.603C268.366 28.4225 268.989 27.2261 269.971 26.0132C270.953 24.8009 272.46 23.719 274.491 22.7681C276.523 21.8178 279.307 21.3421 282.845 21.3421C285.27 21.3421 287.48 21.6048 289.479 22.1289C291.477 22.6536 293.196 23.4894 294.638 24.6368C296.08 25.7842 297.193 27.2427 297.979 29.0128C298.766 30.7834 299.159 32.9466 299.159 35.5035H299.159Z" fill="#222222"/>
</g>
<defs>
<clipPath id="clip0_419_6497">
<rect width="302" height="88" fill="white" transform="translate(0.5 0.859863)"/>
</clipPath>
</defs>
</svg>
