<svg width="312" height="469" viewBox="0 0 312 469" fill="none" xmlns="http://www.w3.org/2000/svg">
<g clip-path="url(#clip0_419_6634)">
<path d="M78.0157 468.679C121.063 468.679 156 433.735 156 390.679V312.679H78.0157C34.9683 312.679 0.03125 347.623 0.03125 390.679C0.03125 433.735 34.9683 468.679 78.0157 468.679Z" fill="#0ACF83"/>
<path d="M0.03125 234.679C0.03125 191.623 34.9683 156.679 78.0157 156.679H156V312.679H78.0157C34.9683 312.679 0.03125 277.735 0.03125 234.679Z" fill="#A259FF"/>
<path d="M0.03125 78.6792C0.03125 35.6232 34.9683 0.679199 78.0157 0.679199H156V156.679H78.0157C34.9683 156.679 0.03125 121.735 0.03125 78.6792Z" fill="#F24E1E"/>
<path d="M156 0.679199H233.984C277.032 0.679199 311.969 35.6232 311.969 78.6792C311.969 121.735 277.032 156.679 233.984 156.679H156V0.679199Z" fill="#FF7262"/>
<path d="M311.969 234.679C311.969 277.735 277.032 312.679 233.984 312.679C190.937 312.679 156 277.735 156 234.679C156 191.623 190.937 156.679 233.984 156.679C277.032 156.679 311.969 191.623 311.969 234.679Z" fill="#1ABCFE"/>
</g>
<defs>
<clipPath id="clip0_419_6634">
<rect width="312" height="468" fill="white" transform="translate(0 0.679199)"/>
</clipPath>
</defs>
</svg>
