<svg width="135" height="136" viewBox="0 0 135 136" fill="none" xmlns="http://www.w3.org/2000/svg">
<g clip-path="url(#clip0_419_6487)">
<path d="M67.5 0.179199C30.4946 0.179199 0.5 30.3976 0.5 67.6792C0.5 104.961 30.4946 135.179 67.5 135.179C104.505 135.179 134.5 104.961 134.5 67.6792C134.5 30.3976 104.505 0.179199 67.5 0.179199ZM14.897 68.3812L66.8032 120.675C38.2987 120.302 15.2668 97.0984 14.897 68.3812ZM79.2759 119.352L16.2102 55.8154C21.5594 32.2552 42.4902 14.6728 67.5 14.6728C84.979 14.6728 100.469 23.2642 110.037 36.4834L102.753 42.958C94.9914 31.7476 82.0953 24.409 67.5 24.409C48.9169 24.409 33.0888 36.2998 27.107 52.9426L82.1274 108.368C95.4899 103.492 105.765 92.1304 109.206 78.058H86.4047V67.6792H120.119C120.114 92.8756 102.662 113.963 79.2759 119.352Z" fill="#744C9E"/>
</g>
<defs>
<clipPath id="clip0_419_6487">
<rect width="134" height="135" fill="white" transform="translate(0.5 0.179199)"/>
</clipPath>
</defs>
</svg>
