<svg width="127" height="146" viewBox="0 0 127 146" fill="none" xmlns="http://www.w3.org/2000/svg">
<path d="M12.9936 108.88L7.89941 105.953L64.649 8.14111L69.7432 11.0679L12.9936 108.88Z" fill="#E535AB"/>
<path d="M6.73291 98.1389H120.232V103.993H6.73291V98.1389Z" fill="#E535AB"/>
<path d="M65.7494 134.046L8.97852 101.428L11.9196 96.3582L68.6905 128.976L65.7494 134.046ZM115.066 49.0344L58.2952 16.4163L61.2363 11.3469L118.007 43.965L115.066 49.0344Z" fill="#E535AB"/>
<path d="M11.9353 49.0119L8.99414 43.9428L65.765 11.3247L68.7061 16.3937L11.9353 49.0119Z" fill="#E535AB"/>
<path d="M114.019 108.881L57.2697 11.0689L62.3639 8.14209L119.113 105.954L114.019 108.881ZM11.2329 40.0609H17.1152V105.297H11.2329V40.0609Z" fill="#E535AB"/>
<path d="M109.885 40.061H115.767V105.297H109.885V40.061Z" fill="#E535AB"/>
<path d="M64.7483 131.568L62.1792 127.14L111.555 98.7708L114.124 103.199L64.7483 131.568Z" fill="#E535AB"/>
<path d="M123.563 107.201C120.161 113.09 112.578 115.1 106.66 111.715C100.742 108.33 98.7227 100.784 102.124 94.8947C105.526 89.0058 113.109 86.9959 119.027 90.3811C124.98 93.8016 127 101.313 123.563 107.201ZM24.8401 50.4636C21.4383 56.3525 13.8552 58.3624 7.93751 54.9772C2.01982 51.592 9.77516e-06 44.0457 3.4018 38.1568C6.80358 32.2679 14.3867 30.258 20.3044 33.6432C26.2221 37.0637 28.2419 44.5747 24.8401 50.4636ZM3.43723 107.201C0.0354452 101.313 2.05525 93.8016 7.97294 90.3811C13.8906 86.9959 21.4383 89.0058 24.8756 94.8947C28.2774 100.784 26.2575 108.295 20.3399 111.715C14.3867 115.1 6.83902 113.09 3.43723 107.201ZM102.16 50.4636C98.7581 44.5747 100.778 37.0637 106.696 33.6432C112.613 30.258 120.161 32.2679 123.598 38.1568C127 44.0457 124.98 51.5567 119.062 54.9772C113.145 58.3624 105.562 56.3525 102.16 50.4636ZM63.5 141.724C56.661 141.724 51.1331 136.223 51.1331 129.417C51.1331 122.611 56.661 117.11 63.5 117.11C70.339 117.11 75.8669 122.611 75.8669 129.417C75.8669 136.188 70.339 141.724 63.5 141.724ZM63.5 28.248C56.661 28.248 51.1331 22.747 51.1331 15.9412C51.1331 9.13552 56.661 3.63452 63.5 3.63452C70.339 3.63452 75.8669 9.13552 75.8669 15.9412C75.8669 22.747 70.339 28.248 63.5 28.248Z" fill="#E535AB"/>
</svg>
