<?xml version="1.0" standalone="no"?>
<!DOCTYPE svg PUBLIC "-//W3C//DTD SVG 20010904//EN"
 "http://www.w3.org/TR/2001/REC-SVG-20010904/DTD/svg10.dtd">
<svg version="1.0" xmlns="http://www.w3.org/2000/svg"
 width="500.000000pt" height="500.000000pt" viewBox="0 0 500.000000 500.000000"
 preserveAspectRatio="xMidYMid meet">

<g transform="translate(0.000000,500.000000) scale(0.100000,-0.100000)"
fill="#000000" stroke="none">
<path d="M1682 1910 c-81 -9 -171 -47 -194 -83 -43 -65 -94 -339 -78 -412 13
-57 54 -161 123 -306 48 -103 58 -117 92 -133 41 -20 220 -59 324 -71 l65 -7
-16 23 c-53 82 -87 144 -129 238 l-47 106 -139 3 -139 3 -12 32 c-22 61 -16
105 21 142 52 52 93 58 332 52 274 -7 467 -41 1099 -193 148 -36 278 -64 290
-62 16 2 39 38 98 158 103 206 103 206 75 234 -71 71 -553 179 -1097 246 -138
17 -529 43 -580 39 -8 -1 -48 -5 -88 -9z"/>
<path d="M2120 1234 c0 -8 40 -101 86 -201 43 -95 74 -116 160 -110 37 3 85
15 118 30 61 28 267 159 286 182 14 17 -13 24 -205 54 -278 43 -445 59 -445
45z"/>
<path d="M2752 1010 c-57 -66 -130 -142 -162 -168 -32 -26 -59 -49 -59 -52 -1
-3 21 -13 49 -23 95 -34 180 -76 187 -93 4 -11 -1 -22 -13 -31 -28 -22 -188
-11 -404 27 -382 68 -458 80 -532 86 -106 9 -109 6 -91 -99 28 -164 92 -314
180 -424 48 -60 178 -162 251 -196 87 -40 163 -46 221 -15 62 32 84 75 78 155
-9 119 -60 175 -129 141 -18 -9 -64 -44 -101 -78 l-68 -62 -61 12 c-109 21
-136 36 -149 83 -16 59 -7 151 17 185 53 72 225 102 470 82 172 -14 272 -13
327 4 125 37 222 162 312 403 l26 68 -32 27 c-33 27 -128 70 -184 82 -29 6
-35 0 -133 -114z"/>
</g>
</svg>
