<svg width="278" height="186" viewBox="0 0 278 186" fill="none" xmlns="http://www.w3.org/2000/svg">
<path d="M32.0771 137.968H39.1223V110.198L50.0286 134.407C51.3157 137.337 53.0772 138.374 56.5318 138.374C59.9869 138.374 61.6805 137.337 62.9681 134.407L73.8744 110.198V137.968H80.9196V110.243C80.9196 107.538 79.8355 106.231 77.6005 105.555C72.2488 103.887 68.6582 105.329 67.0321 108.936L56.3288 132.829L45.9646 108.936C44.4065 105.329 40.7484 103.887 35.3968 105.555C33.1612 106.231 32.0771 107.539 32.0771 110.243V137.968ZM86.7776 115.365H93.8206V130.664C93.7547 131.495 94.0878 133.446 97.9472 133.506C99.9161 133.537 113.144 133.506 113.267 133.506V115.29H120.326C120.359 115.29 120.319 140.132 120.32 140.238C120.358 146.365 112.704 147.696 109.176 147.798H86.9301V143.067C86.9696 143.067 109.16 143.072 109.216 143.066C113.75 142.588 113.214 140.339 113.214 139.581V137.737H98.2391C91.2718 137.673 86.8357 134.638 86.7809 131.146C86.7754 130.823 86.9312 115.517 86.777 115.364L86.7776 115.365Z" fill="#00618A"/>
<path d="M125.756 137.968H146.01C148.382 137.968 150.685 137.473 152.514 136.616C155.562 135.219 157.053 133.326 157.053 130.845V125.707C157.053 123.678 155.359 121.784 152.04 120.522C150.278 119.845 148.111 119.485 146.01 119.485H137.474C134.63 119.485 133.275 118.629 132.937 116.735C132.869 116.51 132.869 116.329 132.869 116.104V112.904C132.869 112.723 132.869 112.542 132.937 112.317C133.275 110.875 134.021 110.468 136.527 110.243C136.73 110.243 137.001 110.198 137.204 110.198H157.324V105.51H137.543C134.698 105.51 133.207 105.69 131.853 106.096C127.652 107.403 125.823 109.477 125.823 113.083V117.186C125.823 120.342 129.414 123.047 135.443 123.678C136.121 123.722 136.798 123.767 137.475 123.767H144.791C145.062 123.767 145.333 123.767 145.536 123.813C147.772 123.994 148.72 124.399 149.398 125.21C149.804 125.616 149.94 126.022 149.94 126.473V130.574C149.94 131.071 149.601 131.702 148.924 132.243C148.314 132.784 147.298 133.145 145.943 133.235C145.672 133.235 145.469 133.28 145.198 133.28H125.755V137.968L125.756 137.968ZM201.003 129.809C201.003 134.632 204.593 137.337 211.842 137.878C212.519 137.923 213.197 137.968 213.874 137.968H232.232V133.28H213.738C209.606 133.28 208.048 132.243 208.048 129.764V105.51H201.003V129.809ZM161.549 130.055V113.34C161.549 109.093 164.536 106.518 170.442 105.705C171.071 105.615 171.706 105.57 172.342 105.569H185.715C186.394 105.569 187.006 105.615 187.684 105.705C193.59 106.518 196.577 109.093 196.577 113.34V130.054C196.577 133.499 195.308 135.343 192.385 136.544L199.325 142.797H191.144L185.53 137.738L179.878 138.096H172.342C171.053 138.096 169.695 137.915 168.202 137.508C163.722 136.289 161.549 133.939 161.549 130.054V130.055ZM169.153 129.648C169.153 129.874 169.221 130.1 169.289 130.371C169.696 132.314 171.529 133.398 174.312 133.398H180.713L174.833 128.1H183.013L188.141 132.72C189.086 132.218 189.708 131.449 189.925 130.461C189.993 130.236 189.993 130.01 189.993 129.784V113.747C189.993 113.566 189.993 113.34 189.925 113.114C189.518 111.307 187.685 110.269 184.97 110.269H174.312C171.19 110.269 169.153 111.624 169.153 113.747V129.648H169.153Z" fill="#E48E00"/>
<path d="M238.43 97.7323C234.099 97.6151 230.791 98.0171 227.963 99.2076C227.16 99.546 225.878 99.5548 225.747 100.56C226.189 101.022 226.257 101.712 226.608 102.281C227.283 103.372 228.424 104.833 229.441 105.6C230.552 106.438 231.698 107.333 232.889 108.059C235.009 109.348 237.375 110.085 239.415 111.377C240.618 112.139 241.813 113.099 242.986 113.958C243.566 114.383 243.956 115.044 244.71 115.311V115.188C244.314 114.684 244.212 113.992 243.848 113.467L242.247 111.869C240.682 109.795 238.695 107.973 236.583 106.46C234.899 105.253 231.129 103.624 230.426 101.666L230.303 101.543C231.497 101.409 232.895 100.978 233.997 100.683C235.849 100.187 237.503 100.315 239.415 99.8226C240.277 99.5767 241.139 99.3303 242.002 99.0849V98.5932C241.035 97.6031 240.346 96.2932 239.291 95.3973C236.535 93.0534 233.525 90.7118 230.426 88.7596C228.707 87.6764 226.583 86.9727 224.762 86.0549C224.149 85.7466 223.072 85.5861 222.668 85.0713C221.711 83.854 221.19 82.3102 220.451 80.8919C218.906 77.9211 217.388 74.6759 216.019 71.5495C215.084 69.4182 214.474 67.3164 213.31 65.4036C207.718 56.2271 201.699 50.6891 192.376 45.2446C190.392 44.087 188.003 43.6291 185.479 43.0322L181.416 42.7858C180.589 42.4408 179.729 41.4315 178.952 40.942C175.864 38.9946 167.942 34.7577 165.654 40.3275C164.21 43.8433 167.813 47.2741 169.102 49.0555C170.006 50.3052 171.164 51.706 171.811 53.1117C172.236 54.0356 172.309 54.9616 172.673 55.9391C173.568 58.347 174.346 60.9662 175.505 63.1912C176.09 64.3171 176.736 65.5033 177.476 66.5098C177.929 67.128 178.707 67.4002 178.83 68.3542C178.069 69.4165 178.026 71.0649 177.599 72.4104C175.674 78.4682 176.4 85.9968 179.199 90.4802C180.058 91.8564 182.082 94.808 184.864 93.6761C187.297 92.6865 186.754 89.6204 187.45 86.9157C187.607 86.3024 187.51 85.8512 187.819 85.4404V85.5637L190.035 89.9884C191.676 92.6252 194.588 95.3814 197.055 97.2411C198.334 98.2055 199.341 99.873 200.995 100.437V100.314H200.872C200.552 99.8155 200.05 99.6085 199.641 99.2076C198.677 98.2646 197.606 97.0921 196.809 96.0117C194.565 92.9708 192.581 89.6429 190.775 86.1781C189.912 84.5243 189.162 82.6985 188.435 81.0151C188.154 80.3662 188.158 79.3849 187.573 79.0481C186.777 80.2819 185.603 81.2796 184.987 82.7363C184.002 85.0648 183.875 87.9042 183.51 90.8487C183.294 90.9259 183.389 90.8728 183.263 90.9714C181.548 90.5585 180.945 88.7963 180.308 87.2843C178.695 83.4608 178.396 77.3039 179.814 72.9027C180.182 71.7636 181.841 68.1767 181.169 67.1253C180.849 66.0755 179.791 65.4682 179.199 64.6665C178.467 63.6748 177.736 62.3692 177.229 61.2242C175.909 58.2429 175.293 54.8964 173.904 51.8829C173.24 50.4421 172.117 48.9843 171.195 47.7034C170.174 46.2851 169.031 45.2391 168.24 43.5235C167.958 42.914 167.576 41.9381 167.993 41.3111C168.126 40.8883 168.313 40.7114 168.732 40.5734C169.447 40.0242 171.436 40.7563 172.18 41.0652C174.155 41.8839 175.803 42.6637 177.476 43.7693C178.279 44.3011 179.091 45.329 180.061 45.6137H181.169C182.903 46.0113 184.845 45.7369 186.465 46.2281C189.327 47.0967 191.892 48.4471 194.222 49.9158C201.32 54.3893 207.123 60.7576 211.093 68.3542C211.732 69.577 212.008 70.7445 212.571 72.0418C213.706 74.6584 215.135 77.3505 216.264 79.9089C217.391 82.4608 218.489 85.0374 220.082 87.1616C220.92 88.2782 224.154 88.8773 225.623 89.4967C226.654 89.9315 228.342 90.3843 229.318 90.9714C231.182 92.094 232.988 93.4302 234.736 94.6596C235.61 95.274 238.296 96.6217 238.43 97.7323H238.43Z" fill="#00618A"/>
<path fill-rule="evenodd" clip-rule="evenodd" d="M183.386 50.8993C182.483 50.8828 181.845 50.9978 181.169 51.1446V51.2678H181.293C181.724 52.1511 182.483 52.7196 183.017 53.4802C183.427 54.3409 183.837 55.2013 184.248 56.0617L184.371 55.939C185.134 55.4023 185.483 54.5442 185.479 53.2349C185.174 52.914 185.128 52.5109 184.864 52.1281C184.512 51.6177 183.83 51.3286 183.386 50.8993Z" fill="#00618A"/>
<path fill-rule="evenodd" clip-rule="evenodd" d="M235.539 133.146C235.539 136.243 237.99 138.329 240.731 138.329C243.473 138.329 245.923 136.243 245.923 133.146C245.923 130.051 243.473 127.964 240.731 127.964C237.99 127.964 235.539 130.051 235.539 133.146H235.539ZM244.76 133.146C244.76 135.496 242.961 137.251 240.731 137.251C238.475 137.251 236.702 135.496 236.702 133.146C236.702 130.797 238.474 129.042 240.731 129.042C242.961 129.042 244.76 130.797 244.76 133.146ZM242.13 136.104H243.293L241.59 133.506C242.504 133.409 243.195 132.967 243.195 131.889C243.195 130.687 242.435 130.189 240.967 130.189H238.655V136.104H239.651V133.547H240.579L242.13 136.104V136.104ZM239.651 132.718V131.018H240.8C241.396 131.018 242.116 131.129 242.116 131.82C242.116 132.649 241.465 132.718 240.717 132.718H239.651Z" fill="#E48E00"/>
</svg>
