<svg width="309" height="185" viewBox="0 0 309 185" fill="none" xmlns="http://www.w3.org/2000/svg">
<g clip-path="url(#clip0_419_6514)">
<path d="M73.1748 48.6917H131.266V53.2619H78.4998V87.6555H128.12V92.2251H78.4998V129.986H131.872V134.556H73.1748V48.6917ZM136.471 48.6917H142.643L169.994 86.4529L197.951 48.6911L235.976 0.726807L173.504 90.4217L205.697 134.556H199.282L169.994 94.39L140.585 134.556H134.292L166.727 90.4211L136.471 48.6917ZM207.996 53.2619V48.6911H274.197V53.2613H243.698V134.555H238.373V53.2619H207.996ZM0.5 48.6911H7.15629L98.9427 184.631L61.0124 134.555L6.06686 55.1856L5.82503 134.556H0.5L0.5 48.6911ZM273.66 128.606C272.572 128.606 271.756 127.773 271.756 126.694C271.756 125.616 272.572 124.781 273.66 124.781C274.761 124.781 275.564 125.616 275.564 126.694C275.564 127.772 274.761 128.606 273.66 128.606ZM278.892 123.575H281.742C281.78 125.102 282.907 126.129 284.565 126.129C286.417 126.129 287.466 125.026 287.466 122.959V109.866H290.368V122.971C290.368 126.694 288.192 128.838 284.591 128.838C281.21 128.838 278.892 126.758 278.892 123.575V123.575ZM294.162 123.408H297.038C297.284 125.167 299.019 126.283 301.519 126.283C303.851 126.283 305.56 125.089 305.56 123.447C305.56 122.035 304.472 121.188 301.998 120.61L299.589 120.033C296.208 119.249 294.668 117.632 294.668 114.911C294.668 111.613 297.387 109.417 301.467 109.417C305.262 109.417 308.034 111.612 308.202 114.731H305.379C305.107 113.024 303.604 111.959 301.428 111.959C299.136 111.959 297.608 113.05 297.608 114.718C297.608 116.04 298.592 116.798 301.027 117.362L303.086 117.863C306.92 118.749 308.5 120.289 308.5 123.074C308.5 126.617 305.729 128.838 301.299 128.838C297.155 128.838 294.369 126.719 294.162 123.408V123.408Z" fill="black"/>
</g>
<defs>
<clipPath id="clip0_419_6514">
<rect width="308" height="184" fill="white" transform="translate(0.5 0.679199)"/>
</clipPath>
</defs>
</svg>
