<svg width="361" height="102" viewBox="0 0 361 102" fill="none" xmlns="http://www.w3.org/2000/svg">
<g clip-path="url(#clip0_419_6500)">
<path d="M331.703 36.5498C330.829 36.5498 329.978 36.7288 329.225 37.1509L305.398 50.7824C303.856 51.6629 302.918 53.3249 302.918 55.0934V82.307C302.918 84.0741 303.856 85.734 305.398 86.6166L311.62 90.1752C314.644 91.6512 315.758 91.6282 317.134 91.6282C321.61 91.6282 324.166 88.9375 324.166 84.2615V57.3983C324.166 57.0187 323.834 56.747 323.458 56.747H320.473C320.091 56.747 319.765 57.0187 319.765 57.3983V84.2615C319.765 86.3338 317.585 88.4185 314.049 86.6667L307.573 82.9081C307.344 82.7848 307.168 82.5668 307.168 82.307V55.0927C307.168 54.835 307.342 54.5724 307.573 54.4414L331.35 40.8608C331.457 40.7986 331.579 40.7658 331.704 40.7658C331.828 40.7658 331.95 40.7986 332.058 40.8608L355.835 54.4421C356.061 54.5773 356.24 54.8273 356.24 55.0941V82.3077C356.24 82.5675 356.108 82.8336 355.886 82.959L332.058 96.5403C331.854 96.6608 331.573 96.6608 331.35 96.5403L325.228 92.9322C325.135 92.8821 325.031 92.8559 324.925 92.8559C324.819 92.8559 324.715 92.8821 324.622 92.9322C322.932 93.8809 322.614 93.9909 321.029 94.5356C320.639 94.6708 320.046 94.8804 321.232 95.5387L329.225 100.199C329.979 100.629 330.834 100.854 331.704 100.851C332.574 100.856 333.43 100.631 334.183 100.199L358.011 86.6172C359.552 85.7291 360.489 84.0748 360.489 82.3077V55.0934C360.489 53.3256 359.552 51.6664 358.011 50.7838L334.183 37.1523C333.436 36.7295 332.579 36.5505 331.704 36.5505L331.703 36.5498Z" fill="#83CD29"/>
<path d="M338.078 55.9954C331.293 55.9954 327.252 58.8561 327.252 63.6135C327.252 68.7736 331.263 70.1918 337.775 70.8298C345.566 71.5856 346.172 72.7189 346.172 74.2381C346.172 76.8731 344.052 77.9966 339.04 77.9966C332.742 77.9966 331.358 76.4392 330.895 73.336C330.84 73.0031 330.581 72.7342 330.237 72.7342H327.151C326.771 72.7342 326.443 73.0588 326.443 73.4363C326.443 77.4088 328.624 82.1063 339.04 82.1063C346.579 82.1063 350.928 79.1745 350.928 74.0374C350.928 68.9457 347.415 67.5783 340.102 66.6206C332.712 65.6517 332.007 65.1773 332.007 63.4631C332.007 62.0477 332.605 60.1545 338.078 60.1545C342.968 60.1545 344.775 61.1993 345.515 64.4654C345.58 64.7719 345.852 65.0164 346.172 65.0164H349.259C349.449 65.0164 349.633 64.9008 349.765 64.7656C349.894 64.6215 349.985 64.4592 349.967 64.2648C349.489 58.6409 345.703 55.9954 338.078 55.9954Z" fill="#83CD29"/>
<path d="M191.622 0.866779C191.356 0.866954 191.094 0.935852 190.863 1.06669C190.633 1.19992 190.442 1.39017 190.309 1.61869C190.176 1.84722 190.105 2.10614 190.104 2.36994V40.7095C190.104 41.0857 189.927 41.4228 189.598 41.6116C189.437 41.7046 189.254 41.7537 189.067 41.7537C188.881 41.7537 188.697 41.7046 188.536 41.6116L182.212 38.0034C181.751 37.739 181.227 37.5998 180.695 37.5998C180.162 37.5998 179.638 37.739 179.177 38.0034L153.933 52.4367C152.989 52.9765 152.415 54.0137 152.415 55.0933V83.9605C152.415 85.0388 152.99 86.0265 153.933 86.5663L179.177 101C179.638 101.265 180.161 101.405 180.695 101.405C181.228 101.405 181.751 101.265 182.212 101L207.456 86.5663C207.918 86.3028 208.302 85.9231 208.569 85.4655C208.835 85.008 208.975 84.4888 208.974 83.9605V11.9928C208.974 11.4521 208.828 10.9213 208.553 10.4546C208.277 9.98787 207.882 9.60192 207.406 9.33615L192.381 1.01654C192.145 0.886282 191.884 0.863296 191.622 0.866779ZM29.2301 36.9008C28.7491 36.9196 28.2963 37.0032 27.8646 37.2512L2.61988 51.6851C2.15745 51.9483 1.77351 52.328 1.50703 52.7856C1.24055 53.2432 1.101 53.7626 1.10255 54.2909L1.15318 93.0324C1.15318 93.5708 1.43372 94.0717 1.91184 94.335C2.14106 94.4714 2.40344 94.5435 2.67085 94.5435C2.93827 94.5435 3.20065 94.4714 3.42987 94.335L18.4042 85.8154C19.3527 85.2568 19.9721 84.2858 19.9721 83.2089V65.1167C19.9721 64.0371 20.5452 63.0466 21.4901 62.5102L27.8639 58.8519C28.3247 58.5865 28.8489 58.4479 29.3819 58.4507C29.9022 58.4507 30.4366 58.5796 30.8993 58.8519L37.2737 62.5102C37.7366 62.7731 38.1209 63.1528 38.3875 63.6107C38.6542 64.0685 38.7936 64.5881 38.7917 65.1167V83.2083C38.7917 84.2851 39.4175 85.2631 40.3597 85.8147L55.334 94.335C55.5632 94.4714 55.8256 94.5435 56.093 94.5435C56.3604 94.5435 56.6228 94.4714 56.852 94.335C57.0827 94.2027 57.2743 94.0127 57.4076 93.7839C57.5409 93.5552 57.6111 93.2958 57.6114 93.0317L57.6606 54.2909C57.6636 53.7623 57.5247 53.2424 57.258 52.7845C56.9914 52.3266 56.6067 51.9472 56.1433 51.6851L30.8993 37.2512C30.4725 37.0032 30.0182 36.9203 29.5338 36.9008H29.2301ZM256.073 37.2512C255.545 37.2512 255.028 37.3835 254.555 37.6524L229.311 52.0863C228.849 52.3497 228.465 52.7294 228.199 53.187C227.932 53.6446 227.792 54.1638 227.793 54.6921V83.5593C227.793 84.6452 228.411 85.6288 229.361 86.1658L254.403 100.299C255.328 100.821 256.457 100.861 257.388 100.348L272.565 91.9785C273.047 91.7138 273.372 91.2193 273.374 90.676C273.377 90.4114 273.308 90.151 273.174 89.9218C273.041 89.6926 272.848 89.503 272.615 89.3727L247.22 74.9388C246.744 74.6699 246.41 74.1259 246.41 73.5854V64.565C246.41 64.0252 246.748 63.5307 247.22 63.2618L255.111 58.7509C255.342 58.6187 255.604 58.549 255.87 58.549C256.137 58.549 256.399 58.6187 256.629 58.7509L264.521 63.2618C264.752 63.3934 264.944 63.5831 265.077 63.8119C265.21 64.0406 265.28 64.3002 265.28 64.5643V71.681C265.279 71.9451 265.349 72.2047 265.482 72.4335C265.615 72.6622 265.807 72.852 266.039 72.9836C266.512 73.2545 267.084 73.2552 267.556 72.9836L282.683 64.2648C283.144 64.0003 283.527 63.6203 283.794 63.1628C284.06 62.7053 284.201 62.1865 284.201 61.6583V54.6928C284.201 53.6166 283.624 52.6268 282.683 52.0863L257.591 37.6524C257.129 37.388 256.605 37.2498 256.073 37.2519V37.2512ZM180.593 58.8018C180.725 58.8018 180.88 58.8338 180.998 58.9014L189.649 63.8629C189.884 63.9973 190.054 64.246 190.054 64.5142V74.4373C190.054 74.7068 189.885 74.9548 189.649 75.0892L180.998 80.0508C180.882 80.1161 180.752 80.1505 180.619 80.1505C180.486 80.1505 180.355 80.1161 180.239 80.0508L171.589 75.0892C171.353 74.9541 171.184 74.7068 171.184 74.4373V64.5142C171.184 64.2453 171.354 63.9987 171.589 63.8629L180.239 58.9021C180.346 58.8366 180.468 58.802 180.594 58.8025V58.8018H180.593Z" fill="#404137"/>
<path d="M105.064 37.1008C104.538 37.1008 104.017 37.2332 103.546 37.5021L78.3022 51.8858C77.3579 52.4243 76.7842 53.4635 76.7842 54.5418V83.409C76.7842 84.4887 77.3586 85.475 78.3022 86.0155L103.546 100.449C104.007 100.714 104.531 100.854 105.064 100.854C105.597 100.854 106.121 100.714 106.582 100.449L131.826 86.0155C132.288 85.7518 132.671 85.3719 132.938 84.9143C133.204 84.4566 133.344 83.9373 133.343 83.409V54.5418C133.343 53.4621 132.769 52.4243 131.826 51.8858L106.582 37.5021C106.12 37.238 105.596 37.0996 105.064 37.1008ZM256.022 62.8614C255.922 62.8614 255.81 62.8614 255.719 62.9116L250.863 65.718C250.772 65.7678 250.696 65.8404 250.643 65.9284C250.59 66.0165 250.561 66.1168 250.559 66.2195V71.732C250.559 71.9396 250.68 72.1297 250.863 72.2335L255.719 74.9898C255.901 75.0942 256.095 75.0942 256.275 74.9898L261.132 72.2328C261.222 72.1827 261.297 72.1102 261.351 72.0223C261.404 71.9345 261.433 71.8344 261.435 71.732V66.2188C261.433 66.1164 261.404 66.0163 261.351 65.9285C261.297 65.8406 261.222 65.7681 261.132 65.718L256.275 62.9109C256.185 62.8586 256.123 62.8621 256.022 62.8621V62.8614Z" fill="#83CD29"/>
</g>
<defs>
<clipPath id="clip0_419_6500">
<rect width="360" height="101" fill="white" transform="translate(0.5 0.600098)"/>
</clipPath>
</defs>
</svg>
