<svg width="428" height="194" viewBox="0 0 428 194" fill="none" xmlns="http://www.w3.org/2000/svg">
<g clip-path="url(#clip0_419_6444)">
<path d="M214 175.258C297.119 175.258 364.5 140.095 364.5 96.7186C364.5 53.3425 297.119 18.1792 214 18.1792C130.881 18.1792 63.5 53.3425 63.5 96.7186C63.5 140.095 130.881 175.258 214 175.258Z" fill="#8993BE"/>
<path fill-rule="evenodd" clip-rule="evenodd" d="M105.763 143.222L122.257 59.5153H160.396C176.889 60.549 185.136 68.8155 185.136 83.2845C185.136 108.086 165.551 122.554 148.026 121.52H129.473L125.35 143.222H105.763ZM133.595 106.02L138.75 75.0169H152.15C159.366 75.0169 164.52 78.1169 164.52 84.3171C163.49 101.886 155.243 104.986 145.966 106.02H133.597H133.595ZM181.304 121.52L197.797 37.8147H217.383L213.259 59.5153H231.813C248.307 60.549 254.492 68.8155 252.43 79.1507L245.215 121.52H224.598L231.814 83.2845C232.844 78.1169 232.844 75.0169 225.63 75.0169H210.167L200.89 121.52H181.304V121.52ZM243.894 143.222L260.387 59.5153H298.527C315.021 60.549 323.268 68.8155 323.268 83.2845C323.268 108.086 303.682 122.554 286.158 121.52H267.603L263.479 143.222H243.894V143.222ZM271.725 106.02L276.88 75.0169H290.281C297.497 75.0169 302.65 78.1169 302.65 84.3171C301.62 101.886 293.373 104.986 284.097 106.02H271.726H271.725Z" fill="#232531"/>
</g>
<defs>
<clipPath id="clip0_419_6444">
<rect width="301" height="158" fill="white" transform="translate(63.5 18.1792)"/>
</clipPath>
</defs>
</svg>
