<svg width="199" height="194" viewBox="0 0 199 194" fill="none" xmlns="http://www.w3.org/2000/svg">
<g clip-path="url(#clip0_419_6611)">
<g clip-path="url(#clip1_419_6611)">
<path d="M35.6157 0.179199H163.491C182.878 0.179199 198.553 15.8501 198.553 35.2326V158.126C198.553 177.508 182.878 193.179 163.491 193.179H35.6157C16.2282 193.179 0.553223 177.508 0.553223 158.126V35.2326C0.553223 15.8501 16.2282 0.179199 35.6157 0.179199Z" fill="#001E36"/>
<path d="M45.103 135.527V50.6562C45.103 50.0788 45.3505 49.7489 45.928 49.7489C47.3305 49.7489 48.6505 49.7489 50.548 49.6664C52.528 49.5839 54.5905 49.5839 56.818 49.5015C59.0455 49.419 61.438 49.419 63.9955 49.3365C66.553 49.254 69.028 49.254 71.503 49.254C78.268 49.254 83.878 50.0788 88.498 51.8109C92.623 53.213 96.418 55.5224 99.553 58.5741C102.193 61.2134 104.256 64.4301 105.576 67.9767C106.813 71.4408 107.473 74.9874 107.473 78.6989C107.473 85.7921 105.823 91.648 102.523 96.2668C99.223 100.886 94.603 104.35 89.2405 106.329C83.6305 108.391 77.443 109.134 70.678 109.134C68.698 109.134 67.378 109.134 66.553 109.051C65.728 108.969 64.573 108.969 63.0055 108.969V135.444C63.088 136.022 62.6755 136.516 62.098 136.599C62.0155 136.599 61.933 136.599 61.768 136.599H46.093C45.433 136.599 45.103 136.269 45.103 135.527ZM63.088 65.6673V93.3801C64.243 93.4626 65.3155 93.5451 66.3055 93.5451H70.678C73.8955 93.5451 77.113 93.0502 80.1655 92.0604C82.8055 91.3181 85.1155 89.751 86.9305 87.6891C88.663 85.6271 89.488 82.8228 89.488 79.1938C89.5705 76.6369 88.9105 74.0801 87.5905 71.8532C86.188 69.7087 84.208 68.0592 81.8155 67.1519C78.763 65.9147 75.463 65.4198 72.0805 65.5023C69.9355 65.5023 68.038 65.5023 66.4705 65.5848C64.8205 65.5023 63.6655 65.5848 63.088 65.6673Z" fill="#31A8FF"/>
<path d="M158.953 88.3489C156.478 87.0292 153.838 86.122 151.033 85.5446C147.981 84.8848 144.928 84.4724 141.793 84.4724C140.143 84.3899 138.411 84.6374 136.843 85.0498C135.771 85.2972 134.863 85.8745 134.286 86.6993C133.873 87.3592 133.626 88.1839 133.626 88.9263C133.626 89.6686 133.956 90.4109 134.451 91.0707C135.193 91.978 136.183 92.7203 137.256 93.2976C139.153 94.2874 141.133 95.1946 143.113 96.0194C147.568 97.504 151.858 99.566 155.818 102.04C158.541 103.772 160.768 106.082 162.336 108.886C163.656 111.525 164.316 114.412 164.233 117.381C164.316 121.258 163.161 125.134 161.016 128.351C158.706 131.65 155.488 134.207 151.776 135.692C147.733 137.424 142.783 138.331 136.843 138.331C133.048 138.331 129.336 138.001 125.623 137.259C122.736 136.764 119.848 135.857 117.208 134.619C116.631 134.289 116.218 133.712 116.301 133.052V118.701C116.301 118.454 116.383 118.124 116.631 117.959C116.878 117.794 117.126 117.876 117.373 118.041C120.591 119.938 123.973 121.258 127.603 122.083C130.738 122.907 134.038 123.32 137.338 123.32C140.473 123.32 142.701 122.907 144.186 122.165C145.506 121.588 146.413 120.186 146.413 118.701C146.413 117.546 145.753 116.474 144.433 115.402C143.113 114.33 140.391 113.092 136.348 111.525C132.141 110.041 128.263 108.061 124.633 105.587C122.076 103.772 119.931 101.381 118.363 98.5763C117.043 95.9369 116.383 93.0502 116.466 90.1634C116.466 86.6169 117.456 83.2352 119.271 80.1835C121.333 76.8844 124.386 74.2451 127.933 72.5955C131.811 70.616 136.678 69.7087 142.536 69.7087C145.918 69.7087 149.383 69.9562 152.766 70.451C155.241 70.781 157.633 71.4408 159.861 72.3481C160.191 72.4305 160.521 72.7604 160.686 73.0904C160.768 73.4203 160.851 73.7502 160.851 74.0801V87.5241C160.851 87.854 160.686 88.184 160.438 88.3489C159.696 88.5139 159.283 88.5139 158.953 88.3489Z" fill="#31A8FF"/>
</g>
</g>
<defs>
<clipPath id="clip0_419_6611">
<rect width="198" height="193" fill="white" transform="translate(0.801758 0.179199)"/>
</clipPath>
<clipPath id="clip1_419_6611">
<rect width="198" height="193" fill="white" transform="translate(0.553223 0.179199)"/>
</clipPath>
</defs>
</svg>
