<svg width="427" height="430" viewBox="0 0 427 430" fill="none" xmlns="http://www.w3.org/2000/svg">
<g clip-path="url(#clip0_419_6410)">
<path d="M212.143 56.7684C131.87 56.7684 136.882 91.609 136.882 91.609L136.971 127.705H213.574V138.542H106.546C106.546 138.542 55.1796 132.711 55.1796 213.775C55.1796 294.84 100.014 291.965 100.014 291.965H126.77V254.348C126.77 254.348 125.328 209.476 170.889 209.476H246.865C246.865 209.476 289.551 210.166 289.551 168.186V98.7754C289.551 98.7754 296.034 56.7684 212.143 56.7684ZM169.904 81.0422C171.714 81.0406 173.507 81.3962 175.18 82.0888C176.852 82.7813 178.372 83.7972 179.652 85.0783C180.932 86.3594 181.947 87.8805 182.639 89.5546C183.331 91.2287 183.687 93.023 183.685 94.8347C183.687 96.6464 183.331 98.4406 182.639 100.115C181.947 101.789 180.932 103.31 179.652 104.591C178.372 105.872 176.852 106.888 175.18 107.581C173.507 108.273 171.714 108.629 169.904 108.627C168.094 108.629 166.301 108.273 164.629 107.581C162.956 106.888 161.436 105.872 160.156 104.591C158.876 103.31 157.861 101.789 157.169 100.115C156.477 98.4406 156.122 96.6464 156.123 94.8347C156.122 93.023 156.477 91.2287 157.169 89.5546C157.861 87.8805 158.876 86.3594 160.156 85.0783C161.436 83.7972 162.956 82.7813 164.629 82.0888C166.301 81.3962 168.094 81.0406 169.904 81.0422V81.0422Z" fill="url(#paint0_linear_419_6410)"/>
<path d="M214.422 371.596C294.695 371.596 289.683 336.755 289.683 336.755L289.594 300.661H212.99V289.824H320.018C320.018 289.824 371.385 295.654 371.385 214.589C371.385 133.524 326.551 136.399 326.551 136.399H299.794V174.015C299.794 174.015 301.236 218.887 255.676 218.887H179.699C179.699 218.887 137.014 218.197 137.014 260.178V329.59C137.014 329.59 130.532 371.596 214.421 371.596H214.422ZM256.661 347.325C254.851 347.326 253.058 346.971 251.386 346.278C249.713 345.586 248.193 344.57 246.913 343.289C245.633 342.008 244.618 340.486 243.926 338.812C243.234 337.138 242.879 335.344 242.88 333.532C242.879 331.72 243.234 329.926 243.926 328.252C244.618 326.578 245.633 325.056 246.913 323.775C248.193 322.494 249.712 321.478 251.385 320.785C253.058 320.093 254.851 319.737 256.661 319.739C258.471 319.737 260.264 320.093 261.937 320.785C263.609 321.478 265.129 322.494 266.409 323.775C267.689 325.056 268.704 326.577 269.396 328.251C270.088 329.925 270.444 331.719 270.442 333.531C270.444 335.343 270.088 337.137 269.396 338.811C268.704 340.485 267.689 342.006 266.409 343.287C265.129 344.569 263.609 345.584 261.937 346.277C260.264 346.97 258.471 347.325 256.661 347.324V347.325Z" fill="url(#paint1_linear_419_6410)"/>
</g>
<defs>
<linearGradient id="paint0_linear_419_6410" x1="85.5668" y1="85.0853" x2="242.4" y2="240.222" gradientUnits="userSpaceOnUse">
<stop stop-color="#387EB8"/>
<stop offset="1" stop-color="#366994"/>
</linearGradient>
<linearGradient id="paint1_linear_419_6410" x1="181.75" y1="184.79" x2="350.164" y2="343.863" gradientUnits="userSpaceOnUse">
<stop stop-color="#FFE052"/>
<stop offset="1" stop-color="#FFC331"/>
</linearGradient>
<clipPath id="clip0_419_6410">
<rect width="317" height="316" fill="white" transform="translate(55 56.6792)"/>
</clipPath>
</defs>
</svg>
