<svg width="345" height="99" viewBox="0 0 345 99" fill="none" xmlns="http://www.w3.org/2000/svg">
<g clip-path="url(#clip0_419_6507)">
<path d="M38.985 4.10589C39.675 4.10589 40.02 4.44855 40.71 4.7912C36.57 6.50449 32.43 10.959 30.36 20.5534L22.77 22.6094C25.185 15.7562 30.015 4.10589 38.985 4.10589ZM42.78 7.53246C43.47 9.58841 44.16 11.987 44.16 15.7562C44.16 16.0989 44.16 16.0989 44.16 16.4416L34.155 19.1828C36.225 11.987 39.675 8.90309 42.78 7.53246ZM51.75 13.7003L47.265 15.0709C47.265 14.7283 47.265 14.3856 47.265 14.043C47.265 10.959 46.92 8.56043 46.23 6.50449C48.645 7.18981 50.715 10.2737 51.75 13.7003ZM74.175 19.1828C74.175 18.8402 73.83 18.4975 73.485 18.4975C72.795 18.4975 65.55 17.8122 65.55 17.8122C65.55 17.8122 60.375 12.6723 59.685 12.3297C58.995 11.6444 57.96 11.987 57.615 11.987C57.615 11.987 56.58 12.3297 54.855 13.015C53.13 8.21778 50.025 3.76323 44.85 3.76323H44.505C43.125 1.70729 41.055 1.02197 39.33 1.02197C26.91 0.679317 21.045 16.0989 18.975 23.98C16.215 24.6653 13.455 25.6933 10.35 26.7213C7.59 27.4066 7.59 27.7492 7.245 30.1478C6.9 31.8611 0 86.001 0 86.001L54.855 96.2807L84.5251 89.7702C84.5251 89.7702 74.175 19.8681 74.175 19.1828Z" fill="#8DB849"/>
<path d="M73.14 18.4976C72.795 18.4976 65.55 17.8122 65.55 17.8122C65.55 17.8122 60.375 12.6724 59.685 12.3297C59.34 11.9871 59.34 11.9871 58.995 11.9871L54.855 96.2808L84.525 89.7703C84.525 89.7703 74.175 19.8682 74.175 19.1829C74.175 18.8402 73.485 18.4976 73.14 18.4976Z" fill="#5A863E"/>
<path d="M44.8502 34.945L41.0551 45.91C41.0551 45.91 37.9501 44.1967 33.8101 44.1967C27.9451 44.1967 27.6001 47.6233 27.6001 48.6513C27.6001 53.4485 40.7101 55.5044 40.7101 67.1548C40.7101 76.4065 34.8451 82.2317 26.9101 82.2317C17.5951 82.2317 12.7651 76.4066 12.7651 76.4066L15.1801 68.1828C15.1801 68.1828 20.0101 72.2947 24.1501 72.2947C26.9101 72.2947 27.9451 70.2387 27.9451 68.5254C27.9451 62.0149 17.2501 61.6723 17.2501 51.0499C17.2501 42.1408 23.8051 33.5744 36.5701 33.5744C42.4352 33.2317 44.8502 34.945 44.8502 34.945Z" fill="#FFFFFE"/>
<path d="M119.37 55.1617C116.265 53.4484 114.885 52.0778 114.885 50.3645C114.885 47.9659 116.955 46.5953 120.405 46.5953C124.2 46.5953 127.65 48.3086 127.65 48.3086L130.41 40.0848C130.41 40.0848 127.995 38.0289 120.75 38.0289C110.4 38.0289 103.5 43.854 103.5 52.0778C103.5 56.875 106.95 60.3016 111.09 62.7002C114.54 64.7561 115.92 66.1267 115.92 68.1827C115.92 70.2386 114.195 72.2946 110.745 72.2946C105.915 72.2946 101.085 69.896 101.085 69.896L98.3252 78.1197C98.3252 78.1197 102.465 80.861 109.71 80.861C120.06 80.861 127.65 75.7211 127.65 66.4694C127.65 61.3295 123.855 57.5603 119.37 55.1617ZM161.115 37.6862C155.94 37.6862 151.8 40.0848 148.695 43.854L153.18 20.5534H141.45L130.065 79.833H141.795L145.59 59.6163C146.97 52.0778 151.11 47.2806 154.905 47.2806C157.665 47.2806 158.7 48.9939 158.7 51.7351C158.7 53.4484 158.7 55.1617 158.355 56.875L153.87 80.1757H165.6L170.085 56.1897C170.43 53.7911 170.775 50.7072 170.775 48.6512C170.775 41.7981 167.325 37.6862 161.115 37.6862ZM191.13 71.6093C186.99 71.6093 185.61 68.1827 185.61 64.0708C185.61 57.5603 189.06 46.5953 195.27 46.5953C199.41 46.5953 200.79 50.0219 200.79 53.4484C200.79 60.9869 197.34 71.6093 191.13 71.6093ZM196.995 37.6862C182.85 37.6862 173.535 50.3645 173.535 64.4135C173.535 73.3225 179.055 80.5183 189.75 80.5183C203.55 80.5183 212.865 68.1827 212.865 53.7911C212.865 45.5673 208.035 37.6862 196.995 37.6862ZM231.495 71.9519C228.39 71.9519 226.665 70.2386 226.665 70.2386L228.735 59.2736C230.115 52.0778 233.91 47.2806 238.05 47.2806C241.5 47.2806 242.88 50.7072 242.88 53.7911C242.535 61.3295 238.05 71.9519 231.495 71.9519ZM242.88 37.6862C234.945 37.6862 230.46 44.5394 230.46 44.5394L231.15 38.3715H220.8C220.455 42.4834 219.42 48.9939 218.385 53.7911L210.105 96.2805H221.835L224.94 79.1477H225.285C225.285 79.1477 227.7 80.5183 232.185 80.5183C245.985 80.5183 254.955 66.4694 254.955 52.4205C254.955 44.882 251.505 37.6862 242.88 37.6862ZM271.515 21.2387C267.72 21.2387 264.96 24.3226 264.96 28.0918C264.96 31.5184 267.03 33.917 270.48 33.917C274.275 33.917 277.38 31.5184 277.38 27.0638C277.38 23.6373 274.965 21.2387 271.515 21.2387ZM255.3 79.833H267.03L274.965 38.7142H263.235L255.3 79.833ZM304.635 38.7142H296.355L296.7 36.6582C297.39 32.5464 299.805 29.1198 303.6 29.1198C305.67 29.1198 307.395 29.8051 307.395 29.8051L309.81 20.5534C309.81 20.5534 307.74 19.5254 303.6 19.5254C299.46 19.5254 295.32 20.5534 292.215 23.2946C288.075 26.7212 286.35 31.5184 285.315 36.3156L284.97 38.3715H279.45L277.725 47.2806H283.245L277.035 79.833H288.765L294.975 47.2806H302.91L304.635 38.7142ZM332.58 38.7142C332.58 38.7142 325.335 56.875 321.885 66.812C321.54 63.7281 319.125 38.7142 319.125 38.7142H306.705L313.605 76.4064C313.605 77.0918 313.605 77.7771 313.26 78.4624C311.88 81.2036 309.465 83.6022 307.05 85.3155C304.98 87.0288 302.22 88.0568 300.495 88.7421L303.6 98.6792C306.015 98.3365 310.845 96.2805 314.985 92.5113C320.16 87.7141 325.335 79.833 330.165 69.5533L344.31 39.0568L332.58 38.7142Z" fill="#1A1919"/>
</g>
<defs>
<clipPath id="clip0_419_6507">
<rect width="345" height="98" fill="white" transform="translate(0 0.679199)"/>
</clipPath>
</defs>
</svg>
