<svg width="79" height="57" viewBox="0 0 79 57" fill="none" xmlns="http://www.w3.org/2000/svg">
<path d="M78.265 17.4077C78.2361 14.1197 72.2062 12.6273 56.597 12.6273C19.971 12.6273 10.6792 11.0511 0.734863 0.508301C4.9178 6.83866 7.20656 18.712 45.9191 18.1213C86.3095 17.4943 61.6692 28.6144 54.4999 41.1778C67.4285 29.5508 78.2262 21.8871 78.265 17.4553V17.4077ZM26.7979 51.1704C26.7973 52.6479 26.2144 54.0648 25.1774 55.1095C24.1404 56.1543 22.7341 56.7413 21.2676 56.7417C18.203 56.7417 15.7253 54.2454 15.7253 51.1704C15.7248 50.4368 15.8678 49.7104 16.1461 49.0326C16.4244 48.3548 16.8326 47.739 17.3474 47.2203C17.8621 46.7016 18.4733 46.2902 19.146 46.0097C19.8186 45.7292 20.5396 45.585 21.2676 45.5855C24.3209 45.5855 26.7979 48.0826 26.7979 51.1704ZM52.0202 51.1704C52.0196 52.6479 51.4367 54.0648 50.3997 55.1095C49.3627 56.1543 47.9564 56.7413 46.4899 56.7417C43.4281 56.7417 40.9484 54.2454 40.9484 51.1704C40.9478 50.4369 41.0908 49.7105 41.369 49.0328C41.6473 48.355 42.0555 47.7392 42.5701 47.2205C43.0848 46.7018 43.6959 46.2904 44.3685 46.0099C45.0411 45.7293 45.762 45.5851 46.4899 45.5855C49.5432 45.5855 52.0202 48.0826 52.0202 51.1704Z" fill="url(#paint0_linear_419_6517)"/>
<defs>
<linearGradient id="paint0_linear_419_6517" x1="-102.131" y1="56.4115" x2="-102.131" y2="0.508301" gradientUnits="userSpaceOnUse">
<stop stop-color="#04B6F0"/>
<stop offset="1" stop-color="#3ECAF0"/>
</linearGradient>
</defs>
</svg>
