<svg width="378" height="102" fill="none" xmlns="http://www.w3.org/2000/svg"><path d="M45.983 41.332c-5.188-22.738-16-28.791-18.759-33.07a48.56 48.56 0 0 1-3.015-5.865c-.146 2.02-.414 3.292-2.142 4.824-3.47 3.074-18.206 15.005-19.446 40.841C1.465 72.151 20.444 87.004 22.95 88.54c1.928.942 4.277.02 5.422-.845 9.149-6.239 21.649-22.87 17.62-46.363" fill="#10AA50"/><path d="M24.995 75.713c-.478 5.962-.82 9.426-2.033 12.833 0 0 .796 5.677 1.355 11.689h1.98a108.69 108.69 0 0 1 2.158-12.588c-2.562-1.252-3.362-6.703-3.46-11.934Z" fill="#B8C4C2"/><path d="M28.45 87.651c-2.588-1.188-3.337-6.754-3.452-11.938.64-8.553.827-17.133.56-25.705-.136-4.498.064-41.659-1.116-47.1a45.106 45.106 0 0 0 2.782 5.35c2.759 4.283 13.574 10.336 18.759 33.075 4.039 23.452-8.393 40.04-17.532 46.318Z" fill="#12924F"/><path d="M369.666 79.43a5.647 5.647 0 0 1-3.115-.937 5.563 5.563 0 0 1-.887-8.571 5.635 5.635 0 0 1 2.858-1.546 5.658 5.658 0 0 1 3.242.286 5.616 5.616 0 0 1 2.538 2.023c.627.909.97 1.98.985 3.082a5.492 5.492 0 0 1-1.597 4.021 5.557 5.557 0 0 1-4.024 1.642Zm0-10.666a5.143 5.143 0 0 0-2.851.84 5.095 5.095 0 0 0-1.899 2.272 5.067 5.067 0 0 0 1.081 5.55 5.126 5.126 0 0 0 2.616 1.403 5.15 5.15 0 0 0 2.96-.278 5.108 5.108 0 0 0 2.304-1.866 5.05 5.05 0 0 0 .871-2.824 4.994 4.994 0 0 0-1.456-3.617 5.035 5.035 0 0 0-3.626-1.48Zm1.355 8.612-1.45-3.108h-1.169v3.108h-.851v-7.07h2.098c1.562 0 2.213.673 2.213 1.976 0 1.037-.492 1.684-1.407 1.882l1.498 3.202-.932.01Zm-2.585-3.838h1.23c.996 0 1.375-.337 1.375-1.239 0-.902-.362-1.209-1.484-1.209h-1.121v2.448Zm-82.434.802c1.522 1.208 4.561 1.706 7.241 1.706 3.473 0 6.879-.64 10.206-3.626 3.389-3.06 5.72-7.743 5.72-15.22 0-7.185-2.752-13.016-8.397-16.43-3.185-1.99-7.312-2.774-12.018-2.774-1.356 0-2.752.07-3.545.427a1.85 1.85 0 0 0-.654 1.01c-.142 1.28-.142 11.023-.142 16.783 0 5.905 0 14.14.142 15.15.075.856.509 2.357 1.447 2.987m-14.448-39.555c1.23 0 5.906.212 8.081.212 4.066 0 6.875-.212 14.476-.212 6.37 0 11.73 1.706 15.563 4.975 4.635 3.987 7.115 9.532 7.115 16.288 0 9.602-4.405 15.15-8.833 18.278-4.405 3.273-10.135 5.12-18.298 5.12-4.344 0-11.802-.14-18.026-.211h-.129c-.291-.57.532-2.788 1.04-2.845 1.694-.189 2.142-.256 2.921-.576 1.315-.535 1.623-1.202 1.769-3.548.217-4.41.146-9.673.146-15.649 0-4.265.071-12.588-.072-15.22-.22-2.202-1.155-2.771-3.049-3.199a39.654 39.654 0 0 0-4.066-.64c-.143-.427.969-2.356 1.331-2.773m63.208 3.609c-.288.07-.651.784-.651 1.138-.074 2.562-.145 9.244-.145 13.867a.459.459 0 0 0 .362.357c.939.07 3.256.144 5.212.144 2.751 0 4.344-.356 5.211-.784 2.318-1.138 3.388-3.63 3.388-6.33 0-6.187-4.344-8.534-10.785-8.534-.871-.01-1.741.036-2.606.142m16.434 28.448c0-6.259-4.635-9.814-13.106-9.814-.359 0-3.05-.07-3.69.07-.217.072-.434.213-.434.358 0 4.48-.074 11.662.146 14.507.145 1.208 1.016 2.915 2.097 3.413 1.159.64 3.765.782 5.574.782 4.995 0 9.413-2.771 9.413-9.316Zm-29.499-31.933c.654 0 2.578.212 7.502.212 4.632 0 8.396-.141 12.876-.141 5.574 0 13.245 1.993 13.245 10.241 0 4.04-2.894 7.326-6.658 8.892-.217.07-.217.212 0 .282 5.357 1.347 10.06 4.623 10.06 10.881 0 6.118-3.836 9.959-9.41 12.376-3.388 1.495-7.6 1.99-11.859 1.99-3.256 0-11.985-.337-16.837-.283-.509-.212.464-2.491.898-2.845a13.427 13.427 0 0 0 3.283-.511c1.735-.425 1.942-.98 2.158-3.542.146-2.205.146-10.1.146-15.72 0-7.682.075-12.87 0-15.432-.071-1.99-.796-2.633-2.172-2.986-1.084-.215-2.894-.428-4.34-.64-.363-.357.752-2.491 1.111-2.774M62.013 79.43a3.1 3.1 0 0 1-.22-1.438c-.016-.334.06-.666.22-.96a24.733 24.733 0 0 0 2.779-.562c1.28-.316 1.762-1.01 1.836-2.632.21-3.835.224-11.03.15-16.086v-.149c0-.545 0-1.286-.678-1.808a14.597 14.597 0 0 0-3.84-1.683c-.606-.178-.941-.495-.924-.865.017-.37.4-.808 1.189-.963 2.097-.212 7.593-1.515 9.752-2.505.222.288.325.65.288 1.01 0 .222-.034.458-.058.7-.06.714-.129 1.526-.129 2.334a.53.53 0 0 0 .359.432.538.538 0 0 0 .55-.126c4.11-3.202 7.793-4.343 9.68-4.343 3.108 0 5.527 1.475 7.4 4.511a.496.496 0 0 0 .42.246.482.482 0 0 0 .394-.209c3.778-2.848 7.522-4.548 10.03-4.548 5.923 0 9.463 4.407 9.463 11.783 0 2.121-.02 4.811-.04 7.32-.017 2.201-.034 4.265-.034 5.693 0 .336.468 1.306 1.169 1.498.867.42 2.118.636 3.7.905h.061c.119.424-.132 2.07-.373 2.407-.393 0-.935-.033-1.613-.067-1.23-.06-2.917-.145-4.879-.145-3.937 0-5.994.074-7.959.202-.149-.488-.2-2.063-.021-2.393.814-.127 1.62-.301 2.413-.522 1.254-.41 1.616-.977 1.694-2.63.031-1.175.258-11.527-.146-13.985-.372-2.548-2.304-5.531-6.529-5.531-1.569 0-4.1.65-6.513 2.468a.94.94 0 0 0-.237.61v.05c.285 1.326.285 2.875.285 5.215 0 1.346 0 2.75-.017 4.154-.017 2.855-.03 5.548.017 7.585 0 1.387.844 1.72 1.525 1.986.369.081.66.152.955.22.566.137 1.156.279 2.033.417a3.84 3.84 0 0 1-.034 1.79 1.43 1.43 0 0 1-.254.61 209.07 209.07 0 0 0-7.678-.138c-.983 0-2.585.04-4.002.078-1.148.03-2.233.06-2.85.064a2.758 2.758 0 0 1-.216-1.24c-.035-.399.044-.8.227-1.157l.87-.159c.76-.134 1.417-.249 2.034-.404 1.07-.336 1.474-.915 1.552-2.272.21-3.165.372-12.285-.078-14.568-.766-3.663-2.864-5.521-6.238-5.521-1.976 0-4.473.946-6.513 2.464a1.973 1.973 0 0 0-.6 1.465v3.767c0 4.579-.03 10.279.082 12.743.067.76.338 1.663 1.772 1.993.315.09.857.178 1.487.283.363.06.76.124 1.17.198.13.807.063 1.632-.194 2.407-.63 0-1.406-.04-2.294-.077-1.355-.06-3.05-.135-4.964-.135-2.263 0-3.839.075-5.103.135a55.9 55.9 0 0 1-2.321.078m72.658-26.6a6.202 6.202 0 0 0-3.456.966c-2.514 1.518-3.795 4.551-3.795 9.009 0 8.342 4.205 14.17 10.226 14.17a6.463 6.463 0 0 0 4.412-1.552c1.85-1.498 2.833-4.562 2.833-8.85 0-8.219-4.11-13.744-10.226-13.744m1.158 27.24c-10.876 0-14.749-7.928-14.749-15.345 0-5.181 2.131-9.232 6.336-12.043a19.441 19.441 0 0 1 9.789-2.875c8.298 0 14.096 5.929 14.096 14.423 0 5.77-2.314 10.329-6.696 13.177-2.104 1.28-5.76 2.663-8.776 2.663ZM245.412 52.83a6.188 6.188 0 0 0-3.463.966c-2.514 1.518-3.795 4.551-3.795 9.009 0 8.342 4.205 14.17 10.227 14.17a6.464 6.464 0 0 0 4.425-1.552c1.85-1.498 2.829-4.562 2.829-8.85 0-8.219-4.107-13.744-10.223-13.744Zm1.159 27.24c-10.877 0-14.75-7.93-14.75-15.343 0-5.188 2.132-9.235 6.34-12.046a19.405 19.405 0 0 1 9.786-2.875c8.298 0 14.096 5.932 14.096 14.42 0 5.777-2.315 10.332-6.696 13.177-2.104 1.282-5.76 2.666-8.776 2.666ZM208.79 52.547c-3.351 0-5.52 2.63-5.52 6.7s1.867 8.908 7.116 8.908c.901 0 2.535-.398 3.344-1.283 1.22-1.115 2.034-3.417 2.034-5.848 0-5.31-2.603-8.477-6.957-8.477m-.434 28.091a5.546 5.546 0 0 0-2.71.673c-2.654 1.684-3.884 3.367-3.884 5.323 0 1.832.715 3.29 2.254 4.582 1.863 1.57 4.378 2.333 7.681 2.333 6.503 0 9.417-3.474 9.417-6.915 0-2.397-1.21-4.003-3.7-4.912-1.918-.697-5.124-1.08-9.047-1.08m.433 16.496c-3.903 0-6.716-.818-9.118-2.656-2.338-1.791-3.388-4.45-3.388-6.289a4.903 4.903 0 0 1 1.28-3.198c.678-.768 2.254-2.206 5.896-4.694a.312.312 0 0 0 .19-.286.299.299 0 0 0-.23-.296c-2.999-1.141-3.904-3.03-4.178-4.04 0-.037 0-.094-.031-.158-.085-.397-.166-.775.38-1.162.42-.296 1.091-.693 1.809-1.114a24.404 24.404 0 0 0 2.911-1.882.48.48 0 0 0 .121-.4.474.474 0 0 0-.243-.34c-4.439-1.482-6.675-4.758-6.675-9.764a9.647 9.647 0 0 1 1.065-4.493 9.725 9.725 0 0 1 3.035-3.496c1.785-1.404 6.268-3.09 9.172-3.09h.169c2.986.07 4.67.693 7.001 1.548a11.2 11.2 0 0 0 4.141.653c2.47 0 3.551-.778 4.479-1.683.151.408.231.838.237 1.272a4.763 4.763 0 0 1-.806 2.923c-.505.697-1.694 1.201-2.782 1.201-.112 0-.22 0-.339-.016a9.19 9.19 0 0 1-1.694-.28l-.278.098c-.088.128-.03.27.041.451a.552.552 0 0 1 .04.111c.199.899.333 1.81.404 2.727 0 5.235-2.078 7.514-4.324 9.205a14.818 14.818 0 0 1-7.455 2.868c-.057 0-.338.024-.867.07-.339.031-.779.071-.844.071h-.064c-.488.135-1.762.738-1.762 1.859 0 .929.576 2.084 3.331 2.292l1.782.125c3.632.253 8.17.566 10.304 1.283a7.131 7.131 0 0 1 3.495 2.645 7.063 7.063 0 0 1 1.273 4.179c0 4.697-3.362 9.114-8.99 11.814a19.642 19.642 0 0 1-8.501 1.895m-16.638-20.166c-1.592-.212-2.754-.428-4.127-1.068a1.885 1.885 0 0 1-.508-1.01c-.146-2.205-.146-8.605-.146-12.793 0-3.417-.576-6.397-2.033-8.534-1.738-2.421-4.198-3.842-7.383-3.842-2.823 0-6.587 1.92-9.698 4.552-.074.07-.552.522-.542-.178.01-.7.119-2.121.187-3.03a1.556 1.556 0 0 0-.475-1.32c-2.033 1.01-7.736 2.357-9.847 2.562-1.538.296-1.928 1.767-.284 2.276h.023a14.05 14.05 0 0 1 3.728 1.63c.65.497.579 1.208.579 1.777.071 4.764.071 12.09-.146 16.072-.071 1.566-.508 2.135-1.667 2.42l.109-.036a22.69 22.69 0 0 1-2.681.498c-.362.354-.362 2.417 0 2.845.726 0 4.405-.212 7.455-.212 4.195 0 6.367.212 7.455.212.437-.498.579-2.417.291-2.845a15.346 15.346 0 0 1-2.972-.427c-1.155-.283-1.447-.856-1.518-2.132-.142-3.346-.142-10.456-.142-15.294 0-1.347.359-1.99.793-2.357 1.447-1.28 3.839-2.131 5.936-2.131 2.033 0 3.389.64 4.405 1.491a6.08 6.08 0 0 1 2.074 4.02c.288 2.694.214 8.11.214 12.794 0 2.562-.214 3.205-1.156 3.487-.434.212-1.592.428-2.968.57-.434.427-.292 2.417 0 2.844 1.88 0 4.066-.212 7.238-.212 3.981 0 6.515.212 7.529.212.433-.498.579-2.357.291-2.845" fill="#21313C"/></svg>