<svg width="117" height="152" fill="none" xmlns="http://www.w3.org/2000/svg"><g clip-path="url(#a)"><path d="M34.963 93.467c-4.456-3.52-9.21-6.892-12.458-11.645-6.838-8.381-12.101-18.083-15.7-28.28-2.175-6.63-2.92-13.74-5.726-20.113-2.931-4.63.505-9.69 5.556-11.16 2.247-.436 6.201-2.566 1.428-1.041-4.28 3.15-4.692-2.864-.304-3.245 2.994-.399 4.097-2.859 3.072-5.073-3.216-2.107 7.794-4.418 2.254-7.56-5.768-6.25 8.07-7.453 4.656-.354-.816 5.459 9.674-1.002 7.238 5.303 2.474 3.028 9.264.69 9.094 4.936 3.604.249 4.841 3.291 8.221 3.526 3.509 1.59 9.863 2.841 11.055 6.808-3.478 2.764-11.53-5.71-11.919 1.942 1.052 11.307.784 22.953 4.902 33.72 1.948 6.517 6.673 11.648 10.938 16.726 4.082 4.972 9.611 8.474 15.247 11.42 4.943 2.341 10.272 3.892 15.66 4.868 2.185-1.678 6.043-7.916 9.45-5.288.164 2.96-6.762 6.182-.325 5.855 3.783-1.146 6.404 2.934 9.518-.748 2.869 3.413 11.924-2.178 9.883 4.796-2.761 1.789-6.787.708-9.551 3.169-4.557-2.287-8.186 2.044-13.234 1.497-5.603 1.008-11.306 1.414-16.986 1.422-9.322-.738-18.84-1.05-27.707-4.309-4.997-1.457-9.871-4.314-14.262-7.172Zm7.872 3.427c4.878 2.116 9.648 4.349 14.994 5.024 8.482 1.182 17.24 3.006 25.752 1.344-3.852-1.746-7.836.678-11.673-1.248-4.603.993-9.542-.255-14.223-.871-5.32-2.379-11.063-4.014-16.045-7.106-6.228-2.283 3.219 2.93 4.901 3.353 3.891 2.217-4.28-1.138-5.434-2.059-3.26-1.837-3.674-1.452-.322.411.675.397 1.342.814 2.05 1.152Zm-9.282-6.586c4.728 1.758-.021-3.337-2.185-3.043-.96-1.671-3.666-2.728-1.757-3.625-3.434 1.198-3.598-4.552-5.212-3.73-3.634-1.152-1.414-5.233-5.744-7.741-.395-2.641-4.3-4.93-5.544-8.913-.55-2.04-4.414-7.895-2.04-2.446 2.02 5.245 5.573 9.74 8.531 14.227 2.296 4.272 5.01 8.741 9.19 11.406 1.411 1.36 2.77 3.439 4.76 3.865ZM19.938 75.295c.163-.717.863 1.551 0 0Zm19.278 17.12c1.046-.472-1.506-.595 0 0Zm2.564.94c-.265-1.298-1.171.725 0 0Zm3.213 1.344c1.527-1.463-2.358-.923 0 0Zm5.505 3.08c.93-1.377-2.974-.518 0 0Zm-10.57-7.399c2.372-1.542-3.07-.021 0 0Zm2.409 1.206c-.07-.813-.858.366 0 0Zm12.04 7.547c1.936 1.228 11.306 2.689 5.44.504-.984.207-10.88-2.812-5.44-.504Zm-19.114-14.95c-.189-.815-3.008-.903 0 0Zm5.603 3.284c1.461-1.023-3.027-.79 0 0Zm4.715 2.901c2.095-.792-3.394-.795 0 0ZM32.98 81.69c2.272 1.749 9.164.225 3.479-1.044-2.585-1.384-8.413-2.331-4.44.834l.961.21Zm15.798 9.68c.947-1.617-3.97-.924 0 0Zm-4.8-3.83c5.553 1.577-4.671-3.528-1.371-.581l.732.333.639.249Zm9.624 5.585c5.26.051-4.752-.728 0 0Zm-22.645-14.49c-.206-.984-1.297.081 0 0Zm31.542 19.502c.14-1.776-1.716 1.323 0 0ZM39.934 84.153c-.32-.936-1.643-.039 0 0Zm-8.479-6.136c3.02-.183-4.136-1.336 0 0Zm-10.044-6.518c-.377-1.455-3.285-2.613 0 0ZM47.778 88.3c-.553-.634-.26.137 0 0Zm16.41 10.112c-.05-.97-.894.366 0 0ZM46.326 86.794c.297-1.248-2.575-.379 0 0ZM34.1 79.013c2.248-.24-3.602-1.524 0 0Zm20.68 12.904c3.503-1.393-3.413-.679 0 0Zm-10.756-7.331c4.035.521-4.802-2.758-.887-.295l.887.295Zm14.022 8.657c3.77-2.26 2.526 5.296 6.393.639 3.813-2.797-3.293 3.457 1.405.498 3.4-2.284 8.421 1.083 11.593 2.179 2.28-.111 4.497 1.98 6.837.707 4.5-1.218-8.804-1.806-5.317-3.964-4.118 1.204-7.16-1.434-9.186-4.084-4.62-1.071-9.961-3.441-12.268-7.55-.942-1.539 1.357.22-.813-2.3-2.782-2.486-4.172-5.31-6.04-8.331-2.233-1.195-2.495-4.714-2.72-.117.018-2.902-2.695-4.855-3.36-4.045-.011-2.794 2.906-1.393.865-3.46-.44-2.896-1.886-5.914-2.32-9.185-.674-1.576-.096-4.951-2.306-1.384-.805 3.772-.266-4.633.986-1.863 1.643-2.827-.592-2.494-.682-2.103 1.07-2.386.679-5.771-.28-4.48.57-2.53.902-9.31-.852-8.106 1.063-2.646 2.017-12.106-2.604-8.498-1.87.027-5.113.682-6.643 1.447 4.803 2.659-.484.96-2.442.537-.254 2.46-2.19 1.398-4.611 1.422 3.867.48-1.883 3.97-4.097 2.614-2.881 1.38 2.484 4.83.057 5.899.3 1.605-4.412-.582-4.044 3.133-2.794-1.183-.382 4.405 1.016 2.515 4.755 1.293 3.348 4.237 3.467 7.036-.774 1.63-3.825-3.832-.679-3.58-2.483-4.048-2.746-1.464-4.808.417-.478.136 5.26 2.677 1.659 3.931 3.168.493 3.26 3.277 3.906 5.04 1.904 1.99 1.512-2.201 3.793.194-1.445-2.134-7.64-6.011-2.651-4.768-.028-2.146-.903-3.878.627-3.836 1.515-2.751-1.587 6.788 1.826 3.29.944-.414 1.18-2.755 2.878.222 2.465 2.437.89 4.2-2.588 1.968.621 2.121 4.653 2.877 3.894 6.194.803 2.917 1.928 1.842 2.907 1.674.768 2.833 1.206.75 1.241-.6 3.518.757 2.693 2.845 3.795 4.303 2.424 1.098-3.47-7.445.691-2.569 4.377 3.97 1.643 5.626-2.286 4.99 2.486-.201 3.286 3.377 6.398 3.25 2.836 1.357 4.758 6.56-.131 4.393-1.695-1.536-7.7-3.43-2.794-.51 4.524 2.107 8.122 3.364 12.488 6.008 3.124 2.239 4.474 4.803 5.657 5.312-2.626 1.26-7.913-1.006-3.986-1.699-2.45-.447-5.206-1.692-2.86 1.371 1.996 1.675 7.068 1.497 7.98 1.686-.772 1.705-2.095 1.84.03 1.972-2.371 1.27.762 1.468.98 2.19h-.001ZM53.2 79.496c-1.444-1.515-1.817-4.35-.257-1.885.801.325 2.562 4.637.257 1.885Zm15.789 10.07c.9-.059.026.687 0 0ZM50.923 75.782c-.057-2.29.52 1.767 0 0Zm-1.57-2.118c-1.816-3.52 2.287.996 0 0Zm-19.019-13.18c1.068-.285.526 1.83 0 0Zm15.138 8.237c.654-2.47.768 2.071 0 0Zm-10.693-7.466c-.753-1.362 1.575 1.28 0 0Zm9.174 2.953c-1.718-3.865 1.22-2.113.383.633l-.383-.633ZM28.13 53.611c-.768-1.269-2.038-4.99-1.629-6.127.368 1.852 3.919 7.964 1.74 2.533-2.406-4.552 2.878 1.476 3.422 2.613.254 1.129-1.486-.308-.308 2.34-2.149-3.015-1.268 1.667-3.225-1.359Zm-4.889-3.384c.2-2.95 1.118 2.022 0 0Zm2.2.762c1.048-2.226 1.777 3.103 0 0Zm-5.293-4.11c-1.82-1.82-3.139-3.494.086-1.13 1.24.048-2.76-3.807.3-1.224 3.215.589 1.586 5.297-.386 2.353Zm2.779-.073c1.059-1.053.562 1.035 0 0Zm1.713.549c-1.606-3.016 1.945 1.267 0 0Zm-3.401-3.261c-5.293-4.733 6.65 2.472.864.875l-.864-.875Zm15.166 8.845c-2.292-1.377-.61-9.707.174-4.011 2.227-.724-.123 2.944 1.536 2.907-.26 2.313-1.004 3.145-1.71 1.104Zm5.61 3.331c.224-2.511.472 1.717 0 0Zm-.974-.97c.25-1.07.024 1.264 0 0ZM22.274 42.54c-3.4-4.712 9.884 4.765 2.18 1.194-.805-.213-1.776-.288-2.18-1.194Zm10.804 5.75c-.322-3.967.718.656 0 0Zm8.2 5.283c.634-2.259.049 1.495 0 0Zm-18.48-12.83c2.02-.436 8.373 3.561 2.54 1.14-.648-.72-2.032-.394-2.54-1.141Zm17.354 8.684c.216-4.057 1.208-2.422.009.582l-.01-.583ZM24.3 39.328c.824-1.213-2.188-5.482.433-1.53 1.133.903 3.278 1.512 1.383 1.893 2.98 2.638-.725.714-1.816-.363Zm14.993 8.831c.568-4.62.502 2.707 0 0ZM22.579 35.061c.63-.27.335.843 0 0Zm3.912 2.338c1.007-2.122 1.856 2.364 0 0Zm11.03 6.16c-.008-.813.21 1.185 0 0Zm-.64-1.419c-1.53-3.793 1.427 2.007 0 0Zm-.938-2.488c-.256-1.567.873 1.969 0 0Zm1.53-2.496c-1.051-1.859 1.328-8.193 1.594-4.265-1.11 3.061-.32 4.772.45.667 1.43-3.23-.307 6.377-2.044 3.598Zm1.572-9.42c.458-.564.102.68 0 0ZM36.42 79.688c-.622-.546.08.346 0 0Zm5.41 2.746c3.008.778 2.994-.468.274-.84-1.462-1.365-6.079-2.815-1.946-.168.273.696 1.137.678 1.671 1.008ZM31.147 75.31c1.655 1.243 6.242 3.517 2.36.475 1.309-1.528-2.505-2.341-1.24-3.364-3.219-1.978-2.54-1.801-.284-1.738-3.867-1.738.559-1.606.35-2.496-1.491-.295-7.409-2.642-3.927.192-3.539-1.81-.843.675-1.913.413-3.62-.99 3.222 2.768-.574 1.834 2.074 1.65 5.586 4.231.876 1.746-.619.897 3.371 2.257 4.351 2.938Zm5.656 3.265c6.877 2.224-3.374-2.722 0 0Zm28.96 17.614c.09-1.371-.94 1.17 0 0Zm2.976 1.258c1.587-1.542.066 2.46 2.63-.378.026-2.032-.078-3.232-2.947-.763-.792.442-1.144 2.31.317 1.141ZM21.491 67.653c-.487-1.924-3.416-1.915 0 0Zm3.177 2.09c-1.18-1.964-4.211-1.778 0 0Zm18.084 10.95c1.766 1.576 8.108 1.156 2.143.196-.882-1.311-5.607-.996-2.144-.195ZM67.606 96.11c2.717-2.29-2.632 1.02 0 0Zm5.652 3.898c.017-.735-1.171.321 0 0Zm.009-1.03c3.01-3.198-2.914.19 0 0ZM13.673 61.081c-2.564-3.673-1.593-5.324-4.067-8.325-.47-2.295-4.244-7.499-1.952-1.986 2.098 3.226 2.72 8.218 6.02 10.31h-.001Zm58.65 36.879c5.539-3.592-2.27-1.563 0 0Zm4.227 1.662c2.773-2.389-1.755-.498 0 0Zm-56-36.03c.792-1.186-2.05-.153 0 0Zm55.117 34.896c2.684-1.737-.618-1.47-.486.159l.486-.16ZM39.243 75.436c-.092-1.176-1.42.099 0 0Zm2.25 1.3c-.717-1.453-1.1.228 0 0Zm38.481 22.926c3.44-2.492-2.083-.478-.72.474l.72-.474Zm-1.318-.64c2.803-2.356-2.956 1.044 0 0Zm6.73 4.498c1.88-1.263-2.286-.408 0 0ZM22.274 62.737c2.52.567 10.074 6.232 5.618.393-2.282-.678-.913-6.28-3.242-5.29 1.563 2.622 1.285 3.735-1.997 2.085-4.12-2.023-2.316 1-1.508 1.834-1.1.252 1.452.957 1.129.977ZM10.79 53.63c.451-1.876-4.157-10.311-2.175-4.228.713 1.275.64 3.69 2.175 4.228Zm21.08 13.05c-1.3-1.09-.063-.156 0 0Zm3.195.748c0-1.987-3.532-.808 0 0ZM62.769 84.96c-.529-1.357-2.089-.03 0 0Zm1.33.975c-.198-.76-.769.147 0 0Zm10.98 6.946c1.055-.783-1.318-.101 0 0ZM16.524 55.1c3.021-1.174-3.237-.837 0 0ZM60.33 82.81c-.035-1.963-1.927.49 0 0ZM15.332 52.306c1.94-.656-1.797-.431 0 0Zm5.63 2.74c-.033-.645-.595.246 0 0ZM89.654 97.34c2.495-.507 8.183 1.276 9.1-.662-3.03-.076-10.48-2.15-10.834.491l.664.106 1.07.065ZM22.752 55.5c.046-1.99-1.545-.075 0 0ZM7.948 45.185c-.673-3.79-2.559-.573 0 0Zm3.529.892c.045-1.219-3.231-1.096 0 0Zm2.017.996c-.582-.475-.454.596 0 0Zm12.698 8.177c.599-.553-1.416-.408 0 0Zm-14.04-10.422c-.343-2.862-4.091-.429 0 0Zm-7.241-4.717c-.102-1.32-.706.498 0 0Zm1.078-.816c-.176-1.567-.926.198 0 0Zm5.949 3.565c2.516-.99-4.583-2.053-.515-.186l.515.186Zm79.626 49.386c1.61-1.482-2.044-.459 0 0Zm9.62 5.005c.646-1.914-1.626.253 0 0ZM12.545 39.73c.267-1.854-1.995.369 0 0ZM4.08 34.035c-.454-2.617-.392-7.211 3.957-5.66-5.804 1.159 4.02 7.246 2.779 2.44 2.441.12 4.776-1.45 3.494.93 4.811-.531 8.144-4.72 12.79-4.132 3.62-.483 7.576-.846 11.477-2.31 3.206-.232 6.293-3.698 4.537-5.753-4.373-.372-8.952.177-13.784 1.143-5.355 1.116-10.22 3.24-15.624 4.153-5.27.712 1.058 1.957-.452 2.236-2.746.957 3.279 1.602-.355 2.613-2.244-.428-4.582-1.203-3.622-3.58-5.045.66-9.48 2.761-5.493 7.916l.296.003v.001Zm12.16-6.218c1.181-4.375 6.336 3.601 1.937.582-.523-.396-1.39-.717-1.936-.582Zm.23-2.122c1.707-1.275.906.718 0 0Zm2.167.037c.156-2.014 4.965 1.065.792.723l-.792-.724Zm2.965-1.198c1.084-1.273.314 1.128 0 0Zm.76-.51c1.804-2.175 10.21-1.39 4.057-.213-1.65-1.248-2.913.735-4.058.214Zm10.972-1.698c-.271-5.945 5.455 2.11 0 0Zm3.115-.019c1.138-2.994 4.42-1.202.529-.603.083.322-.117 1.55-.529.603ZM11.32 38.194c3.4-2.092-3.611-1.815 0 0Zm2.515.699c1.193-1.272-2.594-.516 0 0Zm-7.411-5.278c1.942-1.5-2.301-.57 0 0Zm100.439 63.09c.057-1.74-1.485.783 0 0ZM96.656 89.71c.29-2-1.312.175 0 0Zm13.012 7.67c2.717.01 8.233-.849 2.322-.846-.929.145-5.406.115-2.322.847ZM16.046 37.666c2.2-.15 3.44-2.434-.428-2.305-5.991-.62 5.287 2.062-.767 1.294-.813.54 1.147 1.16 1.195 1.01Zm1.937.985c-.23-1.417-.682.752 0 0Zm2.298-6.152c.953-1.189-1.321-.318 0 0Zm-7.316-12.276c3.927-1.338 9.294-2.845 11.147.661-1.886-2.277-.761-4.523 1.02-1.189 2.519 3.37 3.78-1.533 2.142-2.664 1.868 2.328 3.99 3.43 1.249.147 2.98-3.598-5.962.471-7.994.429-.977.44-10.095 2.334-7.564 2.616Zm2.3-4.422c2.24-1.695 7.744 1.01 4.212-1.687-.347-.306-7.734 2.047-4.211 1.687Zm8.163.338c2.618.066-1.13-3.535 1.99-1.902-.51-1.68-3.634-1.995-5.16-2.667-.864 1.536 1.756 4.59 3.17 4.57ZM16.698 8.7c.905-1.233-1.59.628 0 0Zm3.335.801c4.223-.56-1.076-1.824-.852-.045l.852.045Zm-6.229-4.89c-2.974-3.899 5.592.653 2.57-3.428-2.543-2.031-4.984 2.29-2.57 3.427Zm38.148 20.63c1.364-2.425-5.627-3.271-.917-.86.434.145.336 1.027.918.86Zm-27.68 90.321c-.302 1.196-.489 3.202-.559 6.019 0 .553-.248.831-.745.831-.498 0-.845-.242-1.04-.724-.534-1.302-1.038-2.21-1.52-2.729-.567-.605-1.323-.972-2.264-1.096-1.013-.161-3.535-.241-7.566-.241-.924 0-1.528.098-1.812.295-.178.124-.266.392-.266.803v12.119c0 .41.257.606.771.589 1.582-.019 3.873-.127 6.874-.322.587-.072.983-.264 1.186-.576.206-.312.406-1.118.6-2.421.123-.713.542-.99 1.252-.828.604.124.863.401.774.828-.498 2.427-.659 5.584-.481 9.472.019.463-.274.713-.879.749-.498.054-.809-.214-.932-.803-.461-2.229-1.32-3.42-2.57-3.573-1.253-.15-3.293-.226-6.116-.226-.32 0-.48.115-.48.347v12.039c0 .892.328 1.499.985 1.819.517.268 1.626.509 3.33.723.872.089 1.253.474 1.148 1.15-.108.589-.888.821-2.346.696-4.21-.339-7.683-.321-10.417.055-.765.105-1.146-.207-1.146-.937 0-.465.381-.732 1.146-.803 1.74-.197 2.61-1.731 2.61-4.601v-22.903c0-1.176-.209-2.081-.625-2.714-.419-.634-1.196-1.21-2.331-1.726-.711-.322-.977-.758-.8-1.311.089-.339.231-.527.425-.562.178-.054.65-.018 1.412.108 1.12.178 3.758.267 7.914.267 4.904 0 9.139-.108 12.71-.321 1.19-.072 1.786.026 1.786.294 0 .072-.01.142-.028.214Zm17.279 33.961c0 .714-.4 1.026-1.199.936-2.45-.232-5.488-.197-9.111.106-.73.073-1.177.054-1.347-.051-.169-.108-.252-.402-.252-.885 0-.427.483-.788 1.451-1.083.97-.293 1.452-1.172 1.452-2.634v-24.213c0-1.445-.209-2.506-.625-3.184-.418-.678-1.15-1.204-2.198-1.578-.552-.197-.828-.473-.828-.83 0-.535.4-.936 1.2-1.204 1.208-.392 2.46-.998 3.758-1.819 1.066-.642 1.741-.962 2.024-.962.657 0 .987.453.987 1.363 0-.07-.036.822-.108 2.675-.052 1.766-.07 3.505-.052 5.218l.105 23.89c0 1.089.267 1.879.8 2.369.533.49 1.449.816 2.744.976.799.088 1.199.392 1.199.91Zm24.099-1.577c0 .375-.68.94-2.038 1.698-1.36.758-2.448 1.137-3.264 1.137-.694 0-1.306-.338-1.838-1.016-.533-.678-.908-1.016-1.12-1.016-.16 0-1.003.365-2.532 1.096-1.526.731-3.064 1.098-4.609 1.098-1.456 0-2.674-.429-3.65-1.284-1.066-.946-1.599-2.23-1.599-3.854 0-3.085 3.517-5.296 10.552-6.634 1.207-.232 1.82-.723 1.837-1.472l.055-1.712c.107-2.925-1.181-4.387-3.864-4.387-.764 0-1.488.686-2.173 2.059-.682 1.375-1.665 2.114-2.943 2.222-1.457.141-2.185-.474-2.185-1.847 0-.857 1.083-1.854 3.25-2.997 2.274-1.194 4.46-1.792 6.556-1.792 3.605 0 5.39 1.722 5.355 5.164l-.107 11.021c-.017 1.16.472 1.739 1.465 1.739.196 0 .57-.044 1.12-.133.551-.089.871-.134.96-.134.514 0 .772.349.772 1.044Zm-8.206-6.099c.018-.447-.086-.742-.308-.883-.222-.143-.571-.171-1.051-.082-4.282.768-6.422 2.168-6.422 4.201 0 2.051 1.11 3.076 3.33 3.076.889 0 1.804-.168 2.744-.507 1.103-.393 1.653-.865 1.653-1.419l.054-4.387v.001Zm28.015 3.021c0 1.89-.725 3.394-2.172 4.508-1.447 1.116-3.423 1.673-5.929 1.673-1.669 0-3.34-.178-5.009-.535-1.44-.322-2.274-.615-2.505-.883-.142-.251-.213-1.471-.213-3.666 0-.945.213-1.436.64-1.471.426-.054.79.179 1.093.695 1.331 2.337 3.481 3.506 6.448 3.506 2.503 0 3.756-.875 3.756-2.624 0-.765-.284-1.408-.853-1.925-.622-.588-1.828-1.275-3.623-2.06-2.594-1.159-4.326-2.175-5.196-3.05-.942-.927-1.412-2.176-1.412-3.746 0-1.927.737-3.424 2.211-4.494 1.368-1.035 3.198-1.551 5.488-1.551 1.44 0 2.754.114 3.945.347 1.28.232 1.945.517 1.999.856.14.998.435 2.443.879 4.335.053.23-.197.418-.746.561-.587.125-.977.026-1.173-.294-1.403-2.302-3.179-3.452-5.33-3.452-2.432 0-3.65.785-3.65 2.354 0 .875.33 1.57.986 2.087.587.446 1.963 1.142 4.13 2.088 2.274.981 3.82 1.864 4.638 2.648 1.065 1.016 1.598 2.382 1.598 4.093Zm31.347 4.682c0 .624-.418.954-1.253.99-1.244.018-2.87.107-4.876.267-.995.197-1.706.073-2.131-.373-2.807-3.032-5.188-6.207-7.143-9.526-.159-.284-.363-.427-.612-.427-.302 0-.825.268-1.571.803-.836.463-1.253 1.124-1.253 1.978 0 .608.017 1.481.054 2.624.035 1.14.318 1.889.851 2.246.374.251 1.237.446 2.585.589.835.108 1.253.42 1.253.936 0 .411-.067.666-.2.762-.133.098-.485.121-1.053.067-1.776-.16-4.778-.071-9.005.268-1.066.089-1.644-.045-1.732-.402a2.067 2.067 0 0 1-.054-.535c0-.552.542-.972 1.627-1.256.976-.251 1.465-1.401 1.465-3.452v-23.383c0-1.462-.142-2.479-.428-3.049-.39-.732-1.208-1.303-2.451-1.713-.585-.195-.88-.472-.88-.829 0-.518.42-.919 1.253-1.203a16.688 16.688 0 0 0 3.81-1.847c.978-.641 1.582-.963 1.812-.963.73 0 1.093.463 1.093 1.392 0-.126-.009.758-.028 2.648a436.52 436.52 0 0 0-.025 5.244l.053 16.747c0 .465.124.695.372.695.267 0 .676-.23 1.227-.695 1.474-1.159 3.286-2.675 5.435-4.548.427-.446.639-.803.639-1.07 0-.481-.719-.822-2.157-1.016-.621-.073-.916-.42-.881-1.045.054-.624.365-.891.933-.802 1.28.179 3.146.277 5.595.295 1.706.017 3.403.027 5.091.027.549.018.825.347.825.99 0 .606-.435.936-1.305.99a9.786 9.786 0 0 0-3.863.936c-1.688.766-3.492 2.113-5.41 4.039a.49.49 0 0 0-.213.402c0 .249.301.847.906 1.792 2.221 3.389 4.317 5.948 6.288 7.679 1.262 1.087 2.442 1.631 3.543 1.631.818 0 1.325.058 1.519.175.196.116.295.424.295.922Z" fill="#000"/></g><defs><clipPath id="a"><path fill="#fff" transform="translate(0 .15)" d="M0 0h117v151H0z"/></clipPath></defs></svg>